SplineFontDB: 3.2
FontName: FurnaceIcons
FullName: Furnace Icons
FamilyName: Furnace Icons
Weight: Regular
Copyright: 
UComments: "To generate a new icon:+AAoACgAA-- Open +ACIA-IBM Plex Sans Medium+ACIA to the side. Return to the icons font.+AAoA-- Copy char EFF0 (the one with just two baselines) to the new codepoint.+AAoA-- Open the new codepoint.+AAoA-- Select the upper baseline.+AAoA-- Use `Element | Insert Text Outlines...` to place text:+AAoA  - Turn off +ACIA-Scale so text width matches path length+ACIA.+AAoA  - Align +ACIA-centered+ACIA.+AAoA  - Type first line of text into the box.+AAoA  - Click the +ACIA-Insert+ACIA button (might need window resize to be visible).+AAoA-- Delete the baseline.+AAoA-- If there's a line 2, repeat for the lower baseline, including deletion.+AAoA-- Select all.+AAoA-- Use `Element | Transformations | Transform...` to Scale Uniformly and Move as needed:+AAoA  - One letter: 12000%, X -896, Y 120.5.+AAoA  - Two letters: 10000%, X -896, Y 204.2.+AAoA  - Three letters: 8000%, X -896, Y 288.+AAoA  - Two lines: 8000%, X -896, Y 723.5.+AAoA-- If resulting glyph is too wide, repeat all steps starting with +ACIA-IBM Plex Sans Condensed Medium+ACIA instead.+AAoA  - Remember to close the other IBM Plex font or select the proper one in the text dialog.+AAoACgAA-Note: Codepoints EFF0 to EFF4 are for reference and shouldn't be used.+AAoACgAA-Note: WSG icon (F01F) has been slightly kerned to fit.+AAoA"
Version: 001.000
ItalicAngle: 0
UnderlinePosition: 0
UnderlineWidth: 0
Ascent: 1536
Descent: 256
InvalidEm: 0
LayerCount: 2
Layer: 0 0 "Back" 1
Layer: 1 0 "Fore" 0
XUID: [1021 230 235539655 14169]
FSType: 0
OS2Version: 0
OS2_WeightWidthSlopeOnly: 0
OS2_UseTypoMetrics: 0
CreationTime: 1691897631
ModificationTime: 1691949682
PfmFamily: 81
TTFWeight: 400
TTFWidth: 5
LineGap: 0
VLineGap: 0
OS2TypoAscent: 1536
OS2TypoAOffset: 0
OS2TypoDescent: -256
OS2TypoDOffset: 0
OS2TypoLinegap: 0
OS2WinAscent: 1536
OS2WinAOffset: 0
OS2WinDescent: 256

StartChar: uniEFF1
Encoding: 61425 61425 1
Width: 1792
Flags: W
HStem: 120.5 139.688<684.242 1061.86> 565.461 135.352<684.242 1028.79> 985.93 139.688<684.242 1028.79>
VStem: 521.586 162.656<260.188 565.461 700.812 985.93> 1062.99 171.328<732.723 954.019> 1098.97 171.445<294.391 531.257>
LayerCount: 2
UndoRedoHistory
Layer: 1
Undoes
UndoOperation
Index: 0
Type: 12
WasModified: 0
WasOrder2: 0
Layer: 0
EndUndoOperation
EndUndoes
Redoes
EndRedoes
EndUndoRedoHistory
Fore
SplineSet
521.5859375 1125.6171875 m 1xf4
 669.90625 1125.6171875 818.2265625 1125.6171875 966.546875 1125.6171875 c 1
 1049.984375 1125.6171875 1115.609375 1102.0625 1163.0703125 1055.0703125 c 0
 1210.6484375 1008.078125 1234.3203125 945.1484375 1234.3203125 866.3984375 c 0xf8
 1234.3203125 829.015625 1229.046875 797.0234375 1218.5 770.65625 c 0
 1207.953125 744.2890625 1194.4765625 722.609375 1178.1875 705.8515625 c 0
 1161.8984375 689.09375 1143.1484375 676.5546875 1122.0546875 668.46875 c 0
 1100.9609375 660.265625 1080.3359375 655.2265625 1060.0625 653.3515625 c 1
 1060.0625 650.4609375 1060.0625 647.5703125 1060.0625 644.6796875 c 1
 1080.3359375 643.7421875 1102.6015625 638.9375 1127.09375 630.265625 c 0
 1151.5859375 621.59375 1174.3203125 607.8828125 1195.53125 589.25 c 0
 1216.625 570.5 1234.3203125 546.4765625 1248.734375 517.1796875 c 0
 1263.1484375 487.8828125 1270.4140625 452.140625 1270.4140625 409.953125 c 0
 1270.4140625 369.640625 1263.8515625 331.671875 1250.9609375 296.1640625 c 0
 1237.953125 260.65625 1219.90625 229.953125 1196.9375 204.0546875 c 0
 1173.8515625 178.15625 1146.546875 157.6484375 1114.7890625 142.765625 c 0
 1083.1484375 127.8828125 1048.578125 120.5 1011.1953125 120.5 c 1
 847.9921875 120.5 684.7890625 120.5 521.5859375 120.5 c 1
 521.5859375 455.5390625 521.5859375 790.578125 521.5859375 1125.6171875 c 1xf4
684.2421875 260.1875 m 1
 777.3671875 260.1875 870.4921875 260.1875 963.6171875 260.1875 c 1
 1005.921875 260.1875 1038.96875 271.203125 1062.9921875 293.3515625 c 0xf8
 1087.015625 315.3828125 1098.96875 347.0234375 1098.96875 388.390625 c 1
 1098.96875 404.6796875 1098.96875 420.96875 1098.96875 437.2578125 c 1xf4
 1098.96875 478.625 1087.015625 510.265625 1062.9921875 532.296875 c 0
 1038.96875 554.4453125 1005.921875 565.4609375 963.6171875 565.4609375 c 1
 870.4921875 565.4609375 777.3671875 565.4609375 684.2421875 565.4609375 c 1
 684.2421875 463.703125 684.2421875 361.9453125 684.2421875 260.1875 c 1
684.2421875 700.8125 m 1
 768.265625 700.8125 852.2890625 700.8125 936.3125 700.8125 c 1
 976.625 700.8125 1007.796875 711.125 1029.828125 731.75 c 0
 1051.9765625 752.375 1062.9921875 781.90625 1062.9921875 820.34375 c 1
 1062.9921875 835.6953125 1062.9921875 851.046875 1062.9921875 866.3984375 c 1
 1062.9921875 904.8359375 1051.9765625 934.3671875 1029.828125 954.9921875 c 0
 1007.796875 975.6171875 976.625 985.9296875 936.3125 985.9296875 c 1
 852.2890625 985.9296875 768.265625 985.9296875 684.2421875 985.9296875 c 1
 684.2421875 890.890625 684.2421875 795.8515625 684.2421875 700.8125 c 1
EndSplineSet
EndChar

StartChar: uniEFF0
Encoding: 61424 61424 2
Width: 1792
Flags: HW
LayerCount: 2
UndoRedoHistory
Layer: 1
Undoes
UndoOperation
Index: 0
Type: 3
WasModified: 0
WasOrder2: 0
Layer: 2
EndUndoOperation
EndUndoes
Redoes
EndRedoes
EndUndoRedoHistory
Fore
SplineSet
-717.389648438 -10.8251953125 m 8
 717.249023438 -10.8251953125 l 1024
-896 0 m 12
 896 0 l 1028
EndSplineSet
EndChar

StartChar: uniF000
Encoding: 61440 61440 3
Width: 1792
Flags: W
HStem: 276.516 95.9375<754.864 980.648 1382.09 1612.77> 554.875 95.0781<141.391 377.778 1516.16 1654.36> 873.625 95.9375<141.391 377.778 780.433 998.844 1381.56 1608.87>
VStem: 32.9531 108.438<288 554.875 649.953 863.078> 401.547 114.297<672.194 840.759> 648.969 107.5<716.387 852.68> 1008.97 107.5<399.565 546.758> 1203.19 116.172<435.958 809.848> 1663.97 95.0781<288 389.797 421.503 551.984>
DStem2: 863.031 689.25 844.75 586.594 0.978916 -0.204262<-84.378 149.631>
LayerCount: 2
UndoRedoHistory
Layer: 1
Undoes
UndoOperation
Index: 0
Type: 12
WasModified: 0
WasOrder2: 0
Layer: 0
HStem: 276.516 95.9375<754.864 980.648 1382.09 1612.77> 554.875 95.0781<141.391 377.778 1516.16 1654.36> 873.625 95.9375<141.391 377.778 780.433 998.844 1381.56 1608.87>
VStem: 32.9531 108.438<288 554.875 649.953 863.078> 401.547 114.297<672.194 840.759> 648.969 107.5<716.387 852.68> 1008.97 107.5<399.565 546.758> 1203.19 116.172<435.958 809.848> 1663.97 95.0781<288 389.797 421.503 551.984>
DStem2: 863.031 689.25 844.75 586.594 0.978916 -0.204262<-84.378 149.631>
EndUndoOperation
EndUndoes
Redoes
EndRedoes
EndUndoRedoHistory
Fore
SplineSet
32.953125 288 m 1
 32.953125 511.359375 32.953125 734.71875 32.953125 958.078125 c 1
 128.942382812 958.078125 224.932617188 958.078125 320.921875 958.078125 c 1
 383.03125 958.078125 431 939.875 464.90625 903.390625 c 0
 498.890625 866.90625 515.84375 817.921875 515.84375 756.515625 c 256
 515.84375 695.03125 498.890625 646.046875 464.90625 609.5625 c 0
 431 573.15625 383.03125 554.875 320.921875 554.875 c 1
 261.078125 554.875 201.234375 554.875 141.390625 554.875 c 1
 141.390625 465.916992188 141.390625 376.958007812 141.390625 288 c 1
 105.245117188 288 69.0986328125 288 32.953125 288 c 1
141.390625 649.953125 m 1
 198.995117188 649.953125 256.598632812 649.953125 314.203125 649.953125 c 1
 341.703125 649.953125 363.1875 657.140625 378.5 671.515625 c 0
 393.890625 685.890625 401.546875 706.59375 401.546875 733.46875 c 1
 401.546875 748.807617188 401.546875 764.145507812 401.546875 779.484375 c 1
 401.546875 806.4375 393.890625 827.0625 378.5 841.4375 c 0
 363.1875 855.8125 341.703125 863.078125 314.203125 863.078125 c 1
 256.598632812 863.078125 198.995117188 863.078125 141.390625 863.078125 c 1
 141.390625 792.036132812 141.390625 720.995117188 141.390625 649.953125 c 1
873.578125 276.515625 m 0
 817.25 276.515625 769.4375 286.75 730.0625 307.21875 c 0
 690.6875 327.6875 656.9375 355.1875 628.8125 389.796875 c 1
 653.760742188 413.15625 678.708007812 436.515625 703.65625 459.875 c 1
 727.328125 431.046875 753.421875 409.25 781.859375 394.5625 c 0
 810.375 379.875 842.875 372.453125 879.359375 372.453125 c 0
 922.25 372.453125 954.515625 382.0625 976.3125 401.28125 c 0
 998.03125 420.5 1008.96875 446.4375 1008.96875 479.015625 c 0
 1008.96875 505.265625 1001.234375 526.046875 985.921875 541.4375 c 0
 970.53125 556.828125 943.34375 568.3125 904.28125 575.96875 c 1
 884.4375 579.510742188 864.59375 583.051757812 844.75 586.59375 c 1
 779.515625 598.703125 730.53125 620.1875 697.875 650.890625 c 0
 665.21875 681.59375 648.96875 723.859375 648.96875 777.609375 c 0
 648.96875 807.0625 654.515625 833.78125 665.765625 857.765625 c 0
 676.9375 881.75 692.640625 901.90625 712.796875 918.234375 c 0
 732.953125 934.5625 757.40625 947.21875 786.234375 956.125 c 0
 814.984375 965.109375 847.328125 969.5625 883.1875 969.5625 c 0
 933.734375 969.5625 977.5625 960.8125 1014.671875 943.234375 c 0
 1051.78125 925.578125 1083.5 900.1875 1109.75 866.90625 c 1
 1084.46386719 844.510742188 1059.17675781 822.114257812 1033.890625 799.71875 c 1
 1016.625 822.0625 995.53125 840.03125 970.53125 853.46875 c 0
 945.609375 866.90625 914.515625 873.625 877.40625 873.625 c 0
 839.046875 873.625 809.28125 865.890625 788.109375 850.578125 c 0
 767.015625 835.1875 756.46875 812.765625 756.46875 783.390625 c 0
 756.46875 755.1875 765.0625 734.25 782.40625 720.5 c 0
 799.671875 706.75 826.546875 696.28125 863.03125 689.25 c 1
 882.875 685.109375 902.71875 680.96875 922.5625 676.828125 c 1
 989.75 664.015625 1038.890625 642.21875 1069.90625 611.515625 c 0
 1100.921875 580.8125 1116.46875 538.546875 1116.46875 484.796875 c 0
 1116.46875 453.46875 1111 424.953125 1100.140625 399.328125 c 0
 1089.28125 373.78125 1073.421875 351.828125 1052.640625 333.625 c 0
 1031.78125 315.34375 1006.390625 301.28125 976.3125 291.359375 c 0
 946.234375 281.4375 911.9375 276.515625 873.578125 276.515625 c 0
1663.96875 389.796875 m 1
 1662.69238281 389.796875 1661.41699219 389.796875 1660.140625 389.796875 c 1
 1653.109375 357.140625 1634.046875 330.109375 1603.03125 308.625 c 0
 1571.9375 287.21875 1530.84375 276.515625 1479.671875 276.515625 c 0
 1439.984375 276.515625 1403.1875 284.015625 1369.28125 299.015625 c 0
 1335.296875 314.09375 1306.078125 336.125 1281.390625 365.265625 c 0
 1256.78125 394.40625 1237.5625 430.578125 1223.8125 473.78125 c 0
 1210.0625 516.984375 1203.1875 566.75 1203.1875 623.078125 c 0
 1203.1875 678.703125 1210.21875 728.15625 1224.28125 771.359375 c 0
 1238.34375 814.5625 1258.1875 850.890625 1283.8125 880.34375 c 0
 1309.4375 909.796875 1340.140625 931.984375 1376 947.0625 c 0
 1411.78125 962.0625 1451.78125 969.5625 1496 969.5625 c 0
 1556.15625 969.5625 1607.015625 956.28125 1648.578125 929.796875 c 0
 1690.21875 903.234375 1722.5625 866.203125 1745.609375 818.859375 c 1
 1716.15625 801.59375 1686.703125 784.328125 1657.25 767.0625 c 1
 1644.4375 798.390625 1624.59375 823.859375 1597.71875 843.390625 c 0
 1570.84375 862.84375 1536.9375 872.609375 1496 872.609375 c 0
 1442.875 872.609375 1400.140625 855.65625 1367.796875 821.75 c 0
 1335.53125 787.84375 1319.359375 739.875 1319.359375 677.765625 c 1
 1319.359375 641.28125 1319.359375 604.796875 1319.359375 568.3125 c 1
 1319.359375 506.203125 1335.53125 458.234375 1367.796875 424.328125 c 0
 1400.140625 390.421875 1442.875 373.46875 1496 373.46875 c 0
 1517.09375 373.46875 1537.25 376.125 1556.46875 381.59375 c 0
 1575.6875 387.0625 1592.484375 395.03125 1606.859375 405.578125 c 0
 1621.234375 416.125 1632.796875 429.25 1641.390625 444.953125 c 0
 1650.0625 460.65625 1654.359375 479.015625 1654.359375 500.1875 c 1
 1654.359375 517.453125 1654.359375 534.71875 1654.359375 551.984375 c 1
 1608.29199219 551.984375 1562.22363281 551.984375 1516.15625 551.984375 c 1
 1516.15625 583.026367188 1516.15625 614.067382812 1516.15625 645.109375 c 1
 1597.12011719 645.109375 1678.08300781 645.109375 1759.046875 645.109375 c 1
 1759.046875 526.073242188 1759.046875 407.036132812 1759.046875 288 c 1
 1727.35449219 288 1695.66113281 288 1663.96875 288 c 1
 1663.96875 321.932617188 1663.96875 355.864257812 1663.96875 389.796875 c 1
EndSplineSet
EndChar

StartChar: uniF001
Encoding: 61441 61441 4
Width: 1792
Flags: W
HStem: 276.516 90.2344<203.228 410.876> 558.703 90.2344<815.531 1024.71> 867.844 90.2344<194.777 419.326 815.531 1024.71>
VStem: 46.8594 109.453<414.775 831.303> 457.719 109.453<414.775 831.303> 713.734 101.797<288 558.703 648.938 867.844> 1043.97 108.516<668.279 848.506> 1273.73 117.109<882.653 958.078> 1273.73 97.9688<288 813.051> 1627.02 118.125<288 363.425> 1647.17 97.9688<433.027 958.078>
DStem2: 1590.53 555.812 1376.47 815.031 0.377481 -0.926017<-320.846 135.117>
LayerCount: 2
UndoRedoHistory
Layer: 1
Undoes
UndoOperation
Index: 0
Type: 12
WasModified: 0
WasOrder2: 0
Layer: 0
HStem: 276.516 90.2344<203.228 410.876> 558.703 90.2344<815.531 1024.71> 867.844 90.2344<194.777 419.326 815.531 1024.71>
VStem: 46.8594 109.453<414.775 831.303> 457.719 109.453<414.775 831.303> 713.734 101.797<288 558.703 648.938 867.844> 1043.97 108.516<668.279 848.506> 1273.73 117.109<882.653 958.078> 1273.73 97.9688<288 813.051> 1627.02 118.125<288 363.425> 1647.17 97.9688<433.027 958.078>
DStem2: 1590.53 555.812 1376.47 815.031 0.377481 -0.926017<-320.846 135.117>
EndUndoOperation
EndUndoes
Redoes
EndRedoes
EndUndoRedoHistory
Fore
SplineSet
307.015625 276.515625 m 256xfe
 266.703125 276.515625 230.53125 283.078125 198.578125 296.125 c 0
 166.546875 309.25 139.203125 329.953125 116.46875 358.078125 c 0
 93.734375 386.203125 76.46875 422.21875 64.59375 466.046875 c 0
 52.796875 509.953125 46.859375 562.21875 46.859375 623.078125 c 256
 46.859375 683.859375 52.796875 736.125 64.59375 780.03125 c 0
 76.46875 823.859375 93.734375 859.875 116.46875 888 c 0
 139.203125 916.125 166.546875 936.828125 198.578125 949.953125 c 0
 230.53125 963.078125 266.703125 969.5625 307.015625 969.5625 c 256
 347.328125 969.5625 383.5 963.078125 415.53125 949.953125 c 0
 447.484375 936.828125 474.90625 916.125 497.5625 888 c 0
 520.296875 859.875 537.5625 823.859375 549.4375 780.03125 c 0
 561.234375 736.125 567.171875 683.859375 567.171875 623.078125 c 256
 567.171875 562.21875 561.234375 509.953125 549.4375 466.046875 c 0
 537.5625 422.21875 520.296875 386.203125 497.5625 358.078125 c 0
 474.90625 329.953125 447.484375 309.25 415.53125 296.125 c 0
 383.5 283.078125 347.328125 276.515625 307.015625 276.515625 c 256xfe
307.015625 366.75 m 256
 355.0625 366.75 392.171875 382.21875 418.421875 413.3125 c 0
 444.59375 444.328125 457.71875 487.375 457.71875 542.375 c 1
 457.71875 596.151367188 457.71875 649.926757812 457.71875 703.703125 c 1
 457.71875 758.703125 444.59375 801.75 418.421875 832.765625 c 0
 392.171875 863.859375 355.0625 879.328125 307.015625 879.328125 c 256
 259.046875 879.328125 221.9375 863.859375 195.6875 832.765625 c 0
 169.4375 801.75 156.3125 758.703125 156.3125 703.703125 c 1
 156.3125 649.926757812 156.3125 596.151367188 156.3125 542.375 c 1
 156.3125 487.375 169.4375 444.328125 195.6875 413.3125 c 0
 221.9375 382.21875 259.046875 366.75 307.015625 366.75 c 256
713.734375 288 m 1
 713.734375 511.359375 713.734375 734.71875 713.734375 958.078125 c 1
 802.067382812 958.078125 890.401367188 958.078125 978.734375 958.078125 c 1
 1036.3125 958.078125 1079.671875 940.96875 1108.8125 906.75 c 0
 1137.875 872.453125 1152.484375 823.078125 1152.484375 758.390625 c 256
 1152.484375 693.78125 1137.875 644.328125 1108.8125 610.109375 c 0
 1079.671875 575.8125 1036.3125 558.703125 978.734375 558.703125 c 1
 924.333007812 558.703125 869.932617188 558.703125 815.53125 558.703125 c 1
 815.53125 468.46875 815.53125 378.234375 815.53125 288 c 1
 781.598632812 288 747.666992188 288 713.734375 288 c 1
815.53125 648.9375 m 1
 867.041992188 648.9375 918.551757812 648.9375 970.0625 648.9375 c 1
 994.359375 648.9375 1012.796875 655.1875 1025.296875 667.6875 c 0
 1037.71875 680.1875 1043.96875 700.1875 1043.96875 727.6875 c 1
 1043.96875 748.15625 1043.96875 768.625 1043.96875 789.09375 c 1
 1043.96875 816.671875 1037.71875 836.671875 1025.296875 849.09375 c 0
 1012.796875 861.59375 994.359375 867.84375 970.0625 867.84375 c 1
 918.551757812 867.84375 867.041992188 867.84375 815.53125 867.84375 c 1
 815.53125 794.875 815.53125 721.90625 815.53125 648.9375 c 1
1427.328125 690.265625 m 1
 1410.375 731.854492188 1393.421875 773.442382812 1376.46875 815.03125 c 1
 1372.30175781 815.03125 1368.13574219 815.03125 1363.96875 815.03125 c 1
 1366.546875 772.791992188 1369.125 730.551757812 1371.703125 688.3125 c 1
 1371.703125 554.875 1371.703125 421.4375 1371.703125 288 c 1
 1339.046875 288 1306.390625 288 1273.734375 288 c 1xfec0
 1273.734375 511.359375 1273.734375 734.71875 1273.734375 958.078125 c 1
 1312.77050781 958.078125 1351.80761719 958.078125 1390.84375 958.078125 c 1
 1457.40625 823.989257812 1523.96875 689.901367188 1590.53125 555.8125 c 1
 1607.82324219 514.223632812 1625.11425781 472.635742188 1642.40625 431.046875 c 1
 1646.57324219 431.046875 1650.73925781 431.046875 1654.90625 431.046875 c 1
 1652.328125 473.286132812 1649.75 515.526367188 1647.171875 557.765625 c 1
 1647.171875 691.203125 1647.171875 824.640625 1647.171875 958.078125 c 1
 1679.828125 958.078125 1712.484375 958.078125 1745.140625 958.078125 c 1xff20
 1745.140625 734.71875 1745.140625 511.359375 1745.140625 288 c 1
 1705.765625 288 1666.390625 288 1627.015625 288 c 1xfe40
 1560.453125 422.088867188 1493.890625 556.176757812 1427.328125 690.265625 c 1
EndSplineSet
EndChar

StartChar: uniF002
Encoding: 61442 61442 5
Width: 1792
Flags: W
HStem: 189.845 121.191<399.409 663.663> 204.2 116.406<1138.19 1452.86> 534.181 116.406<556.547 729.398> 575.001 112.793<1138.19 1425.21> 925.392 116.406<1138.19 1425.21> 934.962 121.191<400.057 661.626>
VStem: 165.336 145.312<402.614 842.606> 741.312 118.945<204.2 331.446 382.934 534.181> 1002.64 135.547<320.606 575.001 687.794 925.392> 1453.81 142.773<714.386 898.799> 1483.7 142.969<349.11 546.498>
LayerCount: 2
UndoRedoHistory
Layer: 1
Undoes
UndoOperation
Index: 0
Type: 12
WasModified: 0
WasOrder2: 0
Layer: 0
HStem: 189.845 121.191<374.983 690.08 1138.19 1452.86> 534.18 116.406<556.547 729.398 1138.19 1419.33> 934.962 121.191<375.063 686.246 1138.19 1425.21>
VStem: 165.336 145.312<376.61 869.388> 741.312 118.945<204.2 331.446 360.973 534.18> 1002.64 135.547<320.606 575.001 687.794 925.391> 1483.7 142.969<349.109 546.498 714.386 898.799>
EndUndoOperation
EndUndoes
Redoes
EndRedoes
EndUndoRedoHistory
Fore
SplineSet
741.3125 331.446289062 m 1x6380
 739.75 331.446289062 738.1875 331.446289062 736.625 331.446289062 c 1
 727.8359375 290.625976562 704.0078125 256.836914062 665.140625 229.981445312 c 0
 626.2734375 203.223632812 574.90625 189.844726562 511.0390625 189.844726562 c 0
 461.4296875 189.844726562 415.3359375 199.219726562 372.953125 217.969726562 c 0
 330.5703125 236.817382812 294.046875 264.356445312 263.1875 300.782226562 c 0
 232.328125 337.208007812 208.3046875 382.422851562 191.1171875 436.426757812 c 0
 173.9296875 490.430664062 165.3359375 552.637695312 165.3359375 623.047851562 c 0
 165.3359375 692.579101562 174.125 754.395507812 191.703125 808.399414062 c 0
 209.28125 862.403320312 234.0859375 907.813476562 266.1171875 944.629882812 c 0
 298.1484375 981.446289062 336.625 1009.18066406 381.3515625 1028.02832031 c 0
 426.078125 1046.77832031 476.078125 1056.15332031 531.3515625 1056.15332031 c 0
 606.546875 1056.15332031 670.21875 1039.55175781 722.171875 1006.44628906 c 0
 774.125 973.243164062 814.5546875 926.954101562 843.4609375 867.774414062 c 1
 806.612304688 846.192382812 769.762695312 824.610351562 732.9140625 803.028320312 c 1
 716.8984375 842.188476562 692.09375 874.024414062 658.5 898.438476562 c 0
 624.90625 922.754882812 582.5234375 934.961914062 531.3515625 934.961914062 c 0
 464.9453125 934.961914062 411.625 913.770507812 371.1953125 871.387695312 c 0
 330.765625 829.004882812 310.6484375 769.043945312 310.6484375 691.407226562 c 1
 310.6484375 645.801757812 310.6484375 600.196289062 310.6484375 554.590820312 c 1
 310.6484375 476.954101562 330.765625 416.993164062 371.1953125 374.610351562 c 0
 411.625 332.227539062 464.9453125 311.036132812 531.3515625 311.036132812 c 0x8780
 557.71875 311.036132812 582.9140625 314.356445312 606.9375 321.192382812 c 0
 630.9609375 328.028320312 652.0546875 337.989257812 670.0234375 351.172851562 c 0
 687.9921875 364.356445312 702.4453125 380.762695312 713.1875 400.391601562 c 0
 723.9296875 420.020507812 729.3984375 442.969726562 729.3984375 469.434570312 c 1
 729.3984375 491.016601562 729.3984375 512.598632812 729.3984375 534.180664062 c 1
 671.78125 534.180664062 614.1640625 534.180664062 556.546875 534.180664062 c 1
 556.546875 572.982421875 556.546875 611.784179688 556.546875 650.586914062 c 1
 657.784179688 650.586914062 759.020507812 650.586914062 860.2578125 650.586914062 c 1
 860.2578125 501.791015625 860.2578125 352.995117188 860.2578125 204.200195312 c 1
 820.609375 204.200195312 780.9609375 204.200195312 741.3125 204.200195312 c 1
 741.3125 246.615234375 741.3125 289.030273438 741.3125 331.446289062 c 1x6380
1002.640625 1041.79785156 m 1x4ba0
 1126.20800781 1041.79785156 1249.77636719 1041.79785156 1373.34375 1041.79785156 c 1
 1442.875 1041.79785156 1497.5625 1022.16894531 1537.2109375 983.008789062 c 0
 1576.859375 943.848632812 1596.5859375 891.407226562 1596.5859375 825.782226562 c 0x4bc0
 1596.5859375 794.629882812 1592.09375 767.969726562 1583.3046875 745.997070312 c 0
 1574.515625 724.024414062 1563.3828125 705.958007812 1549.7109375 691.993164062 c 0
 1536.234375 678.028320312 1520.609375 667.579101562 1503.03125 660.840820312 c 0
 1485.453125 654.004882812 1468.265625 649.805664062 1451.2734375 648.243164062 c 1
 1451.2734375 645.833984375 1451.2734375 643.424804688 1451.2734375 641.016601562 c 1
 1468.265625 640.235351562 1486.8203125 636.231445312 1507.1328125 629.004882812 c 0
 1527.640625 621.778320312 1546.5859375 610.352539062 1564.1640625 594.825195312 c 0
 1581.7421875 579.200195312 1596.5859375 559.180664062 1608.5 534.766601562 c 0
 1620.609375 510.352539062 1626.6640625 480.567382812 1626.6640625 445.411132812 c 0
 1626.6640625 411.817382812 1621.1953125 380.176757812 1610.453125 350.586914062 c 0
 1599.515625 320.997070312 1584.4765625 295.411132812 1565.3359375 273.829101562 c 0
 1546.1953125 252.247070312 1523.34375 235.157226562 1496.9765625 222.754882812 c 0
 1470.609375 210.352539062 1441.703125 204.200195312 1410.6484375 204.200195312 c 1
 1274.64550781 204.200195312 1138.64355469 204.200195312 1002.640625 204.200195312 c 1
 1002.640625 483.399414062 1002.640625 762.598632812 1002.640625 1041.79785156 c 1x4ba0
1138.1875 320.606445312 m 1
 1215.79199219 320.606445312 1293.39550781 320.606445312 1371 320.606445312 c 1
 1406.15625 320.606445312 1433.6953125 329.786132812 1453.8125 348.243164062 c 0x53c0
 1473.734375 366.602539062 1483.6953125 392.969726562 1483.6953125 427.442382812 c 1
 1483.6953125 441.016601562 1483.6953125 454.590820312 1483.6953125 468.165039062 c 1x53a0
 1483.6953125 502.637695312 1473.734375 529.004882812 1453.8125 547.364257812 c 0
 1433.6953125 565.821289062 1406.15625 575.000976562 1371 575.000976562 c 1
 1293.39550781 575.000976562 1215.79199219 575.000976562 1138.1875 575.000976562 c 1x53c0
 1138.1875 490.202148438 1138.1875 405.404296875 1138.1875 320.606445312 c 1
1138.1875 687.793945312 m 1
 1208.17480469 687.793945312 1278.16113281 687.793945312 1348.1484375 687.793945312 c 1
 1381.7421875 687.793945312 1407.71875 696.387695312 1426.078125 713.575195312 c 0
 1444.6328125 730.762695312 1453.8125 755.372070312 1453.8125 787.403320312 c 1
 1453.8125 800.196289062 1453.8125 812.989257812 1453.8125 825.782226562 c 1
 1453.8125 857.813476562 1444.6328125 882.422851562 1426.078125 899.610351562 c 0
 1407.71875 916.797851562 1381.7421875 925.391601562 1348.1484375 925.391601562 c 1
 1278.16113281 925.391601562 1208.17480469 925.391601562 1138.1875 925.391601562 c 1x1bc0
 1138.1875 846.192382812 1138.1875 766.993164062 1138.1875 687.793945312 c 1
EndSplineSet
EndChar

StartChar: uniF003
Encoding: 61443 61443 6
Width: 1792
Flags: W
HStem: 276.516 96.9531<226.177 441.873 832.752 1027.57> 418.547 85.4688<1326.08 1544.91 1647.64 1738.89> 624.016 87.3438<857.168 1024.42> 859.172 98.9062<1514.99 1544.91> 872.609 96.9531<226.122 440.941>
VStem: 53.1094 115.156<435.807 813.111> 694.047 112.344<396.954 591.784> 1054.05 111.406<396.954 591.784> 1544.91 102.734<288 418.547 504.016 859.172>
DStem2: 1233.89 511.672 1326.08 504.016 0.512745 0.858541<40.6955 454.37>
LayerCount: 2
UndoRedoHistory
Layer: 1
Undoes
UndoOperation
Index: 0
Type: 12
WasModified: 0
WasOrder2: 0
Layer: 0
HStem: 276.516 96.9531<226.177 441.873 832.752 1027.57> 418.547 85.4688<1326.08 1544.91 1647.64 1738.89> 624.016 87.3438<857.168 1024.42> 859.172 98.9062<1514.99 1544.91> 872.609 96.9531<226.122 440.941>
VStem: 53.1094 115.156<435.807 813.111> 694.047 112.344<396.954 591.784> 1054.05 111.406<396.954 591.784> 1544.91 102.734<288 418.547 504.016 859.172>
DStem2: 1233.89 511.672 1326.08 504.016 0.512745 0.858541<40.6955 454.37>
EndUndoOperation
EndUndoes
Redoes
EndRedoes
EndUndoRedoHistory
Fore
SplineSet
334.359375 276.515625 m 0xef80
 246.703125 276.515625 177.875 306.046875 127.953125 365.265625 c 0
 78.03125 424.484375 53.109375 510.421875 53.109375 623.078125 c 0
 53.109375 679.328125 59.515625 728.9375 72.328125 771.828125 c 0
 85.0625 814.71875 103.65625 850.890625 127.953125 880.34375 c 0
 152.328125 909.796875 181.859375 931.984375 216.78125 947.0625 c 0
 251.625 962.0625 290.84375 969.5625 334.359375 969.5625 c 0
 392.640625 969.5625 441.390625 956.828125 480.765625 931.203125 c 0
 520.140625 905.578125 551 867.84375 573.421875 817.921875 c 1
 543.03125 801.28125 512.640625 784.640625 482.25 768 c 1
 470.6875 800.03125 452.953125 825.421875 428.96875 844.328125 c 0
 404.90625 863.234375 373.421875 872.609375 334.359375 872.609375 c 0
 282.5625 872.609375 241.859375 855.03125 212.484375 819.875 c 0
 183.03125 784.640625 168.265625 735.96875 168.265625 673.9375 c 1
 168.265625 640.004882812 168.265625 606.073242188 168.265625 572.140625 c 1
 168.265625 510.109375 183.03125 461.4375 212.484375 426.203125 c 0
 241.859375 391.046875 282.5625 373.46875 334.359375 373.46875 c 0
 374.671875 373.46875 407.484375 383.859375 432.796875 404.640625 c 0
 458.03125 425.421875 476.78125 452.140625 488.96875 484.796875 c 1
 518.083007812 467.192382812 547.198242188 449.588867188 576.3125 431.984375 c 1
 553.890625 383.390625 522.5625 345.265625 482.25 317.765625 c 0
 441.859375 290.265625 392.640625 276.515625 334.359375 276.515625 c 0xef80
930.21875 276.515625 m 0
 893.109375 276.515625 859.984375 282.53125 830.84375 294.71875 c 0
 801.703125 306.90625 777.09375 324.328125 756.9375 347.0625 c 0
 736.78125 369.796875 721.234375 397.140625 710.375 429.09375 c 0
 699.515625 461.125 694.046875 497.296875 694.046875 537.609375 c 0
 694.046875 586.203125 701.390625 631.984375 716.15625 674.875 c 0
 730.84375 717.765625 749.75 757.140625 772.796875 792.921875 c 0
 795.84375 828.78125 821.546875 860.65625 850.0625 888.46875 c 0
 878.5 916.28125 906.546875 939.484375 934.046875 958.078125 c 1
 982.041992188 958.078125 1030.03613281 958.078125 1078.03125 958.078125 c 1xf780
 1040.296875 930.578125 1006.390625 904.015625 976.3125 878.390625 c 0
 946.234375 852.765625 919.984375 826.59375 897.5625 799.71875 c 0
 875.140625 772.765625 856.46875 744.328125 841.390625 714.25 c 0
 826.390625 684.171875 814.671875 651.203125 806.390625 615.34375 c 1
 808.629882812 614.71875 810.870117188 614.09375 813.109375 613.46875 c 1
 820.140625 626.90625 828.265625 639.484375 837.5625 651.359375 c 0
 846.859375 663.234375 857.71875 673.625 870.21875 682.53125 c 0
 882.71875 691.515625 896.9375 698.546875 912.953125 703.703125 c 0
 928.96875 708.78125 947.484375 711.359375 968.578125 711.359375 c 0
 996.78125 711.359375 1022.875 706.59375 1046.859375 696.984375 c 0
 1070.84375 687.375 1091.625 673.46875 1109.28125 655.1875 c 0
 1126.859375 636.984375 1140.609375 615.03125 1150.53125 589.40625 c 0
 1160.453125 563.859375 1165.453125 535.34375 1165.453125 504.015625 c 0
 1165.453125 470.109375 1159.828125 439.171875 1148.578125 411.359375 c 0
 1137.40625 383.546875 1121.546875 359.71875 1101.078125 339.875 c 0
 1080.609375 320.03125 1055.84375 304.484375 1026.703125 293.3125 c 0
 997.5625 282.0625 965.453125 276.515625 930.21875 276.515625 c 0
930.21875 364.796875 m 256
 969.28125 364.796875 999.671875 375.1875 1021.390625 395.96875 c 0
 1043.1875 416.828125 1054.046875 447.375 1054.046875 487.6875 c 1
 1054.046875 492.166992188 1054.046875 496.645507812 1054.046875 501.125 c 1
 1054.046875 541.4375 1043.1875 571.984375 1021.390625 592.765625 c 0
 999.671875 613.625 969.28125 624.015625 930.21875 624.015625 c 256
 891.15625 624.015625 860.765625 613.625 839.046875 592.765625 c 0
 817.25 571.984375 806.390625 541.4375 806.390625 501.125 c 1
 806.390625 496.645507812 806.390625 492.166992188 806.390625 487.6875 c 1
 806.390625 447.375 817.25 416.828125 839.046875 395.96875 c 0
 860.765625 375.1875 891.15625 364.796875 930.21875 364.796875 c 256
1544.90625 288 m 1
 1544.90625 331.515625 1544.90625 375.03125 1544.90625 418.546875 c 1
 1441.234375 418.546875 1337.5625 418.546875 1233.890625 418.546875 c 1
 1233.890625 449.588867188 1233.890625 480.629882812 1233.890625 511.671875 c 1
 1324.46386719 660.473632812 1415.03613281 809.276367188 1505.609375 958.078125 c 1
 1552.953125 958.078125 1600.296875 958.078125 1647.640625 958.078125 c 1
 1647.640625 806.723632812 1647.640625 655.370117188 1647.640625 504.015625 c 1
 1678.05761719 504.015625 1708.47363281 504.015625 1738.890625 504.015625 c 1
 1738.890625 475.526367188 1738.890625 447.036132812 1738.890625 418.546875 c 1
 1708.47363281 418.546875 1678.05761719 418.546875 1647.640625 418.546875 c 1
 1647.640625 375.03125 1647.640625 331.515625 1647.640625 288 c 1
 1613.39550781 288 1579.15136719 288 1544.90625 288 c 1
1326.078125 504.015625 m 1
 1399.02050781 504.015625 1471.96386719 504.015625 1544.90625 504.015625 c 1
 1544.90625 622.401367188 1544.90625 740.786132812 1544.90625 859.171875 c 1
 1542.66699219 859.171875 1540.42675781 859.171875 1538.1875 859.171875 c 1
 1467.484375 740.786132812 1396.78125 622.401367188 1326.078125 504.015625 c 1
EndSplineSet
EndChar

StartChar: uniF004
Encoding: 61444 61444 7
Width: 1792
Flags: W
HStem: -142.516 96.0156<1128.27 1400.92> 124.359 95.0781<488.266 724.653> 432.562 95<488.266 724.653> 712.016 95.9375<411.817 637.602> 1309.12 95.9375<437.386 655.798>
VStem: 305.922 107.5<1151.89 1288.18> 379.828 108.438<-142.516 124.359 219.438 432.562> 665.922 107.5<835.065 982.258> 748.422 114.297<241.678 410.243> 889.906 103.672<723.5 1236.16> 1019.83 108.438<-46.5 527.562> 1402.56 103.672<723.5 1236.16>
DStem2: 519.984 1124.75 501.703 1022.09 0.978916 -0.204262<-84.378 149.631> 1018.5 1393.58 998.344 1236.16 0.468722 -0.883346<129.61 385.178> 1203.81 1052.8 1344.91 1127.64 0.468722 0.883346<0 252.858>
LayerCount: 2
UndoRedoHistory
Layer: 1
Undoes
UndoOperation
Index: 0
Type: 12
WasModified: 0
WasOrder2: 0
Layer: 0
HStem: -142.516 96.0156<1128.27 1400.92> 124.359 95.0781<488.266 724.653> 432.562 95<488.266 724.653> 712.016 95.9375<411.817 637.602> 1309.12 95.9375<437.386 655.798>
VStem: 305.922 107.5<1151.89 1288.18> 379.828 108.438<-142.516 124.359 219.437 432.562> 665.922 107.5<835.065 982.258> 748.422 114.297<241.678 410.243> 889.906 103.672<723.5 1236.16> 1019.83 108.438<-46.5 527.562> 1402.56 103.672<723.5 1236.16>
DStem2: 519.984 1124.75 501.703 1022.09 0.978916 -0.204262<-84.378 149.631> 1018.5 1393.58 998.344 1236.16 0.468722 -0.883346<129.61 385.178> 1203.81 1052.8 1344.91 1127.64 0.468722 0.883346<0 252.858>
EndUndoOperation
EndUndoes
Redoes
EndRedoes
EndUndoRedoHistory
Fore
SplineSet
379.828125 -142.515625 m 1xfaf0
 379.828125 -124.07421875 l 4
 379.828125 527.5625 l 1
 475.817382812 527.5625 571.807617188 527.5625 667.796875 527.5625 c 1
 729.90625 527.5625 777.875 509.359375 811.78125 472.875 c 0
 845.765625 436.390625 862.71875 387.40625 862.71875 326 c 256
 862.71875 264.515625 845.765625 215.53125 811.78125 179.046875 c 0
 777.875 142.640625 729.90625 124.359375 667.796875 124.359375 c 1
 607.953125 124.359375 548.109375 124.359375 488.265625 124.359375 c 1
 488.265625 35.400390625 488.265625 -53.5576171875 488.265625 -142.515625 c 1
 452.120117188 -142.515625 415.973632812 -142.515625 379.828125 -142.515625 c 1xfaf0
488.265625 219.4375 m 1
 545.870117188 219.4375 603.473632812 219.4375 661.078125 219.4375 c 1
 688.578125 219.4375 710.0625 226.625 725.375 241 c 0
 740.765625 255.375 748.421875 276.078125 748.421875 302.953125 c 1
 748.421875 318.291015625 748.421875 333.629882812 748.421875 348.96875 c 1
 748.421875 375.921875 740.765625 396.546875 725.375 410.921875 c 0
 710.0625 425.296875 688.578125 432.5625 661.078125 432.5625 c 1
 603.473632812 432.5625 545.870117188 432.5625 488.265625 432.5625 c 1
 488.265625 361.520507812 488.265625 290.478515625 488.265625 219.4375 c 1
1019.828125 -142.515625 m 1
 1019.828125 80.84375 1019.828125 304.203125 1019.828125 527.5625 c 1
 1055.97363281 527.5625 1092.12011719 527.5625 1128.265625 527.5625 c 1
 1128.265625 336.208007812 1128.265625 144.853515625 1128.265625 -46.5 c 1
 1219.15136719 -46.5 1310.03613281 -46.5 1400.921875 -46.5 c 1
 1400.921875 -78.505859375 1400.921875 -110.510742188 1400.921875 -142.515625 c 1
 1273.890625 -142.515625 1146.859375 -142.515625 1019.828125 -142.515625 c 1
530.53125 712.015625 m 0
 474.203125 712.015625 426.390625 722.249023438 387.015625 742.71875 c 0
 347.640625 763.1875 313.890625 790.6875 285.765625 825.296875 c 1
 310.713867188 848.65625 335.661132812 872.015625 360.609375 895.375 c 1
 384.28125 866.546875 410.375 844.75 438.8125 830.0625 c 0
 467.328125 815.375 499.828125 807.953125 536.3125 807.953125 c 0
 579.203125 807.953125 611.46875 817.5625 633.265625 836.78125 c 0
 654.984375 856 665.921875 881.9375 665.921875 914.515625 c 0
 665.921875 940.765625 658.1875 961.546875 642.875 976.9375 c 0
 627.484375 992.328125 600.296875 1003.8125 561.234375 1011.46875 c 1
 541.390625 1015.00976562 521.546875 1018.55175781 501.703125 1022.09375 c 1
 436.46875 1034.203125 387.484375 1055.6875 354.828125 1086.390625 c 0
 322.171875 1117.09375 305.921875 1159.359375 305.921875 1213.109375 c 0
 305.921875 1242.5625 311.46875 1269.28125 322.71875 1293.265625 c 0
 333.890625 1317.25 349.59375 1337.40625 369.75 1353.734375 c 0
 389.90625 1370.0625 414.359375 1382.71875 443.1875 1391.625 c 0
 471.9375 1400.609375 504.28125 1405.0625 540.140625 1405.0625 c 0
 590.6875 1405.0625 634.515625 1396.3125 671.625 1378.734375 c 0
 708.734375 1361.078125 740.453125 1335.6875 766.703125 1302.40625 c 1
 741.416992188 1280.00976562 716.129882812 1257.61425781 690.84375 1235.21875 c 1
 673.578125 1257.5625 652.484375 1275.53125 627.484375 1288.96875 c 0
 602.5625 1302.40625 571.46875 1309.125 534.359375 1309.125 c 0
 496 1309.125 466.234375 1301.390625 445.0625 1286.078125 c 0
 423.96875 1270.6875 413.421875 1248.265625 413.421875 1218.890625 c 0
 413.421875 1190.6875 422.015625 1169.75 439.359375 1156 c 0
 456.625 1142.25 483.5 1131.78125 519.984375 1124.75 c 1
 539.828125 1120.609375 559.671875 1116.46875 579.515625 1112.328125 c 1
 646.703125 1099.515625 695.84375 1077.71875 726.859375 1047.015625 c 0
 757.875 1016.3125 773.421875 974.046875 773.421875 920.296875 c 0xfd70
 773.421875 888.96875 767.953125 860.453125 757.09375 834.828125 c 0
 746.234375 809.28125 730.375 787.328125 709.59375 769.125 c 0
 688.734375 750.84375 663.34375 736.78125 633.265625 726.859375 c 0
 603.1875 716.936523438 568.890625 712.015625 530.53125 712.015625 c 0
1402.5625 1236.15625 m 1
 1400.94824219 1236.15625 1399.33300781 1236.15625 1397.71875 1236.15625 c 1
 1380.11425781 1199.984375 1362.51074219 1163.8125 1344.90625 1127.640625 c 1
 1295.94824219 1038.36914062 1246.98925781 949.098632812 1198.03125 859.828125 c 1
 1149.07324219 949.098632812 1100.11425781 1038.36914062 1051.15625 1127.640625 c 1
 1033.55175781 1163.8125 1015.94824219 1199.984375 998.34375 1236.15625 c 1
 996.754882812 1236.15625 995.166992188 1236.15625 993.578125 1236.15625 c 1
 993.578125 1065.27050781 993.578125 894.384765625 993.578125 723.5 c 1
 959.020507812 723.5 924.463867188 723.5 889.90625 723.5 c 1
 889.90625 946.859375 889.90625 1170.21875 889.90625 1393.578125 c 1
 932.770507812 1393.578125 975.635742188 1393.578125 1018.5 1393.578125 c 1
 1078.34375 1279.984375 1138.1875 1166.390625 1198.03125 1052.796875 c 1
 1199.95800781 1052.796875 1201.88574219 1052.796875 1203.8125 1052.796875 c 1
 1263.65625 1166.390625 1323.5 1279.984375 1383.34375 1393.578125 c 1
 1424.30761719 1393.578125 1465.27050781 1393.578125 1506.234375 1393.578125 c 1
 1506.234375 1170.21875 1506.234375 946.859375 1506.234375 723.5 c 1
 1471.67675781 723.5 1437.12011719 723.5 1402.5625 723.5 c 1
 1402.5625 894.384765625 1402.5625 1065.27050781 1402.5625 1236.15625 c 1
EndSplineSet
EndChar

StartChar: uniF005
Encoding: 61445 61445 8
Width: 1792
Flags: W
HStem: 288 96.0156<814.669 1050.52 1429.91 1750.53> 554.875 95.0781<149.906 386.215> 579.875 95.9375<1429.91 1720.84> 862.062 96.0156<149.906 386.215 813.763 1048.56 1429.91 1750.53>
VStem: 41.4688 108.438<288 554.875 649.953 863.078> 410.062 114.219<672.194 840.759> 651.625 115.156<435.807 813.111> 1321.47 108.438<384.016 579.875 675.812 862.062>
LayerCount: 2
UndoRedoHistory
Layer: 1
Undoes
UndoOperation
Index: 0
Type: 12
WasModified: 0
WasOrder2: 0
Layer: 0
HStem: 288 96.0156<814.669 1050.52 1429.91 1750.53> 554.875 95.0781<149.906 386.215> 579.875 95.9375<1429.91 1720.84> 862.062 96.0156<149.906 386.215 813.763 1048.56 1429.91 1750.53>
VStem: 41.4688 108.438<288 554.875 649.953 863.078> 410.062 114.219<672.194 840.759> 651.625 115.156<435.807 813.111> 1321.47 108.438<384.016 579.875 675.812 862.062>
EndUndoOperation
EndUndoes
Redoes
EndRedoes
EndUndoRedoHistory
Fore
SplineSet
41.46875 288 m 1xdf
 41.46875 511.359375 41.46875 734.71875 41.46875 958.078125 c 1
 137.458007812 958.078125 233.448242188 958.078125 329.4375 958.078125 c 1
 391.46875 958.078125 439.4375 939.875 473.34375 903.390625 c 0
 507.40625 866.90625 524.28125 817.921875 524.28125 756.515625 c 256
 524.28125 695.03125 507.40625 646.046875 473.34375 609.5625 c 0
 439.4375 573.15625 391.46875 554.875 329.4375 554.875 c 1
 269.59375 554.875 209.75 554.875 149.90625 554.875 c 1
 149.90625 465.916992188 149.90625 376.958007812 149.90625 288 c 1
 113.760742188 288 77.6142578125 288 41.46875 288 c 1xdf
149.90625 649.953125 m 1
 207.510742188 649.953125 265.114257812 649.953125 322.71875 649.953125 c 1
 350.21875 649.953125 371.625 657.140625 386.9375 671.515625 c 0
 402.40625 685.890625 410.0625 706.59375 410.0625 733.46875 c 1
 410.0625 748.807617188 410.0625 764.145507812 410.0625 779.484375 c 1
 410.0625 806.4375 402.40625 827.0625 386.9375 841.4375 c 0
 371.625 855.8125 350.21875 863.078125 322.71875 863.078125 c 1
 265.114257812 863.078125 207.510742188 863.078125 149.90625 863.078125 c 1
 149.90625 792.036132812 149.90625 720.995117188 149.90625 649.953125 c 1
932.875 276.515625 m 0
 845.21875 276.515625 776.46875 306.046875 726.46875 365.265625 c 0
 676.625 424.484375 651.625 510.421875 651.625 623.078125 c 0
 651.625 679.328125 658.03125 728.9375 670.84375 771.828125 c 0
 683.65625 814.71875 702.25 850.890625 726.46875 880.34375 c 0
 750.84375 909.796875 780.375 931.984375 815.375 947.0625 c 0
 850.21875 962.0625 889.4375 969.5625 932.875 969.5625 c 0
 991.15625 969.5625 1039.90625 956.828125 1079.28125 931.203125 c 0
 1118.65625 905.578125 1149.59375 867.84375 1171.9375 817.921875 c 1
 1141.57324219 801.28125 1111.20800781 784.640625 1080.84375 768 c 1
 1069.28125 800.03125 1051.46875 825.421875 1027.5625 844.328125 c 0
 1003.5 863.234375 971.9375 872.609375 932.875 872.609375 c 0
 881.15625 872.609375 840.375 855.03125 811 819.875 c 0
 781.625 784.640625 766.78125 735.96875 766.78125 673.9375 c 1
 766.78125 640.004882812 766.78125 606.073242188 766.78125 572.140625 c 1
 766.78125 510.109375 781.625 461.4375 811 426.203125 c 0
 840.375 391.046875 881.15625 373.46875 932.875 373.46875 c 0
 973.1875 373.46875 1006 383.859375 1031.3125 404.640625 c 0
 1056.625 425.421875 1075.375 452.140625 1087.5625 484.796875 c 1
 1116.67675781 467.192382812 1145.79199219 449.588867188 1174.90625 431.984375 c 1
 1152.40625 383.390625 1121.15625 345.265625 1080.84375 317.765625 c 0
 1040.375 290.265625 991.15625 276.515625 932.875 276.515625 c 0
1321.46875 288 m 1
 1321.46875 511.359375 1321.46875 734.71875 1321.46875 958.078125 c 1
 1464.48925781 958.078125 1607.51074219 958.078125 1750.53125 958.078125 c 1
 1750.53125 926.073242188 1750.53125 894.067382812 1750.53125 862.0625 c 1
 1643.65625 862.0625 1536.78125 862.0625 1429.90625 862.0625 c 1
 1429.90625 799.979492188 1429.90625 737.895507812 1429.90625 675.8125 c 1
 1526.88574219 675.8125 1623.86425781 675.8125 1720.84375 675.8125 c 1
 1720.84375 643.833007812 1720.84375 611.854492188 1720.84375 579.875 c 1
 1623.86425781 579.875 1526.88574219 579.875 1429.90625 579.875 c 1xbf
 1429.90625 514.588867188 1429.90625 449.301757812 1429.90625 384.015625 c 1
 1536.78125 384.015625 1643.65625 384.015625 1750.53125 384.015625 c 1
 1750.53125 352.010742188 1750.53125 320.004882812 1750.53125 288 c 1
 1607.51074219 288 1464.48925781 288 1321.46875 288 c 1
EndSplineSet
EndChar

StartChar: uniF006
Encoding: 61446 61446 9
Width: 1792
Flags: W
HStem: 430.958 116.406<389.164 636.43> 916.993 124.805<499.082 527.573>
VStem: 145.609 137.891<204.2 342.091> 745.609 141.602<204.2 345.802> 1220.41 135.547<204.2 597.633>
DStem2: 145.609 204.2 283.5 204.2 0.303392 0.952866<41.8349 280.126 400.882 789.887> 601.664 1041.8 516.312 916.993 0.306233 -0.951957<92.6712 481.326> 1087.21 1041.8 932.328 1041.8 0.479431 -0.877579<0 425.309> 1294.83 668.556 1355.96 536.622 0.477305 0.878738<0 424.748>
LayerCount: 2
UndoRedoHistory
Layer: 1
Undoes
UndoOperation
Index: 0
Type: 12
WasModified: 0
WasOrder2: 0
Layer: 0
HStem: 204.2 2100G<145.609 295.707 733.012 887.211 1220.41 1355.96> 430.958 116.406<389.164 636.43> 916.993 124.805<510.453 516.312>
VStem: 1220.41 135.547<204.2 534.18>
DStem2: 145.609 204.2 283.5 204.2 0.322676 0.946509<44.494 282.756 403.397 792.392 810.342 1234.97> 1087.21 1041.8 932.328 1041.8 0.493578 -0.869701<0 425.253>
EndUndoOperation
EndUndoes
Redoes
EndRedoes
EndUndoRedoHistory
Fore
SplineSet
745.609375 204.200195312 m 1
 720.4140625 279.786132812 695.21875 355.372070312 670.0234375 430.958007812 c 1
 565.596679688 430.958007812 461.168945312 430.958007812 356.7421875 430.958007812 c 1
 332.328125 355.372070312 307.9140625 279.786132812 283.5 204.200195312 c 1
 237.536132812 204.200195312 191.573242188 204.200195312 145.609375 204.200195312 c 1
 240.791992188 483.399414062 335.973632812 762.598632812 431.15625 1041.79785156 c 1
 487.9921875 1041.79785156 544.828125 1041.79785156 601.6640625 1041.79785156 c 1
 696.846679688 762.598632812 792.028320312 483.399414062 887.2109375 204.200195312 c 1
 840.010742188 204.200195312 792.809570312 204.200195312 745.609375 204.200195312 c 1
516.3125 916.993164062 m 1
 514.359375 916.993164062 512.40625 916.993164062 510.453125 916.993164062 c 1
 470.0234375 793.783203125 429.59375 670.573242188 389.1640625 547.364257812 c 1
 471.5859375 547.364257812 554.0078125 547.364257812 636.4296875 547.364257812 c 1
 596.390625 670.573242188 556.3515625 793.783203125 516.3125 916.993164062 c 1
1220.4140625 204.200195312 m 1
 1220.4140625 314.193359375 1220.4140625 424.186523438 1220.4140625 534.180664062 c 1
 1124.38574219 703.385742188 1028.35644531 872.591796875 932.328125 1041.79785156 c 1
 983.956054688 1041.79785156 1035.58300781 1041.79785156 1087.2109375 1041.79785156 c 1
 1155.1796875 917.383789062 1223.1484375 792.969726562 1291.1171875 668.555664062 c 1
 1292.35449219 668.555664062 1293.59082031 668.555664062 1294.828125 668.555664062 c 1
 1362.40625 792.969726562 1429.984375 917.383789062 1497.5625 1041.79785156 c 1
 1547.171875 1041.79785156 1596.78125 1041.79785156 1646.390625 1041.79785156 c 1
 1549.58105469 873.405273438 1452.77050781 705.013671875 1355.9609375 536.622070312 c 1
 1355.9609375 425.814453125 1355.9609375 315.006835938 1355.9609375 204.200195312 c 1
 1310.77832031 204.200195312 1265.59667969 204.200195312 1220.4140625 204.200195312 c 1
EndSplineSet
EndChar

StartChar: uniF007
Encoding: 61447 61447 10
Width: 1792
Flags: W
HStem: -148.33 91.1719<486.344 688.342 1095.48 1270.78> 165.576 92.1094<518.508 677.882> 453.545 91.1719<497.902 685.553 1095.48 1270.78> 717.686 87.3438<530.171 727.317> 975.889 87.3438<1092.63 1259.92> 1035.42 83.5156<544.742 712.82> 1323.39 87.3438<537.628 719.903 1093.28 1280.94>
VStem: 388.742 113.281<833.719 1006.73> 408.898 105.625<1143.68 1298.65> 708.586 114.219<284.923 428.321> 722.023 112.344<-26.9403 137.853> 743.039 105.547<1143.68 1298.65> 755.461 113.281<833.719 1006.73> 940.305 115.156<-16.3001 412.598 1096.11 1289.56> 1310.85 115.156<-17.1032 413.491 1095.46 1290.29>
LayerCount: 2
UndoRedoHistory
Layer: 1
Undoes
UndoOperation
Index: 0
Type: 12
WasModified: 0
WasOrder2: 0
Layer: 0
HStem: -148.33 91.1719<486.344 688.342 1095.48 1270.78> 165.576 92.1094<518.508 677.882> 453.545 91.1719<497.902 685.553 1095.48 1270.78> 717.686 87.3438<530.171 727.317> 975.889 87.3438<1092.63 1259.92> 1035.42 83.5156<544.742 712.82> 1323.39 87.3438<537.628 719.903 1093.28 1280.94>
VStem: 388.742 113.281<833.719 1006.73> 408.898 105.625<1143.68 1298.65> 708.586 114.219<284.923 428.321> 722.023 112.344<-26.9403 137.853> 743.039 105.547<1143.68 1298.65> 755.461 113.281<833.719 1006.73> 940.305 115.156<-16.3001 412.598 1096.11 1289.56> 1310.85 115.156<-17.1032 413.491 1095.46 1290.29>
EndUndoOperation
EndUndoes
Redoes
EndRedoes
EndUndoRedoHistory
Fore
SplineSet
586.6328125 257.685546875 m 1xf226
 628.2734375 257.685546875 658.9765625 266.513671875 678.8203125 284.091796875 c 0
 698.6640625 301.748046875 708.5859375 324.248046875 708.5859375 351.826171875 c 1
 708.5859375 354.065429688 708.5859375 356.305664062 708.5859375 358.544921875 c 1
 708.5859375 389.248046875 698.9765625 412.763671875 679.7578125 429.091796875 c 0
 660.6171875 445.419921875 634.6796875 453.544921875 602.0234375 453.544921875 c 0
 569.9921875 453.544921875 542.8046875 446.357421875 520.4609375 431.982421875 c 0
 498.0390625 417.529296875 479.1328125 397.529296875 463.8203125 371.982421875 c 1
 439.809570312 392.763671875 415.799804688 413.544921875 391.7890625 434.326171875 c 1
 402.0234375 449.091796875 413.5859375 463.154296875 426.3203125 476.591796875 c 0
 439.1328125 490.029296875 454.2109375 501.748046875 471.4765625 511.669921875 c 0
 488.7421875 521.591796875 508.2734375 529.560546875 529.9921875 535.654296875 c 0
 551.7890625 541.748046875 576.7109375 544.716796875 604.9140625 544.716796875 c 0
 636.2421875 544.716796875 665.3828125 540.888671875 692.2578125 533.232421875 c 0
 719.1328125 525.576171875 742.1796875 514.169921875 761.3984375 499.169921875 c 0
 780.6171875 484.091796875 795.6171875 465.888671875 806.4765625 444.404296875 c 0
 817.4140625 422.998046875 822.8046875 398.857421875 822.8046875 371.982421875 c 0xf246
 822.8046875 350.810546875 819.4453125 331.669921875 812.7265625 314.326171875 c 0
 806.0078125 297.060546875 796.7109375 281.904296875 784.9140625 268.779296875 c 0
 773.0390625 255.654296875 759.2890625 244.951171875 743.6640625 236.591796875 c 0
 727.9609375 228.310546875 711.4765625 222.216796875 694.2109375 218.388671875 c 1
 694.2109375 216.774414062 694.2109375 215.159179688 694.2109375 213.544921875 c 1
 713.3515625 209.716796875 731.4765625 203.466796875 748.4296875 194.873046875 c 0
 765.3828125 186.201171875 780.3046875 175.029296875 793.0390625 161.201171875 c 0
 805.8515625 147.451171875 815.9296875 131.123046875 823.2734375 112.294921875 c 0
 830.6953125 93.388671875 834.3671875 71.826171875 834.3671875 47.451171875 c 0
 834.3671875 17.998046875 828.5859375 -8.720703125 817.1015625 -32.705078125 c 0
 805.5390625 -56.689453125 789.3671875 -77.314453125 768.5859375 -94.580078125 c 0
 747.8046875 -111.923828125 722.6484375 -125.126953125 693.1953125 -134.423828125 c 0
 663.8203125 -143.720703125 631.1640625 -148.330078125 595.3046875 -148.330078125 c 0
 563.9765625 -148.330078125 536.3984375 -144.970703125 512.7265625 -138.251953125 c 0
 489.0546875 -131.533203125 468.1171875 -122.626953125 449.8359375 -111.376953125 c 0
 431.6328125 -100.205078125 415.6171875 -87.392578125 401.8671875 -73.017578125 c 0
 388.1171875 -58.642578125 376.0859375 -43.720703125 365.8515625 -28.330078125 c 1
 392.4140625 -7.548828125 418.9765625 13.232421875 445.5390625 34.013671875 c 1
 453.8984375 20.576171875 462.6484375 8.310546875 471.9453125 -2.939453125 c 0
 481.2421875 -14.111328125 491.7890625 -23.720703125 503.6640625 -31.689453125 c 0
 515.4609375 -39.736328125 528.8984375 -45.986328125 543.9765625 -50.439453125 c 0
 558.9765625 -54.892578125 576.0859375 -57.158203125 595.3046875 -57.158203125 c 0
 636.2421875 -57.158203125 667.6484375 -47.392578125 689.3671875 -27.861328125 c 0
 711.1640625 -8.330078125 722.0234375 18.701171875 722.0234375 53.232421875 c 1
 722.0234375 55.4716796875 722.0234375 57.7119140625 722.0234375 59.951171875 c 1
 722.0234375 94.482421875 710.5390625 120.732421875 687.4921875 138.701171875 c 0
 664.4453125 156.591796875 631.7890625 165.576171875 589.5234375 165.576171875 c 1
 565.8515625 165.576171875 542.1796875 165.576171875 518.5078125 165.576171875 c 1
 518.5078125 196.279296875 518.5078125 226.982421875 518.5078125 257.685546875 c 1
 541.215820312 257.685546875 563.924804688 257.685546875 586.6328125 257.685546875 c 1xf226
1183.1171875 -148.330078125 m 0
 1141.5546875 -148.330078125 1105.3828125 -140.517578125 1074.6796875 -124.814453125 c 0
 1043.9765625 -109.189453125 1018.6640625 -86.611328125 998.8203125 -57.158203125 c 0
 978.9765625 -27.705078125 964.2890625 8.466796875 954.6796875 51.279296875 c 0
 945.0703125 94.169921875 940.3046875 143.154296875 940.3046875 198.232421875 c 0
 940.3046875 252.607421875 945.0703125 301.357421875 954.6796875 344.560546875 c 0
 964.2890625 387.763671875 978.9765625 424.091796875 998.8203125 453.544921875 c 0
 1018.6640625 482.998046875 1043.9765625 505.576171875 1074.6796875 521.201171875 c 0
 1105.3828125 536.904296875 1141.5546875 544.716796875 1183.1171875 544.716796875 c 0
 1266.3203125 544.716796875 1327.6484375 514.326171875 1367.0234375 453.544921875 c 0
 1406.3203125 392.763671875 1426.0078125 307.607421875 1426.0078125 198.232421875 c 256
 1426.0078125 88.779296875 1406.3203125 3.623046875 1367.0234375 -57.158203125 c 0
 1327.6484375 -117.939453125 1266.3203125 -148.330078125 1183.1171875 -148.330078125 c 0
1183.1171875 -56.220703125 m 256
 1206.1640625 -56.220703125 1225.8515625 -51.533203125 1242.1796875 -42.314453125 c 0
 1258.5078125 -33.017578125 1271.7890625 -19.736328125 1282.0234375 -2.470703125 c 0
 1292.2578125 14.873046875 1299.6015625 35.498046875 1304.1328125 59.482421875 c 0
 1308.5859375 83.466796875 1310.8515625 110.185546875 1310.8515625 139.638671875 c 1
 1310.8515625 178.674804688 1310.8515625 217.711914062 1310.8515625 256.748046875 c 1
 1310.8515625 286.201171875 1308.5859375 312.919921875 1304.1328125 336.904296875 c 0
 1299.6015625 360.888671875 1292.2578125 381.591796875 1282.0234375 398.857421875 c 0
 1271.7890625 416.123046875 1258.5078125 429.404296875 1242.1796875 438.701171875 c 0
 1225.8515625 447.919921875 1206.1640625 452.607421875 1183.1171875 452.607421875 c 256
 1160.0703125 452.607421875 1140.4609375 447.919921875 1124.1328125 438.701171875 c 0
 1107.8046875 429.404296875 1094.5234375 416.123046875 1084.2890625 398.857421875 c 0
 1074.0546875 381.591796875 1066.6328125 360.888671875 1062.1796875 336.904296875 c 0
 1057.7265625 312.919921875 1055.4609375 286.201171875 1055.4609375 256.748046875 c 1
 1055.4609375 217.711914062 1055.4609375 178.674804688 1055.4609375 139.638671875 c 1
 1055.4609375 110.185546875 1057.7265625 83.466796875 1062.1796875 59.482421875 c 0
 1066.6328125 35.498046875 1074.0546875 14.873046875 1084.2890625 -2.470703125 c 0
 1094.5234375 -19.736328125 1107.8046875 -33.017578125 1124.1328125 -42.314453125 c 0
 1140.4609375 -51.533203125 1160.0703125 -56.220703125 1183.1171875 -56.220703125 c 256
628.7421875 717.685546875 m 256
 589.7578125 717.685546875 555.3046875 722.607421875 525.5390625 732.529296875 c 0
 495.8515625 742.451171875 470.8515625 756.044921875 450.6953125 773.310546875 c 0
 430.5390625 790.576171875 415.1484375 811.123046875 404.6015625 834.794921875 c 0
 394.0546875 858.466796875 388.7421875 884.013671875 388.7421875 911.591796875 c 0xf30e
 388.7421875 956.357421875 401.0859375 992.373046875 425.6953125 1019.56054688 c 0
 450.3828125 1046.74804688 482.8828125 1065.81054688 523.1953125 1076.66992188 c 1
 523.1953125 1079.24804688 523.1953125 1081.82617188 523.1953125 1084.40429688 c 1
 488.5859375 1096.51367188 460.9296875 1115.73242188 440.1484375 1141.98242188 c 0
 419.3671875 1168.23242188 408.8984375 1200.49804688 408.8984375 1238.93554688 c 0
 408.8984375 1264.56054688 413.8984375 1287.91992188 423.8203125 1309.01367188 c 0
 433.7421875 1330.10742188 447.9609375 1348.23242188 466.5546875 1363.23242188 c 0
 485.0703125 1378.31054688 508.1171875 1389.95117188 535.6171875 1398.31054688 c 0
 563.1953125 1406.59179688 594.2109375 1410.73242188 628.7421875 1410.73242188 c 256
 663.3515625 1410.73242188 694.3671875 1406.59179688 721.8671875 1398.31054688 c 0
 749.4453125 1389.95117188 772.4921875 1378.31054688 791.0078125 1363.23242188 c 0
 809.6015625 1348.23242188 823.8203125 1330.10742188 833.7421875 1309.01367188 c 0
 843.6640625 1287.91992188 848.5859375 1264.56054688 848.5859375 1238.93554688 c 0xf296
 848.5859375 1200.49804688 838.1953125 1168.23242188 817.4140625 1141.98242188 c 0
 796.6328125 1115.73242188 768.8984375 1096.51367188 734.3671875 1084.40429688 c 1
 734.3671875 1081.82617188 734.3671875 1079.24804688 734.3671875 1076.66992188 c 1
 774.6796875 1065.81054688 807.1796875 1046.74804688 831.7890625 1019.56054688 c 0
 856.4765625 992.373046875 868.7421875 956.357421875 868.7421875 911.591796875 c 0xf20e
 868.7421875 884.013671875 863.5078125 858.466796875 852.9609375 834.794921875 c 0
 842.3359375 811.123046875 827.0234375 790.576171875 806.8671875 773.310546875 c 0
 786.7109375 756.044921875 761.7109375 742.451171875 731.9453125 732.529296875 c 0
 702.1796875 722.607421875 667.8046875 717.685546875 628.7421875 717.685546875 c 256
628.7421875 805.029296875 m 256
 669.0546875 805.029296875 700.3046875 814.326171875 722.3359375 832.841796875 c 0
 744.4453125 851.435546875 755.4609375 877.294921875 755.4609375 910.576171875 c 1
 755.4609375 916.982421875 755.4609375 923.388671875 755.4609375 929.794921875 c 1
 755.4609375 963.076171875 744.4453125 989.013671875 722.3359375 1007.60742188 c 0
 700.3046875 1026.12304688 669.0546875 1035.41992188 628.7421875 1035.41992188 c 256xf70e
 588.4296875 1035.41992188 557.2578125 1026.12304688 535.1484375 1007.60742188 c 0
 513.1171875 989.013671875 502.0234375 963.076171875 502.0234375 929.794921875 c 1
 502.0234375 923.388671875 502.0234375 916.982421875 502.0234375 910.576171875 c 1
 502.0234375 877.294921875 513.1171875 851.435546875 535.1484375 832.841796875 c 0
 557.2578125 814.326171875 588.4296875 805.029296875 628.7421875 805.029296875 c 256
628.7421875 1118.93554688 m 256
 665.9296875 1118.93554688 694.2109375 1126.90429688 713.7421875 1142.91992188 c 0
 733.2734375 1158.93554688 743.0390625 1182.29492188 743.0390625 1212.99804688 c 1
 743.0390625 1218.44042969 743.0390625 1223.88378906 743.0390625 1229.32617188 c 1
 743.0390625 1260.02929688 733.2734375 1283.38867188 713.7421875 1299.40429688 c 0
 694.2109375 1315.41992188 665.9296875 1323.38867188 628.7421875 1323.38867188 c 256
 591.6328125 1323.38867188 563.3515625 1315.41992188 543.8203125 1299.40429688 c 0
 524.2890625 1283.38867188 514.5234375 1260.02929688 514.5234375 1229.32617188 c 1
 514.5234375 1223.88378906 514.5234375 1218.44042969 514.5234375 1212.99804688 c 1xf696
 514.5234375 1182.29492188 524.2890625 1158.93554688 543.8203125 1142.91992188 c 0
 563.3515625 1126.90429688 591.6328125 1118.93554688 628.7421875 1118.93554688 c 256
1423.0390625 1149.63867188 m 0
 1423.0390625 1101.04492188 1415.6171875 1055.26367188 1400.9296875 1012.37304688 c 0
 1386.2421875 969.482421875 1367.3359375 930.107421875 1344.2890625 894.326171875 c 0
 1321.2421875 858.466796875 1295.4609375 826.435546875 1267.0234375 798.310546875 c 0
 1238.5078125 770.107421875 1210.5390625 747.060546875 1183.0390625 729.169921875 c 1
 1135.01855469 729.169921875 1086.99707031 729.169921875 1038.9765625 729.169921875 c 1
 1076.7890625 756.669921875 1110.6953125 783.232421875 1140.7734375 808.857421875 c 0
 1170.8515625 834.482421875 1197.1015625 860.654296875 1219.5234375 887.607421875 c 0
 1241.8671875 914.482421875 1260.6171875 942.919921875 1275.6171875 972.998046875 c 0
 1290.6953125 1003.07617188 1302.3359375 1036.04492188 1310.6953125 1071.90429688 c 1
 1308.45605469 1072.52929688 1306.21582031 1073.15429688 1303.9765625 1073.77929688 c 1
 1296.9453125 1060.34179688 1288.7421875 1047.76367188 1279.5234375 1035.88867188 c 0
 1270.2265625 1024.01367188 1259.3671875 1013.62304688 1246.8671875 1004.71679688 c 0
 1234.3671875 995.732421875 1220.1484375 988.701171875 1204.1328125 983.544921875 c 0
 1188.1171875 978.466796875 1169.6015625 975.888671875 1148.4296875 975.888671875 c 0xfa06
 1120.3046875 975.888671875 1094.2109375 980.654296875 1070.2265625 990.263671875 c 0
 1046.2421875 999.873046875 1025.3828125 1013.77929688 1007.8046875 1032.06054688 c 0
 990.2265625 1050.26367188 976.4765625 1072.06054688 966.5546875 1097.29492188 c 0
 956.6328125 1122.60742188 951.6328125 1151.27929688 951.6328125 1183.23242188 c 0
 951.6328125 1216.51367188 957.2578125 1247.21679688 968.4296875 1275.41992188 c 0
 979.6796875 1303.54492188 995.4609375 1327.60742188 1016.0078125 1347.37304688 c 0
 1036.4765625 1367.21679688 1061.0859375 1382.76367188 1089.9140625 1393.93554688 c 0
 1118.6640625 1405.18554688 1151.0078125 1410.73242188 1186.8671875 1410.73242188 c 0
 1223.9765625 1410.73242188 1257.1015625 1404.71679688 1286.2421875 1392.52929688 c 0
 1315.3046875 1380.34179688 1339.9921875 1362.91992188 1360.1484375 1340.18554688 c 0
 1380.3046875 1317.45117188 1395.8515625 1290.10742188 1406.7109375 1258.15429688 c 0
 1417.5703125 1226.12304688 1423.0390625 1189.95117188 1423.0390625 1149.63867188 c 0
1186.8671875 1063.23242188 m 256
 1225.9296875 1063.23242188 1256.3203125 1073.62304688 1278.0390625 1094.48242188 c 0
 1299.8359375 1115.26367188 1310.6953125 1145.81054688 1310.6953125 1186.12304688 c 1
 1310.6953125 1190.60253906 1310.6953125 1195.08105469 1310.6953125 1199.56054688 c 1
 1310.6953125 1239.87304688 1299.8359375 1270.41992188 1278.0390625 1291.27929688 c 0
 1256.3203125 1312.06054688 1225.9296875 1322.45117188 1186.8671875 1322.45117188 c 256
 1147.8046875 1322.45117188 1117.4140625 1312.06054688 1095.6171875 1291.27929688 c 0
 1073.8984375 1270.41992188 1063.0390625 1239.87304688 1063.0390625 1199.56054688 c 1
 1063.0390625 1195.08105469 1063.0390625 1190.60253906 1063.0390625 1186.12304688 c 1
 1063.0390625 1145.81054688 1073.8984375 1115.26367188 1095.6171875 1094.48242188 c 0
 1117.4140625 1073.62304688 1147.8046875 1063.23242188 1186.8671875 1063.23242188 c 256
EndSplineSet
EndChar

StartChar: uniF008
Encoding: 61448 61448 11
Width: 1792
Flags: W
HStem: 288 88.2812<711 802.25 910.688 1002.88> 469.406 93.125<1273.34 1471> 862.062 96.0156<120.375 320.062 428.5 628.188 711 802.25 910.688 1002.88 1359.62 1385.56>
VStem: 320.062 108.438<288 862.062> 711 291.875<288 376.281 869.797 958.078> 1078.34 110.469<288 398.469> 1558.34 113.281<288 401.281>
DStem2: 1078.34 288 1188.81 288 0.303155 0.952941<33.4892 224.122 320.727 631.883> 1443.19 958.078 1375.06 858.234 0.305997 -0.952033<74.2085 385.084>
LayerCount: 2
UndoRedoHistory
Layer: 1
Undoes
UndoOperation
Index: 0
Type: 12
WasModified: 0
WasOrder2: 0
Layer: 0
HStem: 288 88.2812<711 802.25 910.688 1002.88> 469.406 93.125<1273.34 1471> 862.062 96.0156<120.375 320.062 428.5 628.188 711 802.25 910.688 1002.88 1359.62 1385.56>
VStem: 320.062 108.438<288 862.062> 711 291.875<288 376.281 869.797 958.078> 1078.34 110.469<288 398.469> 1558.34 113.281<288 401.281>
DStem2: 1078.34 288 1188.81 288 0.303155 0.952941<33.4892 224.122 320.727 631.883> 1443.19 958.078 1375.06 858.234 0.305997 -0.952033<74.2085 385.084>
EndUndoOperation
EndUndoes
Redoes
EndRedoes
EndUndoRedoHistory
Fore
SplineSet
428.5 862.0625 m 1
 428.5 670.708007812 428.5 479.354492188 428.5 288 c 1
 392.354492188 288 356.208007812 288 320.0625 288 c 1
 320.0625 479.354492188 320.0625 670.708007812 320.0625 862.0625 c 1
 253.5 862.0625 186.9375 862.0625 120.375 862.0625 c 1
 120.375 894.067382812 120.375 926.073242188 120.375 958.078125 c 1
 289.645507812 958.078125 458.916992188 958.078125 628.1875 958.078125 c 1
 628.1875 926.073242188 628.1875 894.067382812 628.1875 862.0625 c 1
 561.625 862.0625 495.0625 862.0625 428.5 862.0625 c 1
711 288 m 1
 711 317.426757812 711 346.854492188 711 376.28125 c 1
 741.416992188 376.28125 771.833007812 376.28125 802.25 376.28125 c 1
 802.25 540.786132812 802.25 705.291992188 802.25 869.796875 c 1
 771.833007812 869.796875 741.416992188 869.796875 711 869.796875 c 1
 711 899.223632812 711 928.651367188 711 958.078125 c 1
 808.291992188 958.078125 905.583007812 958.078125 1002.875 958.078125 c 1
 1002.875 928.651367188 1002.875 899.223632812 1002.875 869.796875 c 1
 972.145507812 869.796875 941.416992188 869.796875 910.6875 869.796875 c 1
 910.6875 705.291992188 910.6875 540.786132812 910.6875 376.28125 c 1
 941.416992188 376.28125 972.145507812 376.28125 1002.875 376.28125 c 1
 1002.875 346.854492188 1002.875 317.426757812 1002.875 288 c 1
 905.583007812 288 808.291992188 288 711 288 c 1
1558.34375 288 m 1
 1538.1875 348.46875 1518.03125 408.9375 1497.875 469.40625 c 1
 1414.38574219 469.40625 1330.89550781 469.40625 1247.40625 469.40625 c 1
 1227.875 408.9375 1208.34375 348.46875 1188.8125 288 c 1
 1151.98925781 288 1115.16699219 288 1078.34375 288 c 1
 1154.54199219 511.359375 1230.73925781 734.71875 1306.9375 958.078125 c 1
 1352.35449219 958.078125 1397.77050781 958.078125 1443.1875 958.078125 c 1
 1519.33300781 734.71875 1595.47949219 511.359375 1671.625 288 c 1
 1633.86425781 288 1596.10449219 288 1558.34375 288 c 1
1375.0625 858.234375 m 1
 1373.44824219 858.234375 1371.83300781 858.234375 1370.21875 858.234375 c 1
 1337.92675781 759.666992188 1305.63574219 661.098632812 1273.34375 562.53125 c 1
 1339.22949219 562.53125 1405.11425781 562.53125 1471 562.53125 c 1
 1439.02050781 661.098632812 1407.04199219 759.666992188 1375.0625 858.234375 c 1
EndSplineSet
EndChar

StartChar: uniF009
Encoding: 61449 61449 12
Width: 1792
Flags: W
HStem: 276.516 95.9375<134.083 359.867> 469.406 93.125<745.609 943.344 1385.61 1583.34> 858.234 99.8438<830.443 859.33 1470.44 1499.33> 873.625 95.9375<159.651 378.063>
VStem: 28.1875 107.5<716.387 852.68> 388.188 107.5<399.565 546.758> 550.688 110.391<288 398.391> 1030.69 113.281<288 401.281> 1190.69 110.391<288 398.391> 1670.69 113.281<288 401.281>
DStem2: 242.25 689.25 223.969 586.594 0.978916 -0.204262<-84.378 149.631> 550.688 288 661.078 288 0.322775 0.946476<35.6313 226.241 322.753 322.753> 915.531 958.078 847.328 858.234 0.306115 -0.951995<74.1727 385.072 481.954 673.162> 1190.69 288 1301.08 288 0.322775 0.946476<35.6313 226.241 322.753 322.753> 1555.53 958.078 1487.33 858.234 0.306115 -0.951995<74.1727 385.072 481.954 673.162>
LayerCount: 2
UndoRedoHistory
Layer: 1
Undoes
UndoOperation
Index: 0
Type: 12
WasModified: 0
WasOrder2: 0
Layer: 0
HStem: 276.516 95.9375<134.083 359.867> 469.406 93.125<745.609 943.344 1385.61 1583.34> 858.234 99.8438<830.443 859.33 1470.44 1499.33> 873.625 95.9375<159.651 378.063>
VStem: 28.1875 107.5<716.387 852.68> 388.188 107.5<399.565 546.758> 550.688 110.391<288 398.391> 1030.69 113.281<288 401.281> 1190.69 110.391<288 398.391> 1670.69 113.281<288 401.281>
DStem2: 242.25 689.25 223.969 586.594 0.978916 -0.204262<-84.378 149.631> 550.688 288 661.078 288 0.322775 0.946476<35.6313 226.241 322.753 322.753> 915.531 958.078 847.328 858.234 0.306115 -0.951995<74.1727 385.072 481.954 673.162> 1190.69 288 1301.08 288 0.322775 0.946476<35.6313 226.241 322.753 322.753> 1555.53 958.078 1487.33 858.234 0.306115 -0.951995<74.1727 385.072 481.954 673.162>
EndUndoOperation
EndUndoes
Redoes
EndRedoes
EndUndoRedoHistory
Fore
SplineSet
252.796875 276.515625 m 0xdfc0
 196.46875 276.515625 148.65625 286.75 109.28125 307.21875 c 0
 69.90625 327.6875 36.15625 355.1875 8.03125 389.796875 c 1
 32.9794921875 413.15625 57.9267578125 436.515625 82.875 459.875 c 1
 106.546875 431.046875 132.640625 409.25 161.078125 394.5625 c 0
 189.59375 379.875 222.09375 372.453125 258.578125 372.453125 c 0
 301.46875 372.453125 333.734375 382.0625 355.53125 401.28125 c 0
 377.25 420.5 388.1875 446.4375 388.1875 479.015625 c 0
 388.1875 505.265625 380.453125 526.046875 365.140625 541.4375 c 0
 349.75 556.828125 322.5625 568.3125 283.5 575.96875 c 1
 263.65625 579.510742188 243.8125 583.051757812 223.96875 586.59375 c 1
 158.734375 598.703125 109.75 620.1875 77.09375 650.890625 c 0
 44.4375 681.59375 28.1875 723.859375 28.1875 777.609375 c 0
 28.1875 807.0625 33.734375 833.78125 44.984375 857.765625 c 0
 56.15625 881.75 71.859375 901.90625 92.015625 918.234375 c 0
 112.171875 934.5625 136.625 947.21875 165.453125 956.125 c 0
 194.203125 965.109375 226.546875 969.5625 262.40625 969.5625 c 0
 312.953125 969.5625 356.78125 960.8125 393.890625 943.234375 c 0
 431 925.578125 462.71875 900.1875 488.96875 866.90625 c 1
 463.682617188 844.510742188 438.395507812 822.114257812 413.109375 799.71875 c 1
 395.84375 822.0625 374.75 840.03125 349.75 853.46875 c 0
 324.828125 866.90625 293.734375 873.625 256.625 873.625 c 0
 218.265625 873.625 188.5 865.890625 167.328125 850.578125 c 0
 146.234375 835.1875 135.6875 812.765625 135.6875 783.390625 c 0
 135.6875 755.1875 144.28125 734.25 161.625 720.5 c 0
 178.890625 706.75 205.765625 696.28125 242.25 689.25 c 1
 262.09375 685.109375 281.9375 680.96875 301.78125 676.828125 c 1
 368.96875 664.015625 418.109375 642.21875 449.125 611.515625 c 0
 480.140625 580.8125 495.6875 538.546875 495.6875 484.796875 c 0
 495.6875 453.46875 490.21875 424.953125 479.359375 399.328125 c 0
 468.5 373.78125 452.640625 351.828125 431.859375 333.625 c 0
 411 315.34375 385.609375 301.28125 355.53125 291.359375 c 0
 325.453125 281.4375 291.15625 276.515625 252.796875 276.515625 c 0xdfc0
1030.6875 288 m 1
 1010.53125 348.46875 990.375 408.9375 970.21875 469.40625 c 1
 886.703125 469.40625 803.1875 469.40625 719.671875 469.40625 c 1
 700.140625 408.9375 680.609375 348.46875 661.078125 288 c 1
 624.28125 288 587.484375 288 550.6875 288 c 1
 626.859375 511.359375 703.03125 734.71875 779.203125 958.078125 c 1
 824.645507812 958.078125 870.088867188 958.078125 915.53125 958.078125 c 1xefc0
 991.676757812 734.71875 1067.82324219 511.359375 1143.96875 288 c 1
 1106.20800781 288 1068.44824219 288 1030.6875 288 c 1
847.328125 858.234375 m 1
 845.739257812 858.234375 844.151367188 858.234375 842.5625 858.234375 c 1
 810.245117188 759.666992188 777.926757812 661.098632812 745.609375 562.53125 c 1
 811.520507812 562.53125 877.432617188 562.53125 943.34375 562.53125 c 1
 911.338867188 661.098632812 879.333007812 759.666992188 847.328125 858.234375 c 1
1670.6875 288 m 1
 1650.53125 348.46875 1630.375 408.9375 1610.21875 469.40625 c 1
 1526.703125 469.40625 1443.1875 469.40625 1359.671875 469.40625 c 1
 1340.140625 408.9375 1320.609375 348.46875 1301.078125 288 c 1
 1264.28125 288 1227.484375 288 1190.6875 288 c 1
 1266.859375 511.359375 1343.03125 734.71875 1419.203125 958.078125 c 1
 1464.64550781 958.078125 1510.08886719 958.078125 1555.53125 958.078125 c 1
 1631.67675781 734.71875 1707.82324219 511.359375 1783.96875 288 c 1
 1746.20800781 288 1708.44824219 288 1670.6875 288 c 1
1487.328125 858.234375 m 1
 1485.73925781 858.234375 1484.15136719 858.234375 1482.5625 858.234375 c 1
 1450.24511719 759.666992188 1417.92675781 661.098632812 1385.609375 562.53125 c 1
 1451.52050781 562.53125 1517.43261719 562.53125 1583.34375 562.53125 c 1
 1551.33886719 661.098632812 1519.33300781 759.666992188 1487.328125 858.234375 c 1
EndSplineSet
EndChar

StartChar: uniF00A
Encoding: 61450 61450 13
Width: 1792
Flags: W
HStem: 288 88.2812<773.109 864.281 972.797 1064.98 1342.08 1563.11> 869.797 88.2812<773.109 864.281 972.797 1064.98 1342.01 1562.58>
VStem: 96.625 112.344<845.734 958.078> 555.531 109.453<848.625 958.078> 773.109 291.875<288 376.281 869.797 958.078> 1172.17 115.156<435.807 813.111>
DStem2: 208.969 958.078 96.625 958.078 0.311738 -0.950168<0 589.589> 383.656 393.625 442.25 288 0.291293 0.956634<0 590.041>
LayerCount: 2
UndoRedoHistory
Layer: 1
Undoes
UndoOperation
Index: 0
Type: 12
WasModified: 0
WasOrder2: 0
Layer: 0
HStem: 288 88.2812<773.109 864.281 972.797 1064.98 1342.08 1563.11> 869.797 88.2812<773.109 864.281 972.797 1064.98 1342.01 1562.58>
VStem: 96.625 112.344<845.734 958.078> 555.531 109.453<848.625 958.078> 773.109 291.875<288 376.281 869.797 958.078> 1172.17 115.156<435.807 813.111>
DStem2: 208.969 958.078 96.625 958.078 0.311738 -0.950168<0 589.589> 383.656 393.625 442.25 288 0.291293 0.956634<0 590.041>
EndUndoOperation
EndUndoes
Redoes
EndRedoes
EndUndoRedoHistory
Fore
SplineSet
316.46875 288 m 1
 243.1875 511.359375 169.90625 734.71875 96.625 958.078125 c 1
 134.073242188 958.078125 171.520507812 958.078125 208.96875 958.078125 c 1
 244.489257812 847.6875 280.010742188 737.296875 315.53125 626.90625 c 1
 336.963867188 549.145507812 358.395507812 471.385742188 379.828125 393.625 c 1
 381.104492188 393.625 382.379882812 393.625 383.65625 393.625 c 1
 405.426757812 471.385742188 427.198242188 549.145507812 448.96875 626.90625 c 1
 484.489257812 737.296875 520.010742188 847.6875 555.53125 958.078125 c 1
 592.015625 958.078125 628.5 958.078125 664.984375 958.078125 c 1
 590.739257812 734.71875 516.495117188 511.359375 442.25 288 c 1
 400.323242188 288 358.395507812 288 316.46875 288 c 1
773.109375 288 m 1
 773.109375 317.426757812 773.109375 346.854492188 773.109375 376.28125 c 1
 803.5 376.28125 833.890625 376.28125 864.28125 376.28125 c 1
 864.28125 540.786132812 864.28125 705.291992188 864.28125 869.796875 c 1
 833.890625 869.796875 803.5 869.796875 773.109375 869.796875 c 1
 773.109375 899.223632812 773.109375 928.651367188 773.109375 958.078125 c 1
 870.401367188 958.078125 967.692382812 958.078125 1064.984375 958.078125 c 1
 1064.984375 928.651367188 1064.984375 899.223632812 1064.984375 869.796875 c 1
 1034.25488281 869.796875 1003.52636719 869.796875 972.796875 869.796875 c 1
 972.796875 705.291992188 972.796875 540.786132812 972.796875 376.28125 c 1
 1003.52636719 376.28125 1034.25488281 376.28125 1064.984375 376.28125 c 1
 1064.984375 346.854492188 1064.984375 317.426757812 1064.984375 288 c 1
 967.692382812 288 870.401367188 288 773.109375 288 c 1
1453.421875 276.515625 m 0
 1365.765625 276.515625 1296.9375 306.046875 1247.015625 365.265625 c 0
 1197.09375 424.484375 1172.171875 510.421875 1172.171875 623.078125 c 0
 1172.171875 679.328125 1178.578125 728.9375 1191.390625 771.828125 c 0
 1204.125 814.71875 1222.71875 850.890625 1247.015625 880.34375 c 0
 1271.390625 909.796875 1300.921875 931.984375 1335.84375 947.0625 c 0
 1370.6875 962.0625 1409.90625 969.5625 1453.421875 969.5625 c 0
 1511.703125 969.5625 1560.453125 956.828125 1599.828125 931.203125 c 0
 1639.203125 905.578125 1670.0625 867.84375 1692.484375 817.921875 c 1
 1662.09375 801.28125 1631.703125 784.640625 1601.3125 768 c 1
 1589.75 800.03125 1572.015625 825.421875 1548.03125 844.328125 c 0
 1523.96875 863.234375 1492.484375 872.609375 1453.421875 872.609375 c 0
 1401.625 872.609375 1360.921875 855.03125 1331.546875 819.875 c 0
 1302.09375 784.640625 1287.328125 735.96875 1287.328125 673.9375 c 1
 1287.328125 640.004882812 1287.328125 606.073242188 1287.328125 572.140625 c 1
 1287.328125 510.109375 1302.09375 461.4375 1331.546875 426.203125 c 0
 1360.921875 391.046875 1401.625 373.46875 1453.421875 373.46875 c 0
 1493.734375 373.46875 1526.546875 383.859375 1551.859375 404.640625 c 0
 1577.09375 425.421875 1595.84375 452.140625 1608.03125 484.796875 c 1
 1637.14550781 467.192382812 1666.26074219 449.588867188 1695.375 431.984375 c 1
 1672.953125 383.390625 1641.625 345.265625 1601.3125 317.765625 c 0
 1560.921875 290.265625 1511.703125 276.515625 1453.421875 276.515625 c 0
EndSplineSet
EndChar

StartChar: uniF00B
Encoding: 61451 61451 14
Width: 1792
Flags: W
HStem: 288 96.0156<820.297 1141> 554.875 95.0781<180.297 416.684> 579.875 95.9375<820.297 1111.23> 862.062 96.0156<180.297 416.684 820.297 1141 1212.33 1412.02 1520.45 1720.14>
VStem: 71.8594 108.438<288 554.875 649.953 863.078> 440.453 114.297<672.194 840.759> 711.859 108.438<384.016 579.875 675.812 862.062> 1412.02 108.438<288 862.062>
LayerCount: 2
UndoRedoHistory
Layer: 1
Undoes
UndoOperation
Index: 0
Type: 12
WasModified: 0
WasOrder2: 0
Layer: 0
HStem: 288 96.0156<820.297 1141> 554.875 95.0781<180.297 416.684> 579.875 95.9375<820.297 1111.23> 862.062 96.0156<180.297 416.684 820.297 1141 1212.33 1412.02 1520.45 1720.14>
VStem: 71.8594 108.438<288 554.875 649.953 863.078> 440.453 114.297<672.194 840.759> 711.859 108.438<384.016 579.875 675.812 862.062> 1412.02 108.438<288 862.062>
EndUndoOperation
EndUndoes
Redoes
EndRedoes
EndUndoRedoHistory
Fore
SplineSet
71.859375 288 m 1xdf
 71.859375 511.359375 71.859375 734.71875 71.859375 958.078125 c 1
 167.848632812 958.078125 263.838867188 958.078125 359.828125 958.078125 c 1
 421.9375 958.078125 469.90625 939.875 503.8125 903.390625 c 0
 537.796875 866.90625 554.75 817.921875 554.75 756.515625 c 256
 554.75 695.03125 537.796875 646.046875 503.8125 609.5625 c 0
 469.90625 573.15625 421.9375 554.875 359.828125 554.875 c 1
 299.984375 554.875 240.140625 554.875 180.296875 554.875 c 1
 180.296875 465.916992188 180.296875 376.958007812 180.296875 288 c 1
 144.151367188 288 108.004882812 288 71.859375 288 c 1xdf
180.296875 649.953125 m 1
 237.901367188 649.953125 295.504882812 649.953125 353.109375 649.953125 c 1
 380.609375 649.953125 402.09375 657.140625 417.40625 671.515625 c 0
 432.796875 685.890625 440.453125 706.59375 440.453125 733.46875 c 1
 440.453125 748.807617188 440.453125 764.145507812 440.453125 779.484375 c 1
 440.453125 806.4375 432.796875 827.0625 417.40625 841.4375 c 0
 402.09375 855.8125 380.609375 863.078125 353.109375 863.078125 c 1
 295.504882812 863.078125 237.901367188 863.078125 180.296875 863.078125 c 1
 180.296875 792.036132812 180.296875 720.995117188 180.296875 649.953125 c 1
711.859375 288 m 1
 711.859375 511.359375 711.859375 734.71875 711.859375 958.078125 c 1
 854.90625 958.078125 997.953125 958.078125 1141 958.078125 c 1
 1141 926.073242188 1141 894.067382812 1141 862.0625 c 1
 1034.09863281 862.0625 927.198242188 862.0625 820.296875 862.0625 c 1
 820.296875 799.979492188 820.296875 737.895507812 820.296875 675.8125 c 1
 917.276367188 675.8125 1014.25488281 675.8125 1111.234375 675.8125 c 1
 1111.234375 643.833007812 1111.234375 611.854492188 1111.234375 579.875 c 1
 1014.25488281 579.875 917.276367188 579.875 820.296875 579.875 c 1xbf
 820.296875 514.588867188 820.296875 449.301757812 820.296875 384.015625 c 1
 927.198242188 384.015625 1034.09863281 384.015625 1141 384.015625 c 1
 1141 352.010742188 1141 320.004882812 1141 288 c 1
 997.953125 288 854.90625 288 711.859375 288 c 1
1520.453125 862.0625 m 1
 1520.453125 670.708007812 1520.453125 479.354492188 1520.453125 288 c 1
 1484.30761719 288 1448.16113281 288 1412.015625 288 c 1
 1412.015625 479.354492188 1412.015625 670.708007812 1412.015625 862.0625 c 1
 1345.453125 862.0625 1278.890625 862.0625 1212.328125 862.0625 c 1
 1212.328125 894.067382812 1212.328125 926.073242188 1212.328125 958.078125 c 1
 1381.59863281 958.078125 1550.87011719 958.078125 1720.140625 958.078125 c 1
 1720.140625 926.073242188 1720.140625 894.067382812 1720.140625 862.0625 c 1
 1653.578125 862.0625 1587.015625 862.0625 1520.453125 862.0625 c 1
EndSplineSet
EndChar

StartChar: uniF00C
Encoding: 61452 61452 15
Width: 1792
Flags: W
HStem: -148.33 85.3906<803.27 978.187> 200.107 85.4688<828.18 977.718> 717.686 89.2188<1388.21 1579.14> 729.17 92.1875<328.559 354.926> 1002.76 85.4688<802.406 938.743> 1309.95 89.2969<802.406 1011.58 1380.73 1582.23>
VStem: 82.0938 106.562<1292.69 1399.25> 493.891 104.688<1294.56 1399.25> 674.359 107.5<-42.67 180.457> 700.609 101.797<729.17 1002.76 1088.23 1309.95> 998.891 107.5<-42.3858 179.315> 1030.84 108.516<1107.5 1290.69> 1233.73 109.453<855.416 1273>
DStem2: 188.656 1399.25 82.0938 1399.25 0.271727 -0.962374<0 593.586> 375.844 977.842 402.719 729.17 0.269742 0.962933<-155.735 437.628> 1024.12 1010.42 922.406 1002.76 0.413517 -0.910496<0 262.054>
LayerCount: 2
UndoRedoHistory
Layer: 1
Undoes
UndoOperation
Index: 0
Type: 12
WasModified: 0
WasOrder2: 0
Layer: 0
HStem: -148.33 85.3906<803.27 978.187> 200.107 85.4688<828.18 977.718> 717.686 89.2188<1388.21 1579.14> 729.17 92.1875<328.559 354.926> 1002.76 85.4688<802.406 938.743> 1309.95 89.2969<802.406 1011.58 1380.73 1582.23>
VStem: 82.0938 106.562<1292.69 1399.25> 493.891 104.688<1294.56 1399.25> 674.359 107.5<-42.67 180.457> 700.609 101.797<729.17 1002.76 1088.23 1309.95> 998.891 107.5<-42.3858 179.315> 1030.84 108.516<1107.5 1290.69> 1233.73 109.453<855.416 1273>
DStem2: 188.656 1399.25 82.0938 1399.25 0.271727 -0.962374<0 593.586> 375.844 977.842 402.719 729.17 0.269742 0.962933<-155.735 437.628> 1024.12 1010.42 922.406 1002.76 0.413517 -0.910496<0 262.054>
EndUndoOperation
EndUndoes
Redoes
EndRedoes
EndUndoRedoHistory
Fore
SplineSet
890.296875 -148.330078125 m 0xcfa8
 818.734375 -148.330078125 764.828125 -126.298828125 728.578125 -82.158203125 c 0
 692.484375 -37.939453125 674.359375 26.357421875 674.359375 110.810546875 c 0
 674.359375 151.123046875 679.515625 191.435546875 689.671875 231.826171875 c 0
 699.984375 272.138671875 714.671875 310.654296875 733.890625 347.451171875 c 0
 753.109375 384.248046875 775.921875 418.701171875 802.484375 450.654296875 c 0
 829.046875 482.685546875 858.734375 510.185546875 891.390625 533.232421875 c 1
 937.120117188 533.232421875 982.848632812 533.232421875 1028.578125 533.232421875 c 1
 989.515625 503.154296875 955.921875 474.482421875 927.796875 447.294921875 c 0
 899.671875 420.107421875 875.765625 393.076171875 856.234375 366.201171875 c 0
 836.703125 339.326171875 820.921875 311.669921875 808.734375 283.154296875 c 0
 796.546875 254.638671875 787.328125 223.779296875 780.921875 190.498046875 c 1
 785.088867188 190.498046875 789.254882812 190.498046875 793.421875 190.498046875 c 1
 804.359375 221.201171875 821.546875 244.716796875 845.296875 261.044921875 c 0
 868.890625 277.373046875 897.015625 285.576171875 929.671875 285.576171875 c 0
 984.046875 285.576171875 1027.171875 267.919921875 1058.890625 232.763671875 c 0
 1090.453125 197.529296875 1106.390625 145.732421875 1106.390625 77.216796875 c 0
 1106.390625 6.201171875 1087.953125 -49.189453125 1051.234375 -88.876953125 c 0
 1014.359375 -128.564453125 960.765625 -148.330078125 890.296875 -148.330078125 c 0xcfa8
890.296875 -62.939453125 m 256
 962.640625 -62.939453125 998.890625 -23.251953125 998.890625 56.123046875 c 1
 998.890625 64.4306640625 998.890625 72.7373046875 998.890625 81.044921875 c 1
 998.890625 160.419921875 962.640625 200.107421875 890.296875 200.107421875 c 256
 818.109375 200.107421875 781.859375 160.419921875 781.859375 81.044921875 c 1
 781.859375 72.7373046875 781.859375 64.4306640625 781.859375 56.123046875 c 1
 781.859375 -23.251953125 818.109375 -62.939453125 890.296875 -62.939453125 c 256
278.890625 729.169921875 m 1xdf08
 213.291992188 952.529296875 147.692382812 1175.88867188 82.09375 1399.24804688 c 1
 117.614257812 1399.24804688 153.135742188 1399.24804688 188.65625 1399.24804688 c 1
 228.317382812 1258.77929688 267.979492188 1118.31054688 307.640625 977.841796875 c 1
 316.9375 925.680664062 326.234375 873.518554688 335.53125 821.357421875 c 1
 339.671875 821.357421875 343.8125 821.357421875 347.953125 821.357421875 c 1
 357.25 873.518554688 366.546875 925.680664062 375.84375 977.841796875 c 1
 415.192382812 1118.31054688 454.541992188 1258.77929688 493.890625 1399.24804688 c 1
 528.786132812 1399.24804688 563.682617188 1399.24804688 598.578125 1399.24804688 c 1
 533.291992188 1175.88867188 468.004882812 952.529296875 402.71875 729.169921875 c 1
 361.442382812 729.169921875 320.166992188 729.169921875 278.890625 729.169921875 c 1xdf08
802.40625 729.169921875 m 1xdf58
 768.473632812 729.169921875 734.541992188 729.169921875 700.609375 729.169921875 c 1
 700.609375 952.529296875 700.609375 1175.88867188 700.609375 1399.24804688 c 1
 788.942382812 1399.24804688 877.276367188 1399.24804688 965.609375 1399.24804688 c 1
 1023.1875 1399.24804688 1066.546875 1382.13867188 1095.6875 1347.91992188 c 0
 1124.75 1313.62304688 1139.359375 1264.56054688 1139.359375 1200.49804688 c 0
 1139.359375 1148.70117188 1129.75 1106.74804688 1110.53125 1074.79492188 c 0
 1091.3125 1042.76367188 1062.5625 1021.35742188 1024.125 1010.41992188 c 1
 1066.703125 916.669921875 1109.28125 822.919921875 1151.859375 729.169921875 c 1
 1114.09863281 729.169921875 1076.33886719 729.169921875 1038.578125 729.169921875 c 1
 999.854492188 820.368164062 961.129882812 911.565429688 922.40625 1002.76367188 c 1
 882.40625 1002.76367188 842.40625 1002.76367188 802.40625 1002.76367188 c 1
 802.40625 911.565429688 802.40625 820.368164062 802.40625 729.169921875 c 1xdf58
956.9375 1088.23242188 m 1
 981.234375 1088.23242188 999.671875 1094.48242188 1012.171875 1106.90429688 c 0
 1024.59375 1119.40429688 1030.84375 1139.71679688 1030.84375 1167.91992188 c 1
 1030.84375 1188.70117188 1030.84375 1209.48242188 1030.84375 1230.26367188 c 1
 1030.84375 1258.46679688 1024.59375 1278.77929688 1012.171875 1291.27929688 c 0
 999.671875 1303.70117188 981.234375 1309.95117188 956.9375 1309.95117188 c 1
 905.426757812 1309.95117188 853.916992188 1309.95117188 802.40625 1309.95117188 c 1
 802.40625 1236.04492188 802.40625 1162.13867188 802.40625 1088.23242188 c 1
 853.916992188 1088.23242188 905.426757812 1088.23242188 956.9375 1088.23242188 c 1
1487.171875 717.685546875 m 0xef08
 1448.109375 717.685546875 1413.109375 724.248046875 1382.09375 737.294921875 c 0
 1351 750.419921875 1324.4375 771.123046875 1302.40625 799.248046875 c 0
 1280.296875 827.373046875 1263.34375 863.388671875 1251.46875 907.216796875 c 0
 1239.671875 951.123046875 1233.734375 1003.38867188 1233.734375 1064.24804688 c 256
 1233.734375 1125.02929688 1239.671875 1177.29492188 1251.46875 1221.20117188 c 0
 1263.34375 1265.02929688 1280.296875 1301.04492188 1302.40625 1329.16992188 c 0
 1324.4375 1357.29492188 1351 1377.99804688 1382.09375 1391.12304688 c 0
 1413.109375 1404.24804688 1448.109375 1410.73242188 1487.171875 1410.73242188 c 0
 1544.125 1410.73242188 1589.75 1398.46679688 1623.96875 1373.77929688 c 0
 1658.1875 1349.16992188 1685.609375 1312.21679688 1706.078125 1262.91992188 c 1
 1677.27636719 1246.93066406 1648.47363281 1230.94042969 1619.671875 1214.95117188 c 1
 1608.109375 1252.68554688 1592.015625 1279.87304688 1571.15625 1296.51367188 c 0
 1550.375 1313.15429688 1522.40625 1321.51367188 1487.171875 1321.51367188 c 0
 1441.78125 1321.51367188 1406.390625 1305.81054688 1381.078125 1274.48242188 c 0
 1355.84375 1243.07617188 1343.1875 1199.87304688 1343.1875 1144.87304688 c 1
 1343.1875 1091.09667969 1343.1875 1037.32128906 1343.1875 983.544921875 c 1
 1343.1875 928.544921875 1355.84375 885.341796875 1381.078125 853.935546875 c 0
 1406.390625 822.607421875 1441.78125 806.904296875 1487.171875 806.904296875 c 0
 1523.03125 806.904296875 1552.015625 815.888671875 1574.046875 833.779296875 c 0
 1596.15625 851.748046875 1613.265625 880.498046875 1625.453125 920.185546875 c 1
 1653.60449219 903.544921875 1681.75488281 886.904296875 1709.90625 870.263671875 c 1
 1688.8125 821.044921875 1660.609375 783.232421875 1625.453125 756.982421875 c 0
 1590.21875 730.732421875 1544.125 717.685546875 1487.171875 717.685546875 c 0xef08
EndSplineSet
EndChar

StartChar: uniF00D
Encoding: 61453 61453 16
Width: 1792
Flags: W
HStem: -142.516 96.0156<568.266 840.922 1048.27 1320.92> 712.016 96.9531<456.756 680.46> 990.375 95.0781<1137.88 1374.26> 1308.11 96.9531<456.756 680.46 1137.88 1374.26>
VStem: 279.672 116.172<872.663 1244.42> 459.828 108.438<-46.5 527.562> 741.391 116.172<872.663 1244.42> 939.828 108.438<-46.5 527.562> 1029.44 108.438<723.5 990.375 1085.45 1298.58> 1398.03 114.297<1107.69 1276.26>
LayerCount: 2
UndoRedoHistory
Layer: 1
Undoes
UndoOperation
Index: 0
Type: 12
WasModified: 0
WasOrder2: 0
Layer: 0
HStem: -142.516 96.0156<568.266 840.922 1048.27 1320.92> 712.016 96.9531<456.756 680.46> 990.375 95.0781<1137.88 1374.26> 1308.11 96.9531<456.756 680.46 1137.88 1374.26>
VStem: 279.672 116.172<872.663 1244.42> 459.828 108.438<-46.5 527.562> 741.391 116.172<872.663 1244.42> 939.828 108.438<-46.5 527.562> 1029.44 108.438<723.5 990.375 1085.45 1298.58> 1398.03 114.297<1107.69 1276.26>
EndUndoOperation
EndUndoes
Redoes
EndRedoes
EndUndoRedoHistory
Fore
SplineSet
459.828125 -142.515625 m 1xfe40
 459.828125 80.84375 459.828125 304.203125 459.828125 527.5625 c 1
 495.973632812 527.5625 532.120117188 527.5625 568.265625 527.5625 c 1
 568.265625 336.208007812 568.265625 144.853515625 568.265625 -46.5 c 1
 659.151367188 -46.5 750.036132812 -46.5 840.921875 -46.5 c 1
 840.921875 -78.505859375 840.921875 -110.510742188 840.921875 -142.515625 c 1
 713.890625 -142.515625 586.859375 -142.515625 459.828125 -142.515625 c 1xfe40
939.828125 -142.515625 m 1xff40
 939.828125 80.84375 939.828125 304.203125 939.828125 527.5625 c 1
 975.973632812 527.5625 1012.12011719 527.5625 1048.265625 527.5625 c 1
 1048.265625 336.208007812 1048.265625 144.853515625 1048.265625 -46.5 c 1
 1139.15136719 -46.5 1230.03613281 -46.5 1320.921875 -46.5 c 1
 1320.921875 -78.505859375 1320.921875 -110.510742188 1320.921875 -142.515625 c 1
 1193.890625 -142.515625 1066.859375 -142.515625 939.828125 -142.515625 c 1xff40
568.65625 712.015625 m 256
 525.0625 712.015625 485.609375 719.515625 450.0625 734.515625 c 0
 414.515625 749.59375 384.125 771.625 358.890625 800.765625 c 0
 333.578125 829.90625 314.046875 866.078125 300.296875 909.28125 c 0
 286.546875 952.484375 279.671875 1002.25 279.671875 1058.578125 c 256
 279.671875 1114.828125 286.546875 1164.59375 300.296875 1207.796875 c 0
 314.046875 1251 333.578125 1287.171875 358.890625 1316.3125 c 0
 384.125 1345.453125 414.515625 1367.484375 450.0625 1382.5625 c 0
 485.609375 1397.5625 525.0625 1405.0625 568.65625 1405.0625 c 256
 612.171875 1405.0625 651.625 1397.5625 687.171875 1382.5625 c 0
 722.71875 1367.484375 753.109375 1345.453125 778.34375 1316.3125 c 0
 803.65625 1287.171875 823.1875 1251 836.9375 1207.796875 c 0
 850.6875 1164.59375 857.5625 1114.828125 857.5625 1058.578125 c 256
 857.5625 1002.25 850.6875 952.484375 836.9375 909.28125 c 0
 823.1875 866.078125 803.65625 829.90625 778.34375 800.765625 c 0
 753.109375 771.625 722.71875 749.59375 687.171875 734.515625 c 0
 651.625 719.515625 612.171875 712.015625 568.65625 712.015625 c 256
568.65625 808.96875 m 0
 594.203125 808.96875 617.71875 813.421875 639.203125 822.40625 c 0
 660.609375 831.3125 678.890625 844.28125 693.890625 861.234375 c 0
 708.96875 878.1875 720.609375 898.890625 728.96875 923.1875 c 0
 737.25 947.484375 741.390625 974.984375 741.390625 1005.765625 c 1
 741.390625 1040.94726562 741.390625 1076.12988281 741.390625 1111.3125 c 1
 741.390625 1142.09375 737.25 1169.59375 728.96875 1193.890625 c 0
 720.609375 1218.1875 708.96875 1238.890625 693.890625 1255.84375 c 0
 678.890625 1272.796875 660.609375 1285.765625 639.203125 1294.671875 c 0
 617.71875 1303.65625 594.203125 1308.109375 568.65625 1308.109375 c 0
 542.40625 1308.109375 518.734375 1303.65625 497.5625 1294.671875 c 0
 476.46875 1285.765625 458.34375 1272.796875 443.34375 1255.84375 c 0
 428.265625 1238.890625 416.625 1218.1875 408.265625 1193.890625 c 0
 399.984375 1169.59375 395.84375 1142.09375 395.84375 1111.3125 c 1
 395.84375 1076.12988281 395.84375 1040.94726562 395.84375 1005.765625 c 1
 395.84375 974.984375 399.984375 947.484375 408.265625 923.1875 c 0
 416.625 898.890625 428.265625 878.1875 443.34375 861.234375 c 0
 458.34375 844.28125 476.46875 831.3125 497.5625 822.40625 c 0
 518.734375 813.421875 542.40625 808.96875 568.65625 808.96875 c 0
1029.4375 723.5 m 1xfec0
 1029.4375 946.859375 1029.4375 1170.21875 1029.4375 1393.578125 c 1
 1125.42675781 1393.578125 1221.41699219 1393.578125 1317.40625 1393.578125 c 1
 1379.515625 1393.578125 1427.484375 1375.37402344 1461.390625 1338.890625 c 0
 1495.375 1302.40527344 1512.328125 1253.421875 1512.328125 1192.015625 c 256
 1512.328125 1130.53027344 1495.375 1081.546875 1461.390625 1045.0625 c 0
 1427.484375 1008.65625 1379.515625 990.375 1317.40625 990.375 c 1
 1257.5625 990.375 1197.71875 990.375 1137.875 990.375 c 1
 1137.875 901.416015625 1137.875 812.458007812 1137.875 723.5 c 1
 1101.72949219 723.5 1065.58300781 723.5 1029.4375 723.5 c 1xfec0
1137.875 1085.453125 m 1
 1195.47949219 1085.453125 1253.08300781 1085.453125 1310.6875 1085.453125 c 1
 1338.1875 1085.453125 1359.671875 1092.640625 1374.984375 1107.015625 c 0
 1390.375 1121.390625 1398.03125 1142.09277344 1398.03125 1168.96875 c 1
 1398.03125 1184.30664062 1398.03125 1199.64550781 1398.03125 1214.984375 c 1
 1398.03125 1241.9375 1390.375 1262.56152344 1374.984375 1276.9375 c 0
 1359.671875 1291.31152344 1338.1875 1298.578125 1310.6875 1298.578125 c 1
 1253.08300781 1298.578125 1195.47949219 1298.578125 1137.875 1298.578125 c 1
 1137.875 1227.53613281 1137.875 1156.49414062 1137.875 1085.453125 c 1
EndSplineSet
EndChar

StartChar: uniF00E
Encoding: 61454 61454 17
Width: 1792
Flags: W
HStem: 288 96.0156<177.043 421.987 1508.81 1781.47> 554.875 95.0781<868.812 1105.12> 863.078 95<177.765 421.265 868.812 1105.12>
VStem: 10.5312 116.25<437.163 808.916> 472.25 116.25<437.163 808.916> 760.375 108.438<288 554.875 649.953 863.078> 1128.97 114.219<672.194 840.759> 1400.38 108.438<384.016 958.078>
LayerCount: 2
UndoRedoHistory
Layer: 1
Undoes
UndoOperation
Index: 0
Type: 12
WasModified: 0
WasOrder2: 0
Layer: 0
HStem: 288 96.0156<177.043 421.987 1508.81 1781.47> 554.875 95.0781<868.812 1105.12> 863.078 95<177.765 421.265 868.812 1105.12>
VStem: 10.5312 116.25<437.163 808.916> 472.25 116.25<437.163 808.916> 760.375 108.438<288 554.875 649.953 863.078> 1128.97 114.219<672.194 840.759> 1400.38 108.438<384.016 958.078>
EndUndoOperation
EndUndoes
Redoes
EndRedoes
EndUndoRedoHistory
Fore
SplineSet
299.59375 276.515625 m 256
 256 276.515625 216.46875 284.015625 181 299.015625 c 0
 145.375 314.09375 115.0625 336.125 89.75 365.265625 c 0
 64.4375 394.40625 44.90625 430.578125 31.15625 473.78125 c 0
 17.40625 516.984375 10.53125 566.75 10.53125 623.078125 c 256
 10.53125 679.328125 17.40625 729.09375 31.15625 772.296875 c 0
 44.90625 815.5 64.4375 851.671875 89.75 880.8125 c 0
 115.0625 909.953125 145.375 931.984375 181 947.0625 c 0
 216.46875 962.0625 256 969.5625 299.59375 969.5625 c 256
 343.03125 969.5625 382.5625 962.0625 418.03125 947.0625 c 0
 453.65625 931.984375 483.96875 909.953125 509.28125 880.8125 c 0
 534.59375 851.671875 554.125 815.5 567.875 772.296875 c 0
 581.625 729.09375 588.5 679.328125 588.5 623.078125 c 256
 588.5 566.75 581.625 516.984375 567.875 473.78125 c 0
 554.125 430.578125 534.59375 394.40625 509.28125 365.265625 c 0
 483.96875 336.125 453.65625 314.09375 418.03125 299.015625 c 0
 382.5625 284.015625 343.03125 276.515625 299.59375 276.515625 c 256
299.59375 373.46875 m 0
 325.0625 373.46875 348.65625 377.921875 370.0625 386.90625 c 0
 391.46875 395.8125 409.75 408.78125 424.75 425.734375 c 0
 439.90625 442.6875 451.46875 463.390625 459.90625 487.6875 c 0
 468.1875 511.984375 472.25 539.484375 472.25 570.265625 c 1
 472.25 605.448242188 472.25 640.629882812 472.25 675.8125 c 1
 472.25 706.59375 468.1875 734.09375 459.90625 758.390625 c 0
 451.46875 782.6875 439.90625 803.390625 424.75 820.34375 c 0
 409.75 837.296875 391.46875 850.265625 370.0625 859.171875 c 0
 348.65625 868.15625 325.0625 872.609375 299.59375 872.609375 c 0
 273.34375 872.609375 249.59375 868.15625 228.5 859.171875 c 0
 207.40625 850.265625 189.28125 837.296875 174.28125 820.34375 c 0
 159.125 803.390625 147.5625 782.6875 139.125 758.390625 c 0
 130.84375 734.09375 126.78125 706.59375 126.78125 675.8125 c 1
 126.78125 640.629882812 126.78125 605.448242188 126.78125 570.265625 c 1
 126.78125 539.484375 130.84375 511.984375 139.125 487.6875 c 0
 147.5625 463.390625 159.125 442.6875 174.28125 425.734375 c 0
 189.28125 408.78125 207.40625 395.8125 228.5 386.90625 c 0
 249.59375 377.921875 273.34375 373.46875 299.59375 373.46875 c 0
760.375 288 m 1
 760.375 511.359375 760.375 734.71875 760.375 958.078125 c 1
 856.364257812 958.078125 952.354492188 958.078125 1048.34375 958.078125 c 1
 1110.375 958.078125 1158.34375 939.875 1192.25 903.390625 c 0
 1226.3125 866.90625 1243.1875 817.921875 1243.1875 756.515625 c 256
 1243.1875 695.03125 1226.3125 646.046875 1192.25 609.5625 c 0
 1158.34375 573.15625 1110.375 554.875 1048.34375 554.875 c 1
 988.5 554.875 928.65625 554.875 868.8125 554.875 c 1
 868.8125 465.916992188 868.8125 376.958007812 868.8125 288 c 1
 832.666992188 288 796.520507812 288 760.375 288 c 1
868.8125 649.953125 m 1
 926.416992188 649.953125 984.020507812 649.953125 1041.625 649.953125 c 1
 1069.125 649.953125 1090.53125 657.140625 1105.84375 671.515625 c 0
 1121.3125 685.890625 1128.96875 706.59375 1128.96875 733.46875 c 1
 1128.96875 748.807617188 1128.96875 764.145507812 1128.96875 779.484375 c 1
 1128.96875 806.4375 1121.3125 827.0625 1105.84375 841.4375 c 0
 1090.53125 855.8125 1069.125 863.078125 1041.625 863.078125 c 1
 984.020507812 863.078125 926.416992188 863.078125 868.8125 863.078125 c 1
 868.8125 792.036132812 868.8125 720.995117188 868.8125 649.953125 c 1
1400.375 288 m 1
 1400.375 511.359375 1400.375 734.71875 1400.375 958.078125 c 1
 1436.52050781 958.078125 1472.66699219 958.078125 1508.8125 958.078125 c 1
 1508.8125 766.723632812 1508.8125 575.370117188 1508.8125 384.015625 c 1
 1599.69824219 384.015625 1690.58300781 384.015625 1781.46875 384.015625 c 1
 1781.46875 352.010742188 1781.46875 320.004882812 1781.46875 288 c 1
 1654.4375 288 1527.40625 288 1400.375 288 c 1
EndSplineSet
EndChar

StartChar: uniF00F
Encoding: 61455 61455 18
Width: 1792
Flags: W
HStem: 288 96.0156<742.719 983.085 1340.88 1585.94> 579.875 95.9375<182.719 458.188 1468.24 1586.52> 862.062 96.0156<182.719 492.719 742.719 983.085 1378.58 1614.18>
VStem: 74.2812 108.438<288 579.875 675.812 862.062> 634.281 108.438<384.016 862.062> 1038.34 116.25<439.419 806.659> 1250.22 107.5<716.387 852.68> 1610.22 107.5<399.565 546.758>
DStem2: 1464.28 689.25 1446 586.594 0.978916 -0.204262<-84.3745 149.704>
LayerCount: 2
UndoRedoHistory
Layer: 1
Undoes
UndoOperation
Index: 0
Type: 12
WasModified: 0
WasOrder2: 0
Layer: 0
HStem: 288 96.0156<742.719 983.085 1340.88 1585.94> 579.875 95.9375<182.719 458.188 1468.24 1586.52> 862.062 96.0156<182.719 492.719 742.719 983.085 1378.58 1614.18>
VStem: 74.2812 108.438<288 579.875 675.812 862.062> 634.281 108.438<384.016 862.062> 1038.34 116.25<439.419 806.659> 1250.22 107.5<716.387 852.68> 1610.22 107.5<399.565 546.758>
DStem2: 1464.28 689.25 1446 586.594 0.978916 -0.204262<-84.3745 149.704>
EndUndoOperation
EndUndoes
Redoes
EndRedoes
EndUndoRedoHistory
Fore
SplineSet
74.28125 288 m 1
 74.28125 511.359375 74.28125 734.71875 74.28125 958.078125 c 1
 213.760742188 958.078125 353.239257812 958.078125 492.71875 958.078125 c 1
 492.71875 926.073242188 492.71875 894.067382812 492.71875 862.0625 c 1
 389.385742188 862.0625 286.051757812 862.0625 182.71875 862.0625 c 1
 182.71875 799.979492188 182.71875 737.895507812 182.71875 675.8125 c 1
 274.541992188 675.8125 366.364257812 675.8125 458.1875 675.8125 c 1
 458.1875 643.833007812 458.1875 611.854492188 458.1875 579.875 c 1
 366.364257812 579.875 274.541992188 579.875 182.71875 579.875 c 1
 182.71875 482.583007812 182.71875 385.291992188 182.71875 288 c 1
 146.573242188 288 110.426757812 288 74.28125 288 c 1
634.28125 958.078125 m 1
 713.291992188 958.078125 792.301757812 958.078125 871.3125 958.078125 c 1
 914.28125 958.078125 953.03125 951.046875 988.03125 936.984375 c 0
 1022.875 922.84375 1052.5625 901.90625 1077.25 874.09375 c 0
 1101.9375 846.203125 1121 811.359375 1134.4375 769.40625 c 0
 1147.875 727.53125 1154.59375 678.703125 1154.59375 623.078125 c 256
 1154.59375 567.375 1147.875 518.546875 1134.4375 476.671875 c 0
 1121 434.71875 1101.9375 399.875 1077.25 371.984375 c 0
 1052.5625 344.171875 1022.875 323.234375 988.03125 309.09375 c 0
 953.03125 295.03125 914.28125 288 871.3125 288 c 1
 792.301757812 288 713.291992188 288 634.28125 288 c 1
 634.28125 511.359375 634.28125 734.71875 634.28125 958.078125 c 1
871.3125 384.015625 m 1
 921.3125 384.015625 961.625 399.71875 992.25 431.046875 c 0
 1023.03125 462.375 1038.34375 508.46875 1038.34375 569.25 c 1
 1038.34375 605.109375 1038.34375 640.96875 1038.34375 676.828125 c 1
 1038.34375 737.609375 1023.03125 783.703125 992.25 815.03125 c 0
 961.625 846.4375 921.3125 862.0625 871.3125 862.0625 c 1
 828.448242188 862.0625 785.583007812 862.0625 742.71875 862.0625 c 1
 742.71875 702.713867188 742.71875 543.364257812 742.71875 384.015625 c 1
 785.583007812 384.015625 828.448242188 384.015625 871.3125 384.015625 c 1
1474.90625 276.515625 m 0
 1418.5 276.515625 1370.6875 286.75 1331.3125 307.21875 c 0
 1291.9375 327.6875 1258.1875 355.1875 1230.0625 389.796875 c 1
 1255.01074219 413.15625 1279.95800781 436.515625 1304.90625 459.875 c 1
 1328.65625 431.046875 1354.75 409.25 1383.1875 394.5625 c 0
 1411.625 379.875 1444.125 372.453125 1480.6875 372.453125 c 0
 1523.5 372.453125 1555.84375 382.0625 1577.5625 401.28125 c 0
 1599.28125 420.5 1610.21875 446.4375 1610.21875 479.015625 c 0
 1610.21875 505.265625 1602.5625 526.046875 1587.25 541.4375 c 0
 1571.78125 556.828125 1544.59375 568.3125 1505.53125 575.96875 c 1
 1485.6875 579.510742188 1465.84375 583.051757812 1446 586.59375 c 1
 1380.84375 598.703125 1331.78125 620.1875 1299.125 650.890625 c 0
 1266.46875 681.59375 1250.21875 723.859375 1250.21875 777.609375 c 0
 1250.21875 807.0625 1255.84375 833.78125 1267.09375 857.765625 c 0
 1278.1875 881.75 1293.96875 901.90625 1314.125 918.234375 c 0
 1334.28125 934.5625 1358.65625 947.21875 1387.5625 956.125 c 0
 1416.3125 965.109375 1448.65625 969.5625 1484.4375 969.5625 c 0
 1535.0625 969.5625 1578.8125 960.8125 1616 943.234375 c 0
 1653.03125 925.578125 1684.75 900.1875 1711 866.90625 c 1
 1685.73925781 844.510742188 1660.47949219 822.114257812 1635.21875 799.71875 c 1
 1617.875 822.0625 1596.78125 840.03125 1571.78125 853.46875 c 0
 1546.9375 866.90625 1515.84375 873.625 1478.65625 873.625 c 0
 1440.375 873.625 1410.53125 865.890625 1389.4375 850.578125 c 0
 1368.34375 835.1875 1357.71875 812.765625 1357.71875 783.390625 c 0
 1357.71875 755.1875 1366.3125 734.25 1383.65625 720.5 c 0
 1401 706.75 1427.875 696.28125 1464.28125 689.25 c 1
 1484.125 685.109375 1503.96875 680.96875 1523.8125 676.828125 c 1
 1591 664.015625 1640.21875 642.21875 1671.15625 611.515625 c 0
 1702.25 580.8125 1717.71875 538.546875 1717.71875 484.796875 c 0
 1717.71875 453.46875 1712.25 424.953125 1701.46875 399.328125 c 0
 1690.53125 373.78125 1674.75 351.828125 1653.96875 333.625 c 0
 1633.03125 315.34375 1607.71875 301.28125 1577.5625 291.359375 c 0
 1547.5625 281.4375 1513.1875 276.515625 1474.90625 276.515625 c 0
EndSplineSet
EndChar

StartChar: uniF010
Encoding: 61456 61456 19
Width: 1792
Flags: W
HStem: 204.2 116.406<1160.36 1475.04> 575.001 112.793<1160.36 1447.48> 925.392 116.406<1160.36 1447.48>
VStem: 143.168 140.43<901.368 1041.8> 716.801 136.816<904.981 1041.8> 1024.81 135.547<320.606 575.001 687.794 925.392> 1475.98 142.773<714.386 898.799> 1505.96 142.871<349.11 546.498>
DStem2: 283.598 1041.8 143.168 1041.8 0.311738 -0.950168<0 736.986> 501.957 336.231 575.199 204.2 0.291293 0.956634<0 737.551>
LayerCount: 2
UndoRedoHistory
Layer: 1
Undoes
UndoOperation
Index: 0
Type: 12
WasModified: 0
WasOrder2: 0
Layer: 0
HStem: 204.2 116.406<497.172 501.957 1160.36 1475.04> 925.391 116.406<1160.36 1447.48>
VStem: 1024.81 135.547<320.606 575.001 687.794 925.391> 1505.96 142.871<349.109 546.498 714.386 898.799>
DStem2: 501.957 336.231 575.199 204.2 0.315431 0.948948<0 737.315>
EndUndoOperation
EndUndoes
Redoes
EndRedoes
EndUndoRedoHistory
Fore
SplineSet
417.97265625 204.200195312 m 1xfc
 326.37109375 483.399414062 234.76953125 762.598632812 143.16796875 1041.79785156 c 1
 189.977539062 1041.79785156 236.788085938 1041.79785156 283.59765625 1041.79785156 c 1
 327.999023438 903.809570312 372.399414062 765.821289062 416.80078125 627.833007812 c 1
 443.590820312 530.631835938 470.381835938 433.431640625 497.171875 336.231445312 c 1
 498.766601562 336.231445312 500.362304688 336.231445312 501.95703125 336.231445312 c 1
 529.170898438 433.431640625 556.383789062 530.631835938 583.59765625 627.833007812 c 1
 627.999023438 765.821289062 672.399414062 903.809570312 716.80078125 1041.79785156 c 1
 762.40625 1041.79785156 808.01171875 1041.79785156 853.6171875 1041.79785156 c 1
 760.811523438 762.598632812 668.004882812 483.399414062 575.19921875 204.200195312 c 1
 522.790039062 204.200195312 470.381835938 204.200195312 417.97265625 204.200195312 c 1xfc
1024.80859375 1041.79785156 m 1
 1148.40917969 1041.79785156 1272.00878906 1041.79785156 1395.609375 1041.79785156 c 1
 1465.140625 1041.79785156 1519.828125 1022.16894531 1559.37890625 983.008789062 c 0
 1599.02734375 943.848632812 1618.75390625 891.407226562 1618.75390625 825.782226562 c 0xfe
 1618.75390625 794.629882812 1614.359375 767.969726562 1605.5703125 745.997070312 c 0
 1596.78125 724.024414062 1585.55078125 705.958007812 1571.9765625 691.993164062 c 0
 1558.40234375 678.028320312 1542.77734375 667.579101562 1525.19921875 660.840820312 c 0
 1507.62109375 654.004882812 1490.43359375 649.805664062 1473.5390625 648.243164062 c 1
 1473.5390625 645.833984375 1473.5390625 643.424804688 1473.5390625 641.016601562 c 1
 1490.43359375 640.235351562 1508.98828125 636.231445312 1529.3984375 629.004882812 c 0
 1549.80859375 621.778320312 1568.75390625 610.352539062 1586.4296875 594.825195312 c 0
 1604.0078125 579.200195312 1618.75390625 559.180664062 1630.765625 534.766601562 c 0
 1642.77734375 510.352539062 1648.83203125 480.567382812 1648.83203125 445.411132812 c 0xfd
 1648.83203125 411.817382812 1643.36328125 380.176757812 1632.62109375 350.586914062 c 0
 1621.78125 320.997070312 1606.7421875 295.411132812 1587.6015625 273.829101562 c 0
 1568.36328125 252.247070312 1545.609375 235.157226562 1519.14453125 222.754882812 c 0
 1492.77734375 210.352539062 1463.96875 204.200195312 1432.81640625 204.200195312 c 1
 1296.81347656 204.200195312 1160.81152344 204.200195312 1024.80859375 204.200195312 c 1
 1024.80859375 483.399414062 1024.80859375 762.598632812 1024.80859375 1041.79785156 c 1
1160.35546875 320.606445312 m 1
 1237.95996094 320.606445312 1315.56347656 320.606445312 1393.16796875 320.606445312 c 1
 1428.421875 320.606445312 1455.9609375 329.786132812 1475.98046875 348.243164062 c 0xfe
 1496 366.602539062 1505.9609375 392.969726562 1505.9609375 427.442382812 c 1
 1505.9609375 441.016601562 1505.9609375 454.590820312 1505.9609375 468.165039062 c 1xfd
 1505.9609375 502.637695312 1496 529.004882812 1475.98046875 547.364257812 c 0
 1455.9609375 565.821289062 1428.421875 575.000976562 1393.16796875 575.000976562 c 1
 1315.56347656 575.000976562 1237.95996094 575.000976562 1160.35546875 575.000976562 c 1
 1160.35546875 490.202148438 1160.35546875 405.404296875 1160.35546875 320.606445312 c 1
1160.35546875 687.793945312 m 1
 1230.375 687.793945312 1300.39453125 687.793945312 1370.4140625 687.793945312 c 1
 1404.0078125 687.793945312 1429.984375 696.387695312 1448.34375 713.575195312 c 0
 1466.80078125 730.762695312 1475.98046875 755.372070312 1475.98046875 787.403320312 c 1
 1475.98046875 800.196289062 1475.98046875 812.989257812 1475.98046875 825.782226562 c 1
 1475.98046875 857.813476562 1466.80078125 882.422851562 1448.34375 899.610351562 c 0
 1429.984375 916.797851562 1404.0078125 925.391601562 1370.4140625 925.391601562 c 1
 1300.39453125 925.391601562 1230.375 925.391601562 1160.35546875 925.391601562 c 1
 1160.35546875 846.192382812 1160.35546875 766.993164062 1160.35546875 687.793945312 c 1
EndSplineSet
EndChar

StartChar: uniF011
Encoding: 61457 61457 20
Width: 1792
Flags: W
HStem: -142.66 88.2812<529.736 717.81 1048.08 1247.08> 171.246 92.1094<1077.25 1236.62> 204.84 87.3438<550.762 718.015> 459.215 91.1719<1056.64 1244.29> 734.84 90.2344<1027.95 1216.16 1322.72 1485.92> 1326.17 78.75<1171.98 1216.16>
VStem: 306.078 103.672<734.84 1247.5> 387.641 112.344<-22.2222 172.609> 722.719 103.672<892.262 1404.92> 747.641 111.406<-22.2222 172.609> 1216.16 106.562<825.074 1326.17> 1267.33 114.219<290.593 433.991> 1280.77 112.344<-21.2704 143.523>
DStem2: 645.922 1034.37 486.547 1105.39 0.508638 -0.860981<-299.653 157.446> 986.703 1219.61 1052.95 1160.15 0.683543 0.72991<1.41729 229.335>
LayerCount: 2
UndoRedoHistory
Layer: 1
Undoes
UndoOperation
Index: 0
Type: 12
WasModified: 0
WasOrder2: 0
Layer: 0
HStem: -142.66 88.2812<529.736 717.81 1048.08 1247.08> 171.246 92.1094<1077.25 1236.62> 204.84 87.3438<550.762 718.015> 459.215 91.1719<1056.64 1244.29> 734.84 90.2344<1027.95 1216.16 1322.72 1485.92> 1326.17 78.75<1171.98 1216.16>
VStem: 306.078 103.672<734.84 1247.5> 387.641 112.344<-22.2222 172.609> 722.719 103.672<892.262 1404.92> 747.641 111.406<-22.2222 172.609> 1216.16 106.562<825.074 1326.17> 1267.33 114.219<290.593 433.991> 1280.77 112.344<-21.2704 143.523>
DStem2: 645.922 1034.37 486.547 1105.39 0.508638 -0.860981<-299.653 157.446> 986.703 1219.61 1052.95 1160.15 0.683543 0.72991<1.41729 229.335>
EndUndoOperation
EndUndoes
Redoes
EndRedoes
EndUndoRedoHistory
Fore
SplineSet
623.8125 -142.66015625 m 0xbd40
 586.703125 -142.66015625 553.578125 -136.64453125 524.4375 -124.45703125 c 0
 495.296875 -112.26953125 470.6875 -94.84765625 450.53125 -72.11328125 c 0
 430.375 -49.37890625 414.828125 -22.03515625 403.96875 9.91796875 c 0
 393.109375 41.94921875 387.640625 78.12109375 387.640625 118.43359375 c 0xbd40
 387.640625 167.02734375 394.984375 212.80859375 409.75 255.69921875 c 0xbe
 424.4375 298.58984375 443.34375 337.96484375 466.390625 373.74609375 c 0
 489.4375 409.60546875 515.140625 441.48046875 543.65625 469.29296875 c 0
 572.09375 497.10546875 600.140625 520.30859375 627.640625 538.90234375 c 1
 675.635742188 538.90234375 723.629882812 538.90234375 771.625 538.90234375 c 1
 733.890625 511.40234375 699.984375 484.83984375 669.90625 459.21484375 c 0
 639.828125 433.58984375 613.578125 407.41796875 591.15625 380.54296875 c 0
 568.734375 353.58984375 550.0625 325.15234375 534.984375 295.07421875 c 0
 519.984375 264.99609375 508.265625 232.02734375 499.984375 196.16796875 c 1
 502.223632812 195.54296875 504.463867188 194.91796875 506.703125 194.29296875 c 1
 513.734375 207.73046875 521.859375 220.30859375 531.15625 232.18359375 c 0
 540.453125 244.05859375 551.3125 254.44921875 563.8125 263.35546875 c 0xdd
 576.3125 272.33984375 590.53125 279.37109375 606.546875 284.52734375 c 0
 622.5625 289.60546875 641.078125 292.18359375 662.171875 292.18359375 c 0
 690.375 292.18359375 716.46875 287.41796875 740.453125 277.80859375 c 0
 764.4375 268.19921875 785.21875 254.29296875 802.875 236.01171875 c 0
 820.453125 217.80859375 834.203125 195.85546875 844.125 170.23046875 c 0
 854.046875 144.68359375 859.046875 116.16796875 859.046875 84.83984375 c 0
 859.046875 50.93359375 853.421875 19.99609375 842.171875 -7.81640625 c 0
 831 -35.62890625 815.140625 -59.45703125 794.671875 -79.30078125 c 0
 774.203125 -99.14453125 749.4375 -114.69140625 720.296875 -125.86328125 c 0
 691.15625 -137.11328125 659.046875 -142.66015625 623.8125 -142.66015625 c 0xbd40
623.8125 -54.37890625 m 256
 662.875 -54.37890625 693.265625 -43.98828125 714.984375 -23.20703125 c 0
 736.78125 -2.34765625 747.640625 28.19921875 747.640625 68.51171875 c 1
 747.640625 72.9912109375 747.640625 77.470703125 747.640625 81.94921875 c 1
 747.640625 122.26171875 736.78125 152.80859375 714.984375 173.58984375 c 0
 693.265625 194.44921875 662.875 204.83984375 623.8125 204.83984375 c 256
 584.75 204.83984375 554.359375 194.44921875 532.640625 173.58984375 c 0
 510.84375 152.80859375 499.984375 122.26171875 499.984375 81.94921875 c 1
 499.984375 77.470703125 499.984375 72.9912109375 499.984375 68.51171875 c 1
 499.984375 28.19921875 510.84375 -2.34765625 532.640625 -23.20703125 c 0
 554.359375 -43.98828125 584.75 -54.37890625 623.8125 -54.37890625 c 256
1145.375 263.35546875 m 1xdc08
 1187.015625 263.35546875 1217.71875 272.18359375 1237.5625 289.76171875 c 0
 1257.40625 307.41796875 1267.328125 329.918945312 1267.328125 357.49609375 c 1
 1267.328125 359.736328125 1267.328125 361.975585938 1267.328125 364.21484375 c 1
 1267.328125 394.918945312 1257.71875 418.43359375 1238.5 434.76171875 c 0
 1219.359375 451.08984375 1193.421875 459.21484375 1160.765625 459.21484375 c 0
 1128.734375 459.21484375 1101.546875 452.02734375 1079.203125 437.65234375 c 0
 1056.78125 423.19921875 1037.875 403.19921875 1022.5625 377.65234375 c 1
 998.551757812 398.43359375 974.541992188 419.21484375 950.53125 439.99609375 c 1
 960.765625 454.76171875 972.328125 468.82421875 985.0625 482.26171875 c 0
 997.875 495.69921875 1012.953125 507.41796875 1030.21875 517.33984375 c 0
 1047.484375 527.26171875 1067.015625 535.23046875 1088.734375 541.32421875 c 0
 1110.53125 547.41796875 1135.453125 550.38671875 1163.65625 550.38671875 c 0
 1194.984375 550.38671875 1224.125 546.55859375 1251 538.90234375 c 0
 1277.875 531.24609375 1300.921875 519.83984375 1320.140625 504.83984375 c 0
 1339.359375 489.76171875 1354.359375 471.55859375 1365.21875 450.07421875 c 0
 1376.15625 428.66796875 1381.546875 404.528320312 1381.546875 377.65234375 c 0xdc10
 1381.546875 356.48046875 1378.1875 337.33984375 1371.46875 319.99609375 c 0
 1364.75 302.73046875 1355.453125 287.575195312 1343.65625 274.44921875 c 0
 1331.78125 261.325195312 1318.03125 250.622070312 1302.40625 242.26171875 c 0
 1286.703125 233.981445312 1270.21875 227.88671875 1252.953125 224.05859375 c 1
 1252.953125 222.444335938 1252.953125 220.830078125 1252.953125 219.21484375 c 1
 1272.09375 215.387695312 1290.21875 209.137695312 1307.171875 200.54296875 c 0
 1324.125 191.87109375 1339.046875 180.69921875 1351.78125 166.87109375 c 0
 1364.59375 153.12109375 1374.671875 136.79296875 1382.015625 117.96484375 c 0
 1389.4375 99.05859375 1393.109375 77.4970703125 1393.109375 53.12109375 c 0
 1393.109375 23.66796875 1387.328125 -3.0498046875 1375.84375 -27.03515625 c 0
 1364.28125 -51.0185546875 1348.109375 -71.6435546875 1327.328125 -88.91015625 c 0
 1306.546875 -106.252929688 1281.390625 -119.456054688 1251.9375 -128.75390625 c 0
 1222.5625 -138.049804688 1189.90625 -142.66015625 1154.046875 -142.66015625 c 0
 1122.71875 -142.66015625 1095.140625 -139.299804688 1071.46875 -132.58203125 c 0
 1047.796875 -125.862304688 1026.859375 -116.95703125 1008.578125 -105.70703125 c 0
 990.375 -94.53515625 974.359375 -81.72265625 960.609375 -67.34765625 c 0
 946.859375 -52.97265625 934.828125 -38.05078125 924.59375 -22.66015625 c 1
 951.15625 -1.87890625 977.71875 18.90234375 1004.28125 39.68359375 c 1
 1012.640625 26.24609375 1021.390625 13.98046875 1030.6875 2.73046875 c 0
 1039.984375 -8.44140625 1050.53125 -18.05078125 1062.40625 -26.01953125 c 0
 1074.203125 -34.0654296875 1087.640625 -40.3154296875 1102.71875 -44.76953125 c 0
 1117.71875 -49.22265625 1134.828125 -51.48828125 1154.046875 -51.48828125 c 0
 1194.984375 -51.48828125 1226.390625 -41.72265625 1248.109375 -22.19140625 c 0
 1269.90625 -2.66015625 1280.765625 24.37109375 1280.765625 58.90234375 c 1
 1280.765625 61.142578125 1280.765625 63.3818359375 1280.765625 65.62109375 c 1
 1280.765625 100.153320312 1269.28125 126.40234375 1246.234375 144.37109375 c 0
 1223.1875 162.26171875 1190.53125 171.24609375 1148.265625 171.24609375 c 1
 1124.59375 171.24609375 1100.921875 171.24609375 1077.25 171.24609375 c 1
 1077.25 201.94921875 1077.25 232.65234375 1077.25 263.35546875 c 1
 1099.95800781 263.35546875 1122.66699219 263.35546875 1145.375 263.35546875 c 1xdc08
486.546875 1105.38671875 m 1
 461.911132812 1152.75683594 437.276367188 1200.12695312 412.640625 1247.49609375 c 1
 411.676757812 1247.49609375 410.713867188 1247.49609375 409.75 1247.49609375 c 1
 409.75 1076.61132812 409.75 905.725585938 409.75 734.83984375 c 1
 375.192382812 734.83984375 340.635742188 734.83984375 306.078125 734.83984375 c 1
 306.078125 958.19921875 306.078125 1181.55859375 306.078125 1404.91796875 c 1
 346.390625 1404.91796875 386.703125 1404.91796875 427.015625 1404.91796875 c 1
 499.984375 1281.40234375 572.953125 1157.88671875 645.921875 1034.37109375 c 1
 670.557617188 987.001953125 695.192382812 939.631835938 719.828125 892.26171875 c 1
 720.791992188 892.26171875 721.754882812 892.26171875 722.71875 892.26171875 c 1
 722.71875 1063.14746094 722.71875 1234.03320312 722.71875 1404.91796875 c 1
 757.276367188 1404.91796875 791.833007812 1404.91796875 826.390625 1404.91796875 c 1
 826.390625 1181.55859375 826.390625 958.19921875 826.390625 734.83984375 c 1x9e80
 786.078125 734.83984375 745.765625 734.83984375 705.453125 734.83984375 c 1
 632.484375 858.35546875 559.515625 981.87109375 486.546875 1105.38671875 c 1
1027.953125 734.83984375 m 1
 1027.953125 764.91796875 1027.953125 794.99609375 1027.953125 825.07421875 c 1
 1090.6875 825.07421875 1153.421875 825.07421875 1216.15625 825.07421875 c 1
 1216.15625 992.10546875 1216.15625 1159.13671875 1216.15625 1326.16796875 c 1
 1213.578125 1326.16796875 1211 1326.16796875 1208.421875 1326.16796875 c 1
 1156.59863281 1270.83007812 1104.77636719 1215.49121094 1052.953125 1160.15234375 c 1
 1030.87011719 1179.97070312 1008.78613281 1199.78808594 986.703125 1219.60546875 c 1
 1043.65625 1281.37695312 1100.609375 1343.14746094 1157.5625 1404.91796875 c 1
 1212.61425781 1404.91796875 1267.66699219 1404.91796875 1322.71875 1404.91796875 c 1
 1322.71875 1211.63671875 1322.71875 1018.35546875 1322.71875 825.07421875 c 1x9c20
 1377.12011719 825.07421875 1431.52050781 825.07421875 1485.921875 825.07421875 c 1
 1485.921875 794.99609375 1485.921875 764.91796875 1485.921875 734.83984375 c 1
 1333.265625 734.83984375 1180.609375 734.83984375 1027.953125 734.83984375 c 1
EndSplineSet
EndChar

StartChar: uniF012
Encoding: 61458 61458 21
Width: 1792
Flags: W
HStem: 276.516 96.9531<151.634 379.752 774.678 990.363 1414.68 1630.36> 872.609 96.9531<178.808 399.181 774.597 989.432 1414.6 1629.43>
VStem: 47.4062 107.5<716.387 852.68> 407.406 107.5<399.565 546.758> 601.625 115.156<435.807 813.111> 1241.62 115.156<435.807 813.111>
DStem2: 261.469 689.25 243.188 586.594 0.978916 -0.204262<-84.3815 149.558>
LayerCount: 2
UndoRedoHistory
Layer: 1
Undoes
UndoOperation
Index: 0
Type: 12
WasModified: 0
WasOrder2: 0
Layer: 0
HStem: 276.516 96.9531<151.634 379.752 774.678 990.363 1414.68 1630.36> 872.609 96.9531<178.808 399.181 774.597 989.432 1414.6 1629.43>
VStem: 47.4062 107.5<716.387 852.68> 407.406 107.5<399.565 546.758> 601.625 115.156<435.807 813.111> 1241.62 115.156<435.807 813.111>
DStem2: 261.469 689.25 243.188 586.594 0.978916 -0.204262<-84.3815 149.558>
EndUndoOperation
EndUndoes
Redoes
EndRedoes
EndUndoRedoHistory
Fore
SplineSet
271.9375 276.515625 m 0
 215.6875 276.515625 167.875 286.75 128.5 307.21875 c 0
 89.125 327.6875 55.375 355.1875 27.25 389.796875 c 1
 52.1982421875 413.15625 77.1455078125 436.515625 102.09375 459.875 c 1
 125.6875 431.046875 151.78125 409.25 180.21875 394.5625 c 0
 208.8125 379.875 241.3125 372.453125 277.71875 372.453125 c 0
 320.6875 372.453125 352.875 382.0625 374.75 401.28125 c 0
 396.46875 420.5 407.40625 446.4375 407.40625 479.015625 c 0
 407.40625 505.265625 399.59375 526.046875 384.28125 541.4375 c 0
 368.96875 556.828125 341.78125 568.3125 302.71875 575.96875 c 1
 282.875 579.510742188 263.03125 583.051757812 243.1875 586.59375 c 1
 177.875 598.703125 128.96875 620.1875 96.3125 650.890625 c 0
 63.65625 681.59375 47.40625 723.859375 47.40625 777.609375 c 0
 47.40625 807.0625 52.875 833.78125 64.125 857.765625 c 0
 75.375 881.75 91 901.90625 111.15625 918.234375 c 0
 131.3125 934.5625 155.84375 947.21875 184.59375 956.125 c 0
 213.34375 965.109375 245.6875 969.5625 281.625 969.5625 c 0
 332.09375 969.5625 376 960.8125 413.03125 943.234375 c 0
 450.21875 925.578125 481.9375 900.1875 508.1875 866.90625 c 1
 482.875 844.510742188 457.5625 822.114257812 432.25 799.71875 c 1
 415.0625 822.0625 393.96875 840.03125 368.96875 853.46875 c 0
 343.96875 866.90625 312.875 873.625 275.84375 873.625 c 0
 237.40625 873.625 207.71875 865.890625 186.46875 850.578125 c 0
 165.375 835.1875 154.90625 812.765625 154.90625 783.390625 c 0
 154.90625 755.1875 163.5 734.25 180.84375 720.5 c 0
 198.03125 706.75 224.90625 696.28125 261.46875 689.25 c 1
 281.3125 685.109375 301.15625 680.96875 321 676.828125 c 1
 388.1875 664.015625 437.25 642.21875 468.34375 611.515625 c 0
 499.28125 580.8125 514.90625 538.546875 514.90625 484.796875 c 0
 514.90625 453.46875 509.4375 424.953125 498.5 399.328125 c 0
 487.71875 373.78125 471.78125 351.828125 451 333.625 c 0
 430.21875 315.34375 404.75 301.28125 374.75 291.359375 c 0
 344.59375 281.4375 310.375 276.515625 271.9375 276.515625 c 0
882.875 276.515625 m 0
 795.21875 276.515625 726.3125 306.046875 676.46875 365.265625 c 0
 626.46875 424.484375 601.625 510.421875 601.625 623.078125 c 0
 601.625 679.328125 608.03125 728.9375 620.84375 771.828125 c 0
 633.5 814.71875 652.09375 850.890625 676.46875 880.34375 c 0
 700.84375 909.796875 730.375 931.984375 765.21875 947.0625 c 0
 800.0625 962.0625 839.28125 969.5625 882.875 969.5625 c 0
 941.15625 969.5625 989.90625 956.828125 1029.28125 931.203125 c 0
 1068.65625 905.578125 1099.4375 867.84375 1121.9375 817.921875 c 1
 1091.52050781 801.28125 1061.10449219 784.640625 1030.6875 768 c 1
 1019.125 800.03125 1001.46875 825.421875 977.40625 844.328125 c 0
 953.34375 863.234375 921.9375 872.609375 882.875 872.609375 c 0
 831 872.609375 790.375 855.03125 761 819.875 c 0
 731.46875 784.640625 716.78125 735.96875 716.78125 673.9375 c 1
 716.78125 640.004882812 716.78125 606.073242188 716.78125 572.140625 c 1
 716.78125 510.109375 731.46875 461.4375 761 426.203125 c 0
 790.375 391.046875 831 373.46875 882.875 373.46875 c 0
 923.1875 373.46875 956 383.859375 981.3125 404.640625 c 0
 1006.46875 425.421875 1025.21875 452.140625 1037.40625 484.796875 c 1
 1066.52050781 467.192382812 1095.63574219 449.588867188 1124.75 431.984375 c 1
 1102.40625 383.390625 1071 345.265625 1030.6875 317.765625 c 0
 990.375 290.265625 941.15625 276.515625 882.875 276.515625 c 0
1522.875 276.515625 m 0
 1435.21875 276.515625 1366.3125 306.046875 1316.46875 365.265625 c 0
 1266.46875 424.484375 1241.625 510.421875 1241.625 623.078125 c 0
 1241.625 679.328125 1248.03125 728.9375 1260.84375 771.828125 c 0
 1273.5 814.71875 1292.09375 850.890625 1316.46875 880.34375 c 0
 1340.84375 909.796875 1370.375 931.984375 1405.21875 947.0625 c 0
 1440.0625 962.0625 1479.28125 969.5625 1522.875 969.5625 c 0
 1581.15625 969.5625 1629.90625 956.828125 1669.28125 931.203125 c 0
 1708.65625 905.578125 1739.4375 867.84375 1761.9375 817.921875 c 1
 1731.52050781 801.28125 1701.10449219 784.640625 1670.6875 768 c 1
 1659.125 800.03125 1641.46875 825.421875 1617.40625 844.328125 c 0
 1593.34375 863.234375 1561.9375 872.609375 1522.875 872.609375 c 0
 1471 872.609375 1430.375 855.03125 1401 819.875 c 0
 1371.46875 784.640625 1356.78125 735.96875 1356.78125 673.9375 c 1
 1356.78125 640.004882812 1356.78125 606.073242188 1356.78125 572.140625 c 1
 1356.78125 510.109375 1371.46875 461.4375 1401 426.203125 c 0
 1430.375 391.046875 1471 373.46875 1522.875 373.46875 c 0
 1563.1875 373.46875 1596 383.859375 1621.3125 404.640625 c 0
 1646.46875 425.421875 1665.21875 452.140625 1677.40625 484.796875 c 1
 1706.52050781 467.192382812 1735.63574219 449.588867188 1764.75 431.984375 c 1
 1742.40625 383.390625 1711 345.265625 1670.6875 317.765625 c 0
 1630.375 290.265625 1581.15625 276.515625 1522.875 276.515625 c 0
EndSplineSet
EndChar

StartChar: uniF013
Encoding: 61459 61459 22
Width: 1792
Flags: W
HStem: 288 89.2969<228.172 451.245 1380.3 1712.48> 558.703 90.2344<848.188 1057.36> 868.781 89.2969<228.172 451.245 848.188 1057.36 1280.45 1586.7>
VStem: 79.5156 109.453<414.775 831.303> 490.375 109.453<414.775 831.303> 746.391 101.797<288 558.703 648.938 867.844> 1076.62 108.516<668.279 848.506>
DStem2: 1265.14 379.172 1380.3 377.297 0.548962 0.835847<61.6492 585.764>
LayerCount: 2
UndoRedoHistory
Layer: 1
Undoes
UndoOperation
Index: 0
Type: 12
WasModified: 0
WasOrder2: 0
Layer: 0
HStem: 288 89.2969<228.172 451.245 1380.3 1712.48> 558.703 90.2344<848.188 1057.36> 868.781 89.2969<228.172 451.245 848.188 1057.36 1280.45 1586.7>
VStem: 79.5156 109.453<414.775 831.303> 490.375 109.453<414.775 831.303> 746.391 101.797<288 558.703 648.938 867.844> 1076.62 108.516<668.279 848.506>
DStem2: 1265.14 379.172 1380.3 377.297 0.548962 0.835847<61.6492 585.764>
EndUndoOperation
EndUndoes
Redoes
EndRedoes
EndUndoRedoHistory
Fore
SplineSet
339.671875 276.515625 m 256
 299.359375 276.515625 263.1875 283.078125 231.234375 296.125 c 0
 199.203125 309.25 171.859375 329.953125 149.125 358.078125 c 0
 126.390625 386.203125 109.125 422.21875 97.25 466.046875 c 0
 85.453125 509.953125 79.515625 562.21875 79.515625 623.078125 c 256
 79.515625 683.859375 85.453125 736.125 97.25 780.03125 c 0
 109.125 823.859375 126.390625 859.875 149.125 888 c 0
 171.859375 916.125 199.203125 936.828125 231.234375 949.953125 c 0
 263.1875 963.078125 299.359375 969.5625 339.671875 969.5625 c 256
 379.984375 969.5625 416.15625 963.078125 448.1875 949.953125 c 0
 480.140625 936.828125 507.5625 916.125 530.21875 888 c 0
 552.953125 859.875 570.21875 823.859375 582.09375 780.03125 c 0
 593.890625 736.125 599.828125 683.859375 599.828125 623.078125 c 256
 599.828125 562.21875 593.890625 509.953125 582.09375 466.046875 c 0
 570.21875 422.21875 552.953125 386.203125 530.21875 358.078125 c 0
 507.5625 329.953125 480.140625 309.25 448.1875 296.125 c 0
 416.15625 283.078125 379.984375 276.515625 339.671875 276.515625 c 256
339.671875 366.75 m 256
 387.71875 366.75 424.828125 382.21875 451.078125 413.3125 c 0
 477.25 444.328125 490.375 487.375 490.375 542.375 c 1
 490.375 596.151367188 490.375 649.926757812 490.375 703.703125 c 1
 490.375 758.703125 477.25 801.75 451.078125 832.765625 c 0
 424.828125 863.859375 387.71875 879.328125 339.671875 879.328125 c 256
 291.703125 879.328125 254.59375 863.859375 228.34375 832.765625 c 0
 202.09375 801.75 188.96875 758.703125 188.96875 703.703125 c 1
 188.96875 649.926757812 188.96875 596.151367188 188.96875 542.375 c 1
 188.96875 487.375 202.09375 444.328125 228.34375 413.3125 c 0
 254.59375 382.21875 291.703125 366.75 339.671875 366.75 c 256
746.390625 288 m 1
 746.390625 511.359375 746.390625 734.71875 746.390625 958.078125 c 1
 834.723632812 958.078125 923.057617188 958.078125 1011.390625 958.078125 c 1
 1068.96875 958.078125 1112.328125 940.96875 1141.46875 906.75 c 0
 1170.53125 872.453125 1185.140625 823.078125 1185.140625 758.390625 c 256
 1185.140625 693.78125 1170.53125 644.328125 1141.46875 610.109375 c 0
 1112.328125 575.8125 1068.96875 558.703125 1011.390625 558.703125 c 1
 956.989257812 558.703125 902.588867188 558.703125 848.1875 558.703125 c 1
 848.1875 468.46875 848.1875 378.234375 848.1875 288 c 1
 814.254882812 288 780.323242188 288 746.390625 288 c 1
848.1875 648.9375 m 1
 899.698242188 648.9375 951.208007812 648.9375 1002.71875 648.9375 c 1
 1027.015625 648.9375 1045.453125 655.1875 1057.953125 667.6875 c 0
 1070.375 680.1875 1076.625 700.1875 1076.625 727.6875 c 1
 1076.625 748.15625 1076.625 768.625 1076.625 789.09375 c 1
 1076.625 816.671875 1070.375 836.671875 1057.953125 849.09375 c 0
 1045.453125 861.59375 1027.015625 867.84375 1002.71875 867.84375 c 1
 951.208007812 867.84375 899.698242188 867.84375 848.1875 867.84375 c 1
 848.1875 794.875 848.1875 721.90625 848.1875 648.9375 c 1
1712.484375 288 m 1
 1563.37011719 288 1414.25488281 288 1265.140625 288 c 1
 1265.140625 318.390625 1265.140625 348.78125 1265.140625 379.171875 c 1
 1372.328125 542.375 1479.515625 705.578125 1586.703125 868.78125 c 1
 1484.62011719 868.78125 1382.53613281 868.78125 1280.453125 868.78125 c 1
 1280.453125 898.546875 1280.453125 928.3125 1280.453125 958.078125 c 1
 1420.94824219 958.078125 1561.44238281 958.078125 1701.9375 958.078125 c 1
 1701.9375 927.6875 1701.9375 897.296875 1701.9375 866.90625 c 1
 1594.72363281 703.703125 1487.51074219 540.5 1380.296875 377.296875 c 1
 1491.02636719 377.296875 1601.75488281 377.296875 1712.484375 377.296875 c 1
 1712.484375 347.53125 1712.484375 317.765625 1712.484375 288 c 1
EndSplineSet
EndChar

StartChar: uniF014
Encoding: 61460 61460 23
Width: 1792
Flags: W
HStem: -142.516 96.0156<794.758 1115.46> 149.359 95.9375<794.758 1085.7> 431.547 96.0156<794.758 1115.46> 712.016 96.9531<1094.81 1318.51> 990.375 95.0781<415.93 652.317> 1298.58 95<415.93 652.317 1084.89 1328.46>
VStem: 46.3203 108.438<-142.516 109.388 187.719 527.562> 307.492 108.438<723.5 990.375 1085.45 1298.58> 435.07 126.719<400.844 527.562> 450.461 130.547<-142.516 -11.9688> 686.32 108.438<-46.5 149.359 245.297 431.547 1107.69 1276.26> 917.727 116.172<872.663 1244.42> 1379.45 116.172<872.662 1244.42> 1404.68 108.516<-142.516 184.921>
DStem2: 158.586 187.719 246.945 170.453 0.660468 0.750854<0 45.3946 144.153 437.782> 322.805 245.297 246.945 170.453 0.545149 -0.838339<21.3897 394.71> 1298.12 527.562 1174.29 527.562 0.479608 -0.877483<0 340.284> 1464.21 228.969 1513.2 123.422 0.477483 0.878641<0 339.836>
LayerCount: 2
UndoRedoHistory
Layer: 1
Undoes
UndoOperation
Index: 0
Type: 12
WasModified: 0
WasOrder2: 0
Layer: 0
HStem: -142.516 96.0156<794.758 1115.46> 149.359 95.9375<794.758 1085.7> 431.547 96.0156<794.758 1115.46> 712.016 96.9531<1094.81 1318.51> 990.375 95.0781<415.93 652.317> 1298.58 95<415.93 652.317 1084.89 1328.46>
VStem: 46.3203 108.438<-142.516 109.388 187.719 527.562> 307.492 108.438<723.5 990.375 1085.45 1298.58> 435.07 126.719<400.844 527.562> 450.461 130.547<-142.516 -11.9688> 686.32 108.438<-46.5 149.359 245.297 431.547 1107.69 1276.26> 917.727 116.172<872.663 1244.42> 1379.45 116.172<872.662 1244.42> 1404.68 108.516<-142.516 184.921>
DStem2: 158.586 187.719 246.945 170.453 0.660468 0.750854<0 45.3946 144.153 437.782> 322.805 245.297 246.945 170.453 0.545149 -0.838339<21.3897 394.71> 1298.12 527.562 1174.29 527.562 0.479608 -0.877483<0 340.284> 1464.21 228.969 1513.2 123.422 0.477483 0.878641<0 339.836>
EndUndoOperation
EndUndoes
Redoes
EndRedoes
EndUndoRedoHistory
Fore
SplineSet
246.9453125 170.453125 m 1xff70
 216.215820312 135.244140625 185.487304688 100.036132812 154.7578125 64.828125 c 1
 154.7578125 -4.287109375 154.7578125 -73.4013671875 154.7578125 -142.515625 c 1
 118.612304688 -142.515625 82.4658203125 -142.515625 46.3203125 -142.515625 c 1
 46.3203125 80.84375 46.3203125 304.203125 46.3203125 527.5625 c 1
 82.4658203125 527.5625 118.612304688 527.5625 154.7578125 527.5625 c 1
 154.7578125 414.28125 154.7578125 301 154.7578125 187.71875 c 1
 156.034179688 187.71875 157.309570312 187.71875 158.5859375 187.71875 c 1
 190.590820312 228.369140625 222.596679688 269.020507812 254.6015625 309.671875 c 1
 314.7578125 382.301757812 374.9140625 454.931640625 435.0703125 527.5625 c 1
 477.309570312 527.5625 519.549804688 527.5625 561.7890625 527.5625 c 1xffb0
 482.127929688 433.473632812 402.465820312 339.384765625 322.8046875 245.296875 c 1
 408.872070312 116.025390625 494.940429688 -13.2451171875 581.0078125 -142.515625 c 1
 537.4921875 -142.515625 493.9765625 -142.515625 450.4609375 -142.515625 c 1
 382.622070312 -38.193359375 314.784179688 66.1298828125 246.9453125 170.453125 c 1xff70
686.3203125 -142.515625 m 1
 686.3203125 80.84375 686.3203125 304.203125 686.3203125 527.5625 c 1
 829.3671875 527.5625 972.4140625 527.5625 1115.4609375 527.5625 c 1
 1115.4609375 495.556640625 1115.4609375 463.551757812 1115.4609375 431.546875 c 1
 1008.55957031 431.546875 901.659179688 431.546875 794.7578125 431.546875 c 1
 794.7578125 369.462890625 794.7578125 307.379882812 794.7578125 245.296875 c 1
 891.737304688 245.296875 988.715820312 245.296875 1085.6953125 245.296875 c 1
 1085.6953125 213.317382812 1085.6953125 181.337890625 1085.6953125 149.359375 c 1
 988.715820312 149.359375 891.737304688 149.359375 794.7578125 149.359375 c 1
 794.7578125 84.072265625 794.7578125 18.7861328125 794.7578125 -46.5 c 1
 901.659179688 -46.5 1008.55957031 -46.5 1115.4609375 -46.5 c 1
 1115.4609375 -78.505859375 1115.4609375 -110.510742188 1115.4609375 -142.515625 c 1
 972.4140625 -142.515625 829.3671875 -142.515625 686.3203125 -142.515625 c 1
1404.6796875 -142.515625 m 1xff34
 1404.6796875 -54.521484375 1404.6796875 33.4736328125 1404.6796875 121.46875 c 1
 1327.8828125 256.833007812 1251.0859375 392.197265625 1174.2890625 527.5625 c 1
 1215.56542969 527.5625 1256.84082031 527.5625 1298.1171875 527.5625 c 1
 1352.51855469 428.03125 1406.91894531 328.5 1461.3203125 228.96875 c 1
 1462.28417969 228.96875 1463.24707031 228.96875 1464.2109375 228.96875 c 1
 1518.29980469 328.5 1572.38769531 428.03125 1626.4765625 527.5625 c 1
 1666.1640625 527.5625 1705.8515625 527.5625 1745.5390625 527.5625 c 1
 1668.09082031 392.848632812 1590.64355469 258.134765625 1513.1953125 123.421875 c 1
 1513.1953125 34.775390625 1513.1953125 -53.8701171875 1513.1953125 -142.515625 c 1
 1477.0234375 -142.515625 1440.8515625 -142.515625 1404.6796875 -142.515625 c 1xff34
307.4921875 723.5 m 1
 307.4921875 946.859375 307.4921875 1170.21875 307.4921875 1393.578125 c 1
 403.481445312 1393.578125 499.471679688 1393.578125 595.4609375 1393.578125 c 1
 657.5703125 1393.578125 705.5390625 1375.375 739.4453125 1338.890625 c 0
 773.4296875 1302.40625 790.3828125 1253.421875 790.3828125 1192.015625 c 256
 790.3828125 1130.53125 773.4296875 1081.546875 739.4453125 1045.0625 c 0
 705.5390625 1008.65625 657.5703125 990.375 595.4609375 990.375 c 1
 535.6171875 990.375 475.7734375 990.375 415.9296875 990.375 c 1
 415.9296875 901.416015625 415.9296875 812.458007812 415.9296875 723.5 c 1
 379.784179688 723.5 343.637695312 723.5 307.4921875 723.5 c 1
415.9296875 1085.453125 m 1
 473.534179688 1085.453125 531.137695312 1085.453125 588.7421875 1085.453125 c 1
 616.2421875 1085.453125 637.7265625 1092.640625 653.0390625 1107.015625 c 0
 668.4296875 1121.390625 676.0859375 1142.09375 676.0859375 1168.96875 c 1
 676.0859375 1184.30664062 676.0859375 1199.64550781 676.0859375 1214.984375 c 1
 676.0859375 1241.9375 668.4296875 1262.5625 653.0390625 1276.9375 c 0
 637.7265625 1291.3125 616.2421875 1298.578125 588.7421875 1298.578125 c 1
 531.137695312 1298.578125 473.534179688 1298.578125 415.9296875 1298.578125 c 1
 415.9296875 1227.53613281 415.9296875 1156.49414062 415.9296875 1085.453125 c 1
1206.7109375 712.015625 m 256
 1163.1171875 712.015625 1123.6640625 719.515625 1088.1171875 734.515625 c 0
 1052.5703125 749.59375 1022.1796875 771.624023438 996.9453125 800.765625 c 0
 971.6328125 829.90625 952.1015625 866.078125 938.3515625 909.28125 c 0
 924.6015625 952.484375 917.7265625 1002.25 917.7265625 1058.578125 c 256
 917.7265625 1114.828125 924.6015625 1164.59375 938.3515625 1207.796875 c 0
 952.1015625 1251 971.6328125 1287.171875 996.9453125 1316.3125 c 0
 1022.1796875 1345.453125 1052.5703125 1367.48339844 1088.1171875 1382.5625 c 0
 1123.6640625 1397.56152344 1163.1171875 1405.0625 1206.7109375 1405.0625 c 256
 1250.2265625 1405.0625 1289.6796875 1397.5625 1325.2265625 1382.5625 c 0
 1360.7734375 1367.48339844 1391.1640625 1345.45214844 1416.3984375 1316.3125 c 0
 1441.7109375 1287.171875 1461.2421875 1251 1474.9921875 1207.796875 c 0
 1488.7421875 1164.59375 1495.6171875 1114.82714844 1495.6171875 1058.578125 c 256xff38
 1495.6171875 1002.25 1488.7421875 952.483398438 1474.9921875 909.28125 c 0
 1461.2421875 866.077148438 1441.7109375 829.905273438 1416.3984375 800.765625 c 0
 1391.1640625 771.625 1360.7734375 749.59375 1325.2265625 734.515625 c 0
 1289.6796875 719.515625 1250.2265625 712.015625 1206.7109375 712.015625 c 256
1206.7109375 808.96875 m 0
 1232.2578125 808.96875 1255.7734375 813.421875 1277.2578125 822.40625 c 0
 1298.6640625 831.3125 1316.9453125 844.28125 1331.9453125 861.234375 c 0
 1347.0234375 878.186523438 1358.6640625 898.890625 1367.0234375 923.1875 c 0
 1375.3046875 947.484375 1379.4453125 974.983398438 1379.4453125 1005.765625 c 1
 1379.4453125 1040.94726562 1379.4453125 1076.12988281 1379.4453125 1111.3125 c 1
 1379.4453125 1142.09375 1375.3046875 1169.59277344 1367.0234375 1193.890625 c 0
 1358.6640625 1218.18652344 1347.0234375 1238.890625 1331.9453125 1255.84375 c 0
 1316.9453125 1272.79589844 1298.6640625 1285.76464844 1277.2578125 1294.671875 c 0
 1255.7734375 1303.65625 1232.2578125 1308.109375 1206.7109375 1308.109375 c 0
 1180.4609375 1308.109375 1156.7890625 1303.65625 1135.6171875 1294.671875 c 0
 1114.5234375 1285.765625 1096.3984375 1272.796875 1081.3984375 1255.84375 c 0
 1066.3203125 1238.890625 1054.6796875 1218.18652344 1046.3203125 1193.890625 c 0
 1038.0390625 1169.59277344 1033.8984375 1142.09375 1033.8984375 1111.3125 c 1
 1033.8984375 1076.12988281 1033.8984375 1040.94726562 1033.8984375 1005.765625 c 1
 1033.8984375 974.983398438 1038.0390625 947.484375 1046.3203125 923.1875 c 0
 1054.6796875 898.890625 1066.3203125 878.186523438 1081.3984375 861.234375 c 0
 1096.3984375 844.280273438 1114.5234375 831.311523438 1135.6171875 822.40625 c 0
 1156.7890625 813.420898438 1180.4609375 808.96875 1206.7109375 808.96875 c 0
EndSplineSet
EndChar

StartChar: uniF015
Encoding: 61461 61461 24
Width: 1792
Flags: W
HStem: 120.5 139.688<684.242 1061.86> 565.461 135.352<684.242 1028.79> 985.93 139.688<684.242 1028.79>
VStem: 521.586 162.656<260.188 565.461 700.812 985.93> 1062.99 171.328<732.723 954.019> 1098.97 171.445<294.391 531.257>
LayerCount: 2
UndoRedoHistory
Layer: 1
Undoes
UndoOperation
Index: 0
Type: 12
WasModified: 0
WasOrder2: 0
Layer: 0
EndUndoOperation
EndUndoes
Redoes
EndRedoes
EndUndoRedoHistory
Fore
SplineSet
521.5859375 1125.6171875 m 1xf4
 669.90625 1125.6171875 818.2265625 1125.6171875 966.546875 1125.6171875 c 1
 1049.984375 1125.6171875 1115.609375 1102.0625 1163.0703125 1055.0703125 c 0
 1210.6484375 1008.078125 1234.3203125 945.1484375 1234.3203125 866.3984375 c 0xf8
 1234.3203125 829.015625 1229.046875 797.0234375 1218.5 770.65625 c 0
 1207.953125 744.2890625 1194.4765625 722.609375 1178.1875 705.8515625 c 0
 1161.8984375 689.09375 1143.1484375 676.5546875 1122.0546875 668.46875 c 0
 1100.9609375 660.265625 1080.3359375 655.2265625 1060.0625 653.3515625 c 1
 1060.0625 650.4609375 1060.0625 647.5703125 1060.0625 644.6796875 c 1
 1080.3359375 643.7421875 1102.6015625 638.9375 1127.09375 630.265625 c 0
 1151.5859375 621.59375 1174.3203125 607.8828125 1195.53125 589.25 c 0
 1216.625 570.5 1234.3203125 546.4765625 1248.734375 517.1796875 c 0
 1263.1484375 487.8828125 1270.4140625 452.140625 1270.4140625 409.953125 c 0
 1270.4140625 369.640625 1263.8515625 331.671875 1250.9609375 296.1640625 c 0
 1237.953125 260.65625 1219.90625 229.953125 1196.9375 204.0546875 c 0
 1173.8515625 178.15625 1146.546875 157.6484375 1114.7890625 142.765625 c 0
 1083.1484375 127.8828125 1048.578125 120.5 1011.1953125 120.5 c 1
 847.9921875 120.5 684.7890625 120.5 521.5859375 120.5 c 1
 521.5859375 455.5390625 521.5859375 790.578125 521.5859375 1125.6171875 c 1xf4
684.2421875 260.1875 m 1
 777.3671875 260.1875 870.4921875 260.1875 963.6171875 260.1875 c 1
 1005.921875 260.1875 1038.96875 271.203125 1062.9921875 293.3515625 c 0xf8
 1087.015625 315.3828125 1098.96875 347.0234375 1098.96875 388.390625 c 1
 1098.96875 404.6796875 1098.96875 420.96875 1098.96875 437.2578125 c 1xf4
 1098.96875 478.625 1087.015625 510.265625 1062.9921875 532.296875 c 0
 1038.96875 554.4453125 1005.921875 565.4609375 963.6171875 565.4609375 c 1
 870.4921875 565.4609375 777.3671875 565.4609375 684.2421875 565.4609375 c 1
 684.2421875 463.703125 684.2421875 361.9453125 684.2421875 260.1875 c 1
684.2421875 700.8125 m 1
 768.265625 700.8125 852.2890625 700.8125 936.3125 700.8125 c 1
 976.625 700.8125 1007.796875 711.125 1029.828125 731.75 c 0
 1051.9765625 752.375 1062.9921875 781.90625 1062.9921875 820.34375 c 1
 1062.9921875 835.6953125 1062.9921875 851.046875 1062.9921875 866.3984375 c 1
 1062.9921875 904.8359375 1051.9765625 934.3671875 1029.828125 954.9921875 c 0
 1007.796875 975.6171875 976.625 985.9296875 936.3125 985.9296875 c 1
 852.2890625 985.9296875 768.265625 985.9296875 684.2421875 985.9296875 c 1
 684.2421875 890.890625 684.2421875 795.8515625 684.2421875 700.8125 c 1
EndSplineSet
EndChar

StartChar: uniF016
Encoding: 61462 61462 25
Width: 1792
Flags: W
HStem: 38.8906 93.125<474.359 672.172> 427.719 99.8438<559.262 588.09> 712.016 95.9375<328.301 554.086> 723.5 124.766<964.387 984.548 1352.16 1364.12> 1309.12 95.9375<353.87 572.282>
VStem: 222.406 107.5<1151.89 1288.18> 279.516 110.312<-142.516 -32.2031> 582.406 107.5<835.065 982.258> 746.859 110.391<1283.19 1393.58> 759.516 113.281<-142.516 -29.2344> 980.922 103.75<-142.516 370.141> 1397.64 103.594<14.9062 527.562> 1483.19 106.562<1287.02 1393.58>
DStem2: 279.516 -142.516 389.828 -142.516 0.303392 0.952866<33.468 224.101 320.706 631.909> 436.469 1124.75 418.188 1022.09 0.978916 -0.204262<-84.378 149.631> 644.359 527.562 576.078 427.719 0.306233 -0.951957<74.137 385.061 481.942 673.15> 857.25 1393.58 746.859 1393.58 0.206752 -0.978393<0 557.355> 975.297 848.266 1027.17 723.5 0.24367 0.969858<0 458.809> 1320.77 157.016 1161.39 228.031 0.508638 -0.860981<-299.653 157.446> 1229.75 1393.58 1167.33 1273.58 0.238997 -0.97102<101.604 559.948> 1364.12 849.281 1424.59 723.5 0.213693 0.976901<0 557.167>
LayerCount: 2
UndoRedoHistory
Layer: 1
Undoes
UndoOperation
Index: 0
Type: 12
WasModified: 0
WasOrder2: 0
Layer: 0
HStem: 38.8906 93.125<474.359 672.172> 427.719 99.8438<559.262 588.09> 712.016 95.9375<328.301 554.086> 723.5 124.766<964.387 984.548 1352.16 1364.12> 1309.12 95.9375<353.87 572.282>
VStem: 222.406 107.5<1151.89 1288.18> 279.516 110.312<-142.516 -32.2031> 582.406 107.5<835.065 982.258> 746.859 110.391<1283.19 1393.58> 759.516 113.281<-142.516 -29.2344> 980.922 103.75<-142.516 370.141> 1397.64 103.594<14.9062 527.562> 1483.19 106.562<1287.02 1393.58>
DStem2: 279.516 -142.516 389.828 -142.516 0.303392 0.952866<33.468 224.101 320.706 631.909> 436.469 1124.75 418.188 1022.09 0.978916 -0.204262<-84.378 149.631> 644.359 527.562 576.078 427.719 0.306233 -0.951957<74.137 385.061 481.942 673.15> 857.25 1393.58 746.859 1393.58 0.206752 -0.978393<0 557.355> 975.297 848.266 1027.17 723.5 0.24367 0.969858<0 458.809> 1320.77 157.016 1161.39 228.031 0.508638 -0.860981<-299.653 157.446> 1229.75 1393.58 1167.33 1273.58 0.238997 -0.97102<101.604 559.948> 1364.12 849.281 1424.59 723.5 0.213693 0.976901<0 557.167>
EndUndoOperation
EndUndoes
Redoes
EndRedoes
EndUndoRedoHistory
Fore
SplineSet
759.515625 -142.515625 m 1xcb60
 739.359375 -82.046875 719.203125 -21.578125 699.046875 38.890625 c 1
 615.504882812 38.890625 531.963867188 38.890625 448.421875 38.890625 c 1
 428.890625 -21.578125 409.359375 -82.046875 389.828125 -142.515625 c 1
 353.057617188 -142.515625 316.286132812 -142.515625 279.515625 -142.515625 c 1
 355.661132812 80.84375 431.807617188 304.203125 507.953125 527.5625 c 1
 553.421875 527.5625 598.890625 527.5625 644.359375 527.5625 c 1
 720.504882812 304.203125 796.651367188 80.84375 872.796875 -142.515625 c 1
 835.036132812 -142.515625 797.276367188 -142.515625 759.515625 -142.515625 c 1xcb60
576.078125 427.71875 m 1
 574.515625 427.71875 572.953125 427.71875 571.390625 427.71875 c 1
 539.046875 329.150390625 506.703125 230.583007812 474.359375 132.015625 c 1
 540.296875 132.015625 606.234375 132.015625 672.171875 132.015625 c 1
 640.140625 230.583007812 608.109375 329.150390625 576.078125 427.71875 c 1
1161.390625 228.03125 m 1
 1136.75488281 275.400390625 1112.12011719 322.770507812 1087.484375 370.140625 c 1
 1086.546875 370.140625 1085.609375 370.140625 1084.671875 370.140625 c 1
 1084.671875 199.254882812 1084.671875 28.369140625 1084.671875 -142.515625 c 1
 1050.08886719 -142.515625 1015.50488281 -142.515625 980.921875 -142.515625 c 1
 980.921875 80.84375 980.921875 304.203125 980.921875 527.5625 c 1
 1021.234375 527.5625 1061.546875 527.5625 1101.859375 527.5625 c 1
 1174.828125 404.046875 1247.796875 280.53125 1320.765625 157.015625 c 1
 1345.40136719 109.645507812 1370.03613281 62.275390625 1394.671875 14.90625 c 1
 1395.66113281 14.90625 1396.65136719 14.90625 1397.640625 14.90625 c 1
 1397.640625 185.791015625 1397.640625 356.676757812 1397.640625 527.5625 c 1
 1432.171875 527.5625 1466.703125 527.5625 1501.234375 527.5625 c 1
 1501.234375 304.203125 1501.234375 80.84375 1501.234375 -142.515625 c 1xc930
 1460.921875 -142.515625 1420.609375 -142.515625 1380.296875 -142.515625 c 1
 1307.328125 -19 1234.359375 104.515625 1161.390625 228.03125 c 1
447.015625 712.015625 m 0xed20
 390.6875 712.015625 342.875 722.249023438 303.5 742.71875 c 0
 264.125 763.1875 230.375 790.6875 202.25 825.296875 c 1
 227.198242188 848.65625 252.145507812 872.015625 277.09375 895.375 c 1
 300.765625 866.546875 326.859375 844.75 355.296875 830.0625 c 0
 383.8125 815.375 416.3125 807.953125 452.796875 807.953125 c 0
 495.6875 807.953125 527.953125 817.5625 549.75 836.78125 c 0
 571.46875 856 582.40625 881.9375 582.40625 914.515625 c 0
 582.40625 940.765625 574.671875 961.546875 559.359375 976.9375 c 0
 543.96875 992.328125 516.78125 1003.8125 477.71875 1011.46875 c 1
 457.875 1015.00976562 438.03125 1018.55175781 418.1875 1022.09375 c 1
 352.953125 1034.203125 303.96875 1055.6875 271.3125 1086.390625 c 0
 238.65625 1117.09375 222.40625 1159.359375 222.40625 1213.109375 c 0
 222.40625 1242.5625 227.953125 1269.28125 239.203125 1293.265625 c 0
 250.375 1317.25 266.078125 1337.40625 286.234375 1353.734375 c 0
 306.390625 1370.0625 330.84375 1382.71875 359.671875 1391.625 c 0
 388.421875 1400.609375 420.765625 1405.0625 456.625 1405.0625 c 0
 507.171875 1405.0625 551 1396.3125 588.109375 1378.734375 c 0
 625.21875 1361.078125 656.9375 1335.6875 683.1875 1302.40625 c 1
 657.901367188 1280.00976562 632.614257812 1257.61425781 607.328125 1235.21875 c 1
 590.0625 1257.5625 568.96875 1275.53125 543.96875 1288.96875 c 0
 519.046875 1302.40625 487.953125 1309.125 450.84375 1309.125 c 0
 412.484375 1309.125 382.71875 1301.390625 361.546875 1286.078125 c 0
 340.453125 1270.6875 329.90625 1248.265625 329.90625 1218.890625 c 0
 329.90625 1190.6875 338.5 1169.75 355.84375 1156 c 0
 373.109375 1142.25 399.984375 1131.78125 436.46875 1124.75 c 1
 456.3125 1120.609375 476.15625 1116.46875 496 1112.328125 c 1
 563.1875 1099.515625 612.328125 1077.71875 643.34375 1047.015625 c 0
 674.359375 1016.3125 689.90625 974.046875 689.90625 920.296875 c 0
 689.90625 888.96875 684.4375 860.453125 673.578125 834.828125 c 0
 662.71875 809.28125 646.859375 787.328125 626.078125 769.125 c 0
 605.21875 750.84375 579.828125 736.78125 549.75 726.859375 c 0
 519.671875 716.936523438 485.375 712.015625 447.015625 712.015625 c 0xed20
905.21875 723.5 m 1xd9a8
 852.432617188 946.859375 799.645507812 1170.21875 746.859375 1393.578125 c 1
 783.65625 1393.578125 820.453125 1393.578125 857.25 1393.578125 c 1
 879.958007812 1286.05175781 902.666992188 1178.52539062 925.375 1071 c 1
 941.078125 996.754882812 956.78125 922.509765625 972.484375 848.265625 c 1
 973.421875 848.265625 974.359375 848.265625 975.296875 848.265625 c 1
 993.239257812 922.509765625 1011.18261719 996.754882812 1029.125 1071 c 1
 1055.66113281 1178.52539062 1082.19824219 1286.05175781 1108.734375 1393.578125 c 1
 1149.07324219 1393.578125 1189.41113281 1393.578125 1229.75 1393.578125 c 1
 1255.97363281 1286.05175781 1282.19824219 1178.52539062 1308.421875 1071 c 1
 1326.02636719 997.09375 1343.62988281 923.1875 1361.234375 849.28125 c 1
 1362.19824219 849.28125 1363.16113281 849.28125 1364.125 849.28125 c 1
 1380.453125 923.1875 1396.78125 997.09375 1413.109375 1071 c 1
 1436.46875 1178.52539062 1459.828125 1286.05175781 1483.1875 1393.578125 c 1
 1518.70800781 1393.578125 1554.22949219 1393.578125 1589.75 1393.578125 c 1
 1534.69824219 1170.21875 1479.64550781 946.859375 1424.59375 723.5 c 1
 1383.96875 723.5 1343.34375 723.5 1302.71875 723.5 c 1
 1274.22949219 839.020507812 1245.73925781 954.541015625 1217.25 1070.0625 c 1
 1200.609375 1137.90039062 1183.96875 1205.73925781 1167.328125 1273.578125 c 1
 1166.67675781 1273.578125 1166.02636719 1273.578125 1165.375 1273.578125 c 1
 1148.421875 1205.73925781 1131.46875 1137.90039062 1114.515625 1070.0625 c 1
 1085.40136719 954.541015625 1056.28613281 839.020507812 1027.171875 723.5 c 1
 986.520507812 723.5 945.870117188 723.5 905.21875 723.5 c 1xd9a8
EndSplineSet
EndChar

StartChar: uniF017
Encoding: 61463 61463 26
Width: 1792
Flags: W
HStem: 729.17 96.0156<520.383 793.039>
VStem: 280.539 103.75<-136.846 375.811> 411.945 108.438<825.186 1399.25> 697.258 103.594<20.5762 533.232> 938.195 120<-136.846 -16.8457> 945.852 127.656<405.576 533.232> 1050.3 108.516<729.17 1056.61> 1383.66 127.656<-136.846 -9.18945 405.576 533.232>
DStem2: 620.383 162.686 461.008 233.701 0.508638 -0.860981<-299.653 157.446> 943.742 1399.25 819.914 1399.25 0.479608 -0.877483<0 340.284> 938.195 -136.846 1058.2 -136.846 0.552681 0.833393<66.3217 372.475 510.607 804.036> 1073.51 533.232 945.852 533.232 0.546973 -0.83715<0 292.459 418.391 730.603> 1109.84 1100.65 1158.82 995.107 0.477483 0.878641<0 339.836>
LayerCount: 2
UndoRedoHistory
Layer: 1
Undoes
UndoOperation
Index: 0
Type: 12
WasModified: 0
WasOrder2: 0
Layer: 0
HStem: 729.17 96.0156<520.383 793.039>
VStem: 280.539 103.75<-136.846 375.811> 411.945 108.438<825.186 1399.25> 697.258 103.594<20.5762 533.232> 938.195 120<-136.846 -16.8457> 945.852 127.656<405.576 533.232> 1050.3 108.516<729.17 1056.61> 1383.66 127.656<-136.846 -9.18945 405.576 533.232>
DStem2: 620.383 162.686 461.008 233.701 0.508638 -0.860981<-299.653 157.446> 943.742 1399.25 819.914 1399.25 0.479608 -0.877483<0 340.284> 938.195 -136.846 1058.2 -136.846 0.552681 0.833393<66.3217 372.475 510.607 804.036> 1073.51 533.232 945.852 533.232 0.546973 -0.83715<0 292.459 418.391 730.603> 1109.84 1100.65 1158.82 995.107 0.477483 0.878641<0 339.836>
EndUndoOperation
EndUndoes
Redoes
EndRedoes
EndUndoRedoHistory
Fore
SplineSet
461.0078125 233.701171875 m 1xf1
 436.372070312 281.071289062 411.737304688 328.440429688 387.1015625 375.810546875 c 1
 386.1640625 375.810546875 385.2265625 375.810546875 384.2890625 375.810546875 c 1
 384.2890625 204.924804688 384.2890625 34.0400390625 384.2890625 -136.845703125 c 1
 349.706054688 -136.845703125 315.122070312 -136.845703125 280.5390625 -136.845703125 c 1
 280.5390625 86.513671875 280.5390625 309.873046875 280.5390625 533.232421875 c 1
 320.8515625 533.232421875 361.1640625 533.232421875 401.4765625 533.232421875 c 1
 474.4453125 409.716796875 547.4140625 286.201171875 620.3828125 162.685546875 c 1
 645.018554688 115.315429688 669.653320312 67.9462890625 694.2890625 20.576171875 c 1
 695.278320312 20.576171875 696.268554688 20.576171875 697.2578125 20.576171875 c 1
 697.2578125 191.461914062 697.2578125 362.346679688 697.2578125 533.232421875 c 1
 731.7890625 533.232421875 766.3203125 533.232421875 800.8515625 533.232421875 c 1
 800.8515625 309.873046875 800.8515625 86.513671875 800.8515625 -136.845703125 c 1
 760.5390625 -136.845703125 720.2265625 -136.845703125 679.9140625 -136.845703125 c 1
 606.9453125 -13.330078125 533.9765625 110.185546875 461.0078125 233.701171875 c 1xf1
1511.3203125 -136.845703125 m 1
 1468.76855469 -136.845703125 1426.21582031 -136.845703125 1383.6640625 -136.845703125 c 1
 1329.54980469 -47.8876953125 1275.43457031 41.0712890625 1221.3203125 130.029296875 c 1
 1220.3828125 130.029296875 1219.4453125 130.029296875 1218.5078125 130.029296875 c 1
 1165.0703125 41.0712890625 1111.6328125 -47.8876953125 1058.1953125 -136.845703125 c 1
 1018.1953125 -136.845703125 978.1953125 -136.845703125 938.1953125 -136.845703125 c 1xf9
 1010.48730469 -22.6005859375 1082.77832031 91.6435546875 1155.0703125 205.888671875 c 1
 1085.33105469 315.002929688 1015.59082031 424.118164062 945.8515625 533.232421875 c 1
 988.403320312 533.232421875 1030.95605469 533.232421875 1073.5078125 533.232421875 c 1xf5
 1124.39355469 450.029296875 1175.27832031 366.826171875 1226.1640625 283.623046875 c 1
 1226.7890625 283.623046875 1227.4140625 283.623046875 1228.0390625 283.623046875 c 1
 1279.54980469 366.826171875 1331.05957031 450.029296875 1382.5703125 533.232421875 c 1
 1422.5703125 533.232421875 1462.5703125 533.232421875 1502.5703125 533.232421875 c 1
 1432.20605469 424.430664062 1361.84082031 315.627929688 1291.4765625 206.826171875 c 1
 1364.7578125 92.2685546875 1438.0390625 -22.2880859375 1511.3203125 -136.845703125 c 1
411.9453125 729.169921875 m 1
 411.9453125 952.529296875 411.9453125 1175.88867188 411.9453125 1399.24804688 c 1
 448.090820312 1399.24804688 484.237304688 1399.24804688 520.3828125 1399.24804688 c 1
 520.3828125 1207.89355469 520.3828125 1016.54003906 520.3828125 825.185546875 c 1
 611.268554688 825.185546875 702.153320312 825.185546875 793.0390625 825.185546875 c 1
 793.0390625 793.180664062 793.0390625 761.174804688 793.0390625 729.169921875 c 1
 666.0078125 729.169921875 538.9765625 729.169921875 411.9453125 729.169921875 c 1
1050.3046875 729.169921875 m 1xf3
 1050.3046875 817.165039062 1050.3046875 905.159179688 1050.3046875 993.154296875 c 1
 973.5078125 1128.51855469 896.7109375 1263.88378906 819.9140625 1399.24804688 c 1
 861.190429688 1399.24804688 902.465820312 1399.24804688 943.7421875 1399.24804688 c 1
 998.143554688 1299.71679688 1052.54394531 1200.18554688 1106.9453125 1100.65429688 c 1
 1107.90917969 1100.65429688 1108.87207031 1100.65429688 1109.8359375 1100.65429688 c 1
 1163.92480469 1200.18554688 1218.01269531 1299.71679688 1272.1015625 1399.24804688 c 1
 1311.7890625 1399.24804688 1351.4765625 1399.24804688 1391.1640625 1399.24804688 c 1
 1313.71582031 1264.53417969 1236.26855469 1129.82128906 1158.8203125 995.107421875 c 1
 1158.8203125 906.461914062 1158.8203125 817.815429688 1158.8203125 729.169921875 c 1
 1122.6484375 729.169921875 1086.4765625 729.169921875 1050.3046875 729.169921875 c 1xf3
EndSplineSet
EndChar

StartChar: uniF018
Encoding: 61464 61464 27
Width: 1792
Flags: W
HStem: 44.5605 93.125<1083.51 1281.16> 133.857 91.25<418.508 570.842> 438.232 95<418.508 654.817 1169.79 1195.72> 729.17 96.0156<609.465 629.562 1148.12 1468.74> 1021.04 95.9375<1148.12 1439.05> 1303.23 96.0156<1148.12 1468.74>
VStem: 310.07 108.438<-136.846 133.857 225.107 438.232> 334.367 112.344<1286.9 1399.25> 678.664 114.219<247.348 415.913> 793.273 109.375<1289.87 1399.25> 888.508 110.469<-136.846 -26.377> 1039.68 108.438<825.186 1021.04 1116.98 1303.23> 1368.51 113.281<-136.846 -23.5645>
DStem2: 446.711 1399.25 334.367 1399.25 0.311738 -0.950168<0 589.564> 662.258 145.42 551.945 133.857 0.456936 -0.8895<0 262.07> 621.398 834.795 679.992 729.17 0.315331 0.948982<0 589.853> 888.508 -136.846 998.977 -136.846 0.303155 0.952941<33.4892 224.122 320.727 631.883> 1253.35 533.232 1185.23 433.389 0.305997 -0.952033<74.2085 385.084>
LayerCount: 2
UndoRedoHistory
Layer: 1
Undoes
UndoOperation
Index: 0
Type: 12
WasModified: 0
WasOrder2: 0
Layer: 0
HStem: 44.5605 93.125<1083.51 1281.16> 133.857 91.25<418.508 570.842> 438.232 95<418.508 654.817 1169.79 1195.72> 729.17 96.0156<609.465 629.562 1148.12 1468.74> 1021.04 95.9375<1148.12 1439.05> 1303.23 96.0156<1148.12 1468.74>
VStem: 310.07 108.438<-136.846 133.857 225.107 438.232> 334.367 112.344<1286.9 1399.25> 678.664 114.219<247.348 415.913> 793.273 109.375<1289.87 1399.25> 888.508 110.469<-136.846 -26.377> 1039.68 108.438<825.186 1021.04 1116.98 1303.23> 1368.51 113.281<-136.846 -23.5645>
DStem2: 446.711 1399.25 334.367 1399.25 0.289596 -0.957149<0 589.723> 662.258 145.42 551.945 133.857 0.456936 -0.8895<0 262.07> 621.398 834.795 679.992 729.17 0.315331 0.948982<0 589.853> 888.508 -136.846 998.977 -136.846 0.303155 0.952941<33.4892 224.122 320.727 631.883> 1253.35 533.232 1185.23 433.389 0.305997 -0.952033<74.2085 385.084>
EndUndoOperation
EndUndoes
Redoes
EndRedoes
EndUndoRedoHistory
Fore
SplineSet
418.5078125 -136.845703125 m 1x7e98
 382.362304688 -136.845703125 346.215820312 -136.845703125 310.0703125 -136.845703125 c 1
 310.0703125 86.513671875 310.0703125 309.873046875 310.0703125 533.232421875 c 1
 406.372070312 533.232421875 502.674804688 533.232421875 598.9765625 533.232421875 c 1
 659.1328125 533.232421875 706.4765625 515.185546875 741.0078125 479.013671875 c 0
 775.5390625 442.841796875 792.8828125 393.701171875 792.8828125 331.669921875 c 0
 792.8828125 283.623046875 781.7890625 243.779296875 759.7578125 212.138671875 c 0
 737.7265625 180.419921875 705.2265625 158.232421875 662.2578125 145.419921875 c 1
 710.590820312 51.3310546875 758.924804688 -42.7568359375 807.2578125 -136.845703125 c 1
 766.9453125 -136.845703125 726.6328125 -136.845703125 686.3203125 -136.845703125 c 1
 641.528320312 -46.611328125 596.737304688 43.623046875 551.9453125 133.857421875 c 1
 507.465820312 133.857421875 462.987304688 133.857421875 418.5078125 133.857421875 c 1
 418.5078125 43.623046875 418.5078125 -46.611328125 418.5078125 -136.845703125 c 1x7e98
591.3203125 225.107421875 m 1
 618.8203125 225.107421875 640.2265625 232.294921875 655.5390625 246.669921875 c 0
 671.0078125 261.044921875 678.6640625 281.748046875 678.6640625 308.623046875 c 1
 678.6640625 323.961914062 678.6640625 339.299804688 678.6640625 354.638671875 c 1
 678.6640625 381.591796875 671.0078125 402.216796875 655.5390625 416.591796875 c 0
 640.2265625 430.966796875 618.8203125 438.232421875 591.3203125 438.232421875 c 1
 533.715820312 438.232421875 476.112304688 438.232421875 418.5078125 438.232421875 c 1
 418.5078125 367.190429688 418.5078125 296.149414062 418.5078125 225.107421875 c 1
 476.112304688 225.107421875 533.715820312 225.107421875 591.3203125 225.107421875 c 1
1368.5078125 -136.845703125 m 1
 1348.3515625 -76.376953125 1328.1953125 -15.908203125 1308.0390625 44.560546875 c 1
 1224.54980469 44.560546875 1141.05957031 44.560546875 1057.5703125 44.560546875 c 1
 1038.0390625 -15.908203125 1018.5078125 -76.376953125 998.9765625 -136.845703125 c 1
 962.153320312 -136.845703125 925.331054688 -136.845703125 888.5078125 -136.845703125 c 1xbcb8
 964.706054688 86.513671875 1040.90332031 309.873046875 1117.1015625 533.232421875 c 1
 1162.51855469 533.232421875 1207.93457031 533.232421875 1253.3515625 533.232421875 c 1
 1329.49707031 309.873046875 1405.64355469 86.513671875 1481.7890625 -136.845703125 c 1
 1444.02832031 -136.845703125 1406.26855469 -136.845703125 1368.5078125 -136.845703125 c 1
1185.2265625 433.388671875 m 1
 1183.61230469 433.388671875 1181.99707031 433.388671875 1180.3828125 433.388671875 c 1
 1148.09082031 334.821289062 1115.79980469 236.252929688 1083.5078125 137.685546875 c 1
 1149.39355469 137.685546875 1215.27832031 137.685546875 1281.1640625 137.685546875 c 1
 1249.18457031 236.252929688 1217.20605469 334.821289062 1185.2265625 433.388671875 c 1
554.2109375 729.169921875 m 1
 480.9296875 952.529296875 407.6484375 1175.88867188 334.3671875 1399.24804688 c 1
 371.815429688 1399.24804688 409.262695312 1399.24804688 446.7109375 1399.24804688 c 1
 482.231445312 1288.85742188 517.752929688 1178.46679688 553.2734375 1068.07617188 c 1
 574.6796875 990.315429688 596.0859375 912.555664062 617.4921875 834.794921875 c 1
 618.793945312 834.794921875 620.096679688 834.794921875 621.3984375 834.794921875 c 1
 643.168945312 912.555664062 664.940429688 990.315429688 686.7109375 1068.07617188 c 1
 722.231445312 1178.46679688 757.752929688 1288.85742188 793.2734375 1399.24804688 c 1
 829.731445312 1399.24804688 866.190429688 1399.24804688 902.6484375 1399.24804688 c 1x3dd8
 828.4296875 1175.88867188 754.2109375 952.529296875 679.9921875 729.169921875 c 1
 638.065429688 729.169921875 596.137695312 729.169921875 554.2109375 729.169921875 c 1
1039.6796875 729.169921875 m 1
 1039.6796875 952.529296875 1039.6796875 1175.88867188 1039.6796875 1399.24804688 c 1
 1182.70019531 1399.24804688 1325.72167969 1399.24804688 1468.7421875 1399.24804688 c 1
 1468.7421875 1367.24316406 1468.7421875 1335.23730469 1468.7421875 1303.23242188 c 1
 1361.8671875 1303.23242188 1254.9921875 1303.23242188 1148.1171875 1303.23242188 c 1
 1148.1171875 1241.14941406 1148.1171875 1179.06542969 1148.1171875 1116.98242188 c 1
 1245.09667969 1116.98242188 1342.07519531 1116.98242188 1439.0546875 1116.98242188 c 1
 1439.0546875 1085.00292969 1439.0546875 1053.02441406 1439.0546875 1021.04492188 c 1
 1342.07519531 1021.04492188 1245.09667969 1021.04492188 1148.1171875 1021.04492188 c 1
 1148.1171875 955.758789062 1148.1171875 890.471679688 1148.1171875 825.185546875 c 1
 1254.9921875 825.185546875 1361.8671875 825.185546875 1468.7421875 825.185546875 c 1
 1468.7421875 793.180664062 1468.7421875 761.174804688 1468.7421875 729.169921875 c 1
 1325.72167969 729.169921875 1182.70019531 729.169921875 1039.6796875 729.169921875 c 1
EndSplineSet
EndChar

StartChar: uniF019
Encoding: 61465 61465 28
Width: 1792
Flags: W
HStem: 204.2 112.793<1049.91 1285.26 1418.46 1622.37> 943.36 98.4375<1239.05 1285.26>
VStem: 169.633 150<204.2 354.2> 179.203 159.57<882.228 1041.8> 726.469 159.57<204.2 363.771 882.228 1041.8> 1285.26 133.203<316.993 943.36>
DStem2: 169.633 204.2 319.633 204.2 0.552681 0.833393<82.9021 411.831 638.258 1005.04> 338.773 1041.8 179.203 1041.8 0.546973 -0.83715<0 365.574 522.989 913.254> 998.344 810.157 1081.16 735.841 0.683539 0.729914<1.88118 286.669>
LayerCount: 2
UndoRedoHistory
Layer: 1
Undoes
UndoOperation
Index: 0
Type: 12
WasModified: 0
WasOrder2: 0
Layer: 0
HStem: 204.2 837.598<1212.02 1418.46> 204.2 112.793<1049.91 1285.26 1418.46 1622.37> 943.36 98.4375<1275.49 1285.26>
VStem: 1285.26 133.203<204.2 943.36>
DStem2: 998.344 810.157 1081.16 735.841 0.678023 0.735041<1.52314 285.823> 338.773 1041.8 179.203 1041.8 0.546973 -0.83715<0 365.574 522.989 913.254>
EndUndoOperation
EndUndoes
Redoes
EndRedoes
EndUndoRedoHistory
Fore
SplineSet
886.0390625 204.200195312 m 1xdc
 832.848632812 204.200195312 779.659179688 204.200195312 726.46875 204.200195312 c 1
 658.825195312 315.397460938 591.182617188 426.595703125 523.5390625 537.793945312 c 1
 522.3671875 537.793945312 521.1953125 537.793945312 520.0234375 537.793945312 c 1
 453.2265625 426.595703125 386.4296875 315.397460938 319.6328125 204.200195312 c 1
 269.6328125 204.200195312 219.6328125 204.200195312 169.6328125 204.200195312 c 1xec
 259.997070312 347.005859375 350.362304688 489.811523438 440.7265625 632.618164062 c 1
 353.551757812 769.010742188 266.377929688 905.404296875 179.203125 1041.79785156 c 1
 232.393554688 1041.79785156 285.583007812 1041.79785156 338.7734375 1041.79785156 c 1
 402.379882812 937.793945312 465.987304688 833.790039062 529.59375 729.786132812 c 1
 530.375 729.786132812 531.15625 729.786132812 531.9375 729.786132812 c 1
 596.325195312 833.790039062 660.713867188 937.793945312 725.1015625 1041.79785156 c 1
 775.1015625 1041.79785156 825.1015625 1041.79785156 875.1015625 1041.79785156 c 1
 787.145507812 905.794921875 699.190429688 769.791992188 611.234375 633.790039062 c 1
 702.8359375 490.592773438 794.4375 347.396484375 886.0390625 204.200195312 c 1xdc
1049.90625 204.200195312 m 1
 1049.90625 241.797851562 1049.90625 279.395507812 1049.90625 316.993164062 c 1
 1128.35644531 316.993164062 1206.80761719 316.993164062 1285.2578125 316.993164062 c 1
 1285.2578125 525.782226562 1285.2578125 734.571289062 1285.2578125 943.360351562 c 1
 1282.00292969 943.360351562 1278.74707031 943.360351562 1275.4921875 943.360351562 c 1
 1210.71386719 874.186523438 1145.93457031 805.013671875 1081.15625 735.840820312 c 1
 1053.55175781 760.612304688 1025.94824219 785.384765625 998.34375 810.157226562 c 1
 1069.56738281 887.370117188 1140.79199219 964.583984375 1212.015625 1041.79785156 c 1
 1280.83105469 1041.79785156 1349.64550781 1041.79785156 1418.4609375 1041.79785156 c 1
 1418.4609375 800.196289062 1418.4609375 558.594726562 1418.4609375 316.993164062 c 1
 1486.4296875 316.993164062 1554.3984375 316.993164062 1622.3671875 316.993164062 c 1
 1622.3671875 279.395507812 1622.3671875 241.797851562 1622.3671875 204.200195312 c 1
 1431.546875 204.200195312 1240.7265625 204.200195312 1049.90625 204.200195312 c 1
EndSplineSet
EndChar

StartChar: uniF01A
Encoding: 61466 61466 29
Width: 1792
Flags: W
HStem: -148.33 85.3906<443.27 618.187 1139.04 1341.37> 200.107 85.4688<468.18 617.718> 455.498 89.2188<1163.21 1360.78> 717.686 89.2188<1388.21 1579.14> 729.17 92.1875<328.559 354.926> 1002.76 85.4688<802.406 938.743> 1309.95 89.2969<802.406 1011.58 1380.73 1582.23>
VStem: 82.0938 106.562<1292.69 1399.25> 314.359 107.5<-42.67 180.457> 493.891 104.688<1294.56 1399.25> 638.891 107.5<-42.3858 179.315> 700.609 101.797<729.17 1002.76 1088.23 1309.95> 1040.14 101.719<288.688 435.925 1107.5 1290.69> 1233.73 109.453<855.416 1273> 1364.67 101.719<-38.4167 124.863>
DStem2: 188.656 1399.25 82.0938 1399.25 0.271727 -0.962374<0 593.586> 375.844 977.842 402.719 729.17 0.269742 0.962933<-155.735 437.628> 1024.12 1010.42 922.406 1002.76 0.413517 -0.910496<0 262.054> 1234.05 261.592 1215.77 165.576 0.978371 -0.206857<-75.1218 135.909>
LayerCount: 2
UndoRedoHistory
Layer: 1
Undoes
UndoOperation
Index: 0
Type: 12
WasModified: 0
WasOrder2: 0
Layer: 0
HStem: -148.33 85.3906<443.27 618.187 1139.04 1341.37> 200.107 85.4688<468.18 617.718> 455.498 89.2188<1163.21 1360.78> 717.686 89.2188<1388.21 1579.14> 729.17 92.1875<328.559 354.926> 1002.76 85.4688<802.406 938.743> 1309.95 89.2969<802.406 1011.58 1380.73 1582.23>
VStem: 82.0938 106.562<1292.69 1399.25> 314.359 107.5<-42.67 180.457> 493.891 104.688<1294.56 1399.25> 638.891 107.5<-42.3858 179.315> 700.609 101.797<729.17 1002.76 1088.23 1309.95> 1040.14 101.719<288.688 435.925 1107.5 1290.69> 1233.73 109.453<855.416 1273> 1364.67 101.719<-38.4167 124.863>
DStem2: 188.656 1399.25 82.0938 1399.25 0.271727 -0.962374<0 593.586> 375.844 977.842 402.719 729.17 0.269742 0.962933<-155.735 437.628> 1024.12 1010.42 922.406 1002.76 0.413517 -0.910496<0 262.054> 1234.05 261.592 1215.77 165.576 0.978371 -0.206857<-75.1218 135.909>
EndUndoOperation
EndUndoes
Redoes
EndRedoes
EndUndoRedoHistory
Fore
SplineSet
530.296875 -148.330078125 m 0xe7ee
 458.734375 -148.330078125 404.828125 -126.298828125 368.578125 -82.158203125 c 0
 332.484375 -37.939453125 314.359375 26.357421875 314.359375 110.810546875 c 0
 314.359375 151.123046875 319.515625 191.435546875 329.671875 231.826171875 c 0
 339.984375 272.138671875 354.671875 310.654296875 373.890625 347.451171875 c 0
 393.109375 384.248046875 415.921875 418.701171875 442.484375 450.654296875 c 0
 469.046875 482.685546875 498.734375 510.185546875 531.390625 533.232421875 c 1
 577.120117188 533.232421875 622.848632812 533.232421875 668.578125 533.232421875 c 1
 629.515625 503.154296875 595.921875 474.482421875 567.796875 447.294921875 c 0
 539.671875 420.107421875 515.765625 393.076171875 496.234375 366.201171875 c 0
 476.703125 339.326171875 460.921875 311.669921875 448.734375 283.154296875 c 0
 436.546875 254.638671875 427.328125 223.779296875 420.921875 190.498046875 c 1
 425.088867188 190.498046875 429.254882812 190.498046875 433.421875 190.498046875 c 1
 444.359375 221.201171875 461.546875 244.716796875 485.296875 261.044921875 c 0
 508.890625 277.373046875 537.015625 285.576171875 569.671875 285.576171875 c 0
 624.046875 285.576171875 667.171875 267.919921875 698.890625 232.763671875 c 0
 730.453125 197.529296875 746.390625 145.732421875 746.390625 77.216796875 c 0
 746.390625 6.201171875 727.953125 -49.189453125 691.234375 -88.876953125 c 0
 654.359375 -128.564453125 600.765625 -148.330078125 530.296875 -148.330078125 c 0xe7ee
530.296875 -62.939453125 m 256
 602.640625 -62.939453125 638.890625 -23.251953125 638.890625 56.123046875 c 1
 638.890625 64.4306640625 638.890625 72.7373046875 638.890625 81.044921875 c 1
 638.890625 160.419921875 602.640625 200.107421875 530.296875 200.107421875 c 256
 458.109375 200.107421875 421.859375 160.419921875 421.859375 81.044921875 c 1
 421.859375 72.7373046875 421.859375 64.4306640625 421.859375 56.123046875 c 1
 421.859375 -23.251953125 458.109375 -62.939453125 530.296875 -62.939453125 c 256
1244.671875 -148.330078125 m 0
 1194.671875 -148.330078125 1151.390625 -138.955078125 1114.515625 -120.048828125 c 0
 1077.796875 -101.142578125 1046.234375 -73.798828125 1019.984375 -37.939453125 c 1
 1043.31738281 -16.5068359375 1066.65136719 4.9248046875 1089.984375 26.357421875 c 1
 1109.828125 -1.142578125 1132.640625 -22.314453125 1158.265625 -37.001953125 c 0
 1183.734375 -51.689453125 1212.953125 -59.111328125 1245.609375 -59.111328125 c 0
 1324.984375 -59.111328125 1364.671875 -22.626953125 1364.671875 50.341796875 c 0
 1364.671875 79.794921875 1357.484375 102.373046875 1343.421875 117.998046875 c 0
 1329.359375 133.701171875 1305.140625 145.732421875 1270.453125 154.013671875 c 1
 1252.22363281 157.868164062 1233.99511719 161.721679688 1215.765625 165.576171875 c 1
 1155.609375 179.013671875 1111.390625 200.576171875 1082.796875 230.341796875 c 0
 1054.359375 260.107421875 1040.140625 301.904296875 1040.140625 355.654296875 c 0
 1040.140625 417.685546875 1058.890625 464.716796875 1096.234375 496.748046875 c 0
 1133.734375 528.779296875 1186.078125 544.716796875 1253.265625 544.716796875 c 0
 1301.234375 544.716796875 1341.703125 536.591796875 1374.671875 520.263671875 c 0
 1407.640625 503.935546875 1436.234375 478.544921875 1460.609375 443.935546875 c 1
 1437.22363281 423.466796875 1413.83886719 402.998046875 1390.453125 382.529296875 c 1
 1373.265625 406.826171875 1353.890625 425.107421875 1332.484375 437.216796875 c 0
 1311.078125 449.404296875 1283.890625 455.498046875 1251.390625 455.498046875 c 0
 1214.828125 455.498046875 1187.484375 447.919921875 1169.203125 432.919921875 c 0
 1151.078125 417.841796875 1141.859375 393.076171875 1141.859375 358.544921875 c 0
 1141.859375 330.341796875 1149.046875 309.091796875 1163.421875 294.638671875 c 0
 1177.953125 280.263671875 1201.390625 269.248046875 1234.046875 261.591796875 c 1
 1252.27636719 257.424804688 1270.50488281 253.258789062 1288.734375 249.091796875 c 1
 1320.765625 242.060546875 1347.953125 233.232421875 1370.296875 222.685546875 c 0
 1392.796875 212.138671875 1411.234375 199.169921875 1425.609375 183.779296875 c 0
 1439.984375 168.466796875 1450.296875 150.341796875 1456.703125 129.560546875 c 0
 1463.109375 108.779296875 1466.390625 84.560546875 1466.390625 57.060546875 c 0
 1466.390625 -10.126953125 1447.015625 -61.142578125 1408.265625 -96.064453125 c 0
 1369.515625 -130.908203125 1314.984375 -148.330078125 1244.671875 -148.330078125 c 0
278.890625 729.169921875 m 1xefce
 213.291992188 952.529296875 147.692382812 1175.88867188 82.09375 1399.24804688 c 1
 117.614257812 1399.24804688 153.135742188 1399.24804688 188.65625 1399.24804688 c 1
 228.317382812 1258.77929688 267.979492188 1118.31054688 307.640625 977.841796875 c 1
 316.9375 925.680664062 326.234375 873.518554688 335.53125 821.357421875 c 1
 339.671875 821.357421875 343.8125 821.357421875 347.953125 821.357421875 c 1
 357.25 873.518554688 366.546875 925.680664062 375.84375 977.841796875 c 1
 415.192382812 1118.31054688 454.541992188 1258.77929688 493.890625 1399.24804688 c 1
 528.786132812 1399.24804688 563.682617188 1399.24804688 598.578125 1399.24804688 c 1
 533.291992188 1175.88867188 468.004882812 952.529296875 402.71875 729.169921875 c 1
 361.442382812 729.169921875 320.166992188 729.169921875 278.890625 729.169921875 c 1xefce
802.40625 729.169921875 m 1xefde
 768.473632812 729.169921875 734.541992188 729.169921875 700.609375 729.169921875 c 1
 700.609375 952.529296875 700.609375 1175.88867188 700.609375 1399.24804688 c 1
 788.942382812 1399.24804688 877.276367188 1399.24804688 965.609375 1399.24804688 c 1
 1023.1875 1399.24804688 1066.546875 1382.13867188 1095.6875 1347.91992188 c 0
 1124.75 1313.62304688 1139.359375 1264.56054688 1139.359375 1200.49804688 c 0
 1139.359375 1148.70117188 1129.75 1106.74804688 1110.53125 1074.79492188 c 0
 1091.3125 1042.76367188 1062.5625 1021.35742188 1024.125 1010.41992188 c 1
 1066.703125 916.669921875 1109.28125 822.919921875 1151.859375 729.169921875 c 1
 1114.09863281 729.169921875 1076.33886719 729.169921875 1038.578125 729.169921875 c 1
 999.854492188 820.368164062 961.129882812 911.565429688 922.40625 1002.76367188 c 1
 882.40625 1002.76367188 842.40625 1002.76367188 802.40625 1002.76367188 c 1
 802.40625 911.565429688 802.40625 820.368164062 802.40625 729.169921875 c 1xefde
956.9375 1088.23242188 m 1
 981.234375 1088.23242188 999.671875 1094.48242188 1012.171875 1106.90429688 c 0
 1024.59375 1119.40429688 1030.84375 1139.71679688 1030.84375 1167.91992188 c 1
 1030.84375 1188.70117188 1030.84375 1209.48242188 1030.84375 1230.26367188 c 1
 1030.84375 1258.46679688 1024.59375 1278.77929688 1012.171875 1291.27929688 c 0
 999.671875 1303.70117188 981.234375 1309.95117188 956.9375 1309.95117188 c 1
 905.426757812 1309.95117188 853.916992188 1309.95117188 802.40625 1309.95117188 c 1
 802.40625 1236.04492188 802.40625 1162.13867188 802.40625 1088.23242188 c 1
 853.916992188 1088.23242188 905.426757812 1088.23242188 956.9375 1088.23242188 c 1
1487.171875 717.685546875 m 0xf7ce
 1448.109375 717.685546875 1413.109375 724.248046875 1382.09375 737.294921875 c 0
 1351 750.419921875 1324.4375 771.123046875 1302.40625 799.248046875 c 0
 1280.296875 827.373046875 1263.34375 863.388671875 1251.46875 907.216796875 c 0
 1239.671875 951.123046875 1233.734375 1003.38867188 1233.734375 1064.24804688 c 256
 1233.734375 1125.02929688 1239.671875 1177.29492188 1251.46875 1221.20117188 c 0
 1263.34375 1265.02929688 1280.296875 1301.04492188 1302.40625 1329.16992188 c 0
 1324.4375 1357.29492188 1351 1377.99804688 1382.09375 1391.12304688 c 0
 1413.109375 1404.24804688 1448.109375 1410.73242188 1487.171875 1410.73242188 c 0
 1544.125 1410.73242188 1589.75 1398.46679688 1623.96875 1373.77929688 c 0
 1658.1875 1349.16992188 1685.609375 1312.21679688 1706.078125 1262.91992188 c 1
 1677.27636719 1246.93066406 1648.47363281 1230.94042969 1619.671875 1214.95117188 c 1
 1608.109375 1252.68554688 1592.015625 1279.87304688 1571.15625 1296.51367188 c 0
 1550.375 1313.15429688 1522.40625 1321.51367188 1487.171875 1321.51367188 c 0
 1441.78125 1321.51367188 1406.390625 1305.81054688 1381.078125 1274.48242188 c 0
 1355.84375 1243.07617188 1343.1875 1199.87304688 1343.1875 1144.87304688 c 1
 1343.1875 1091.09667969 1343.1875 1037.32128906 1343.1875 983.544921875 c 1
 1343.1875 928.544921875 1355.84375 885.341796875 1381.078125 853.935546875 c 0
 1406.390625 822.607421875 1441.78125 806.904296875 1487.171875 806.904296875 c 0
 1523.03125 806.904296875 1552.015625 815.888671875 1574.046875 833.779296875 c 0
 1596.15625 851.748046875 1613.265625 880.498046875 1625.453125 920.185546875 c 1
 1653.60449219 903.544921875 1681.75488281 886.904296875 1709.90625 870.263671875 c 1
 1688.8125 821.044921875 1660.609375 783.232421875 1625.453125 756.982421875 c 0
 1590.21875 730.732421875 1544.125 717.685546875 1487.171875 717.685546875 c 0xf7ce
EndSplineSet
EndChar

StartChar: uniF01B
Encoding: 61467 61467 30
Width: 1792
Flags: W
HStem: -148.33 96.9531<1073.4 1297.1> 437.217 96.0156<306.547 506.234 614.672 814.359 1062.75 1307.77> 717.686 96.9531<474.093 697.732> 1303.23 96.0156<463.45 708.394 987.25 1186.94 1295.38 1495.06>
VStem: 296.938 116.25<878.332 1250.09> 506.234 108.438<-136.846 437.217> 758.656 116.25<878.332 1250.09> 896.312 116.172<12.3169 384.07> 1186.94 108.438<729.17 1303.23> 1358.03 116.172<12.3169 384.07>
LayerCount: 2
UndoRedoHistory
Layer: 1
Undoes
UndoOperation
Index: 0
Type: 12
WasModified: 0
WasOrder2: 0
Layer: 0
HStem: -148.33 96.9531<1073.4 1297.1> 437.217 96.0156<306.547 506.234 614.672 814.359 1062.75 1307.77> 717.686 96.9531<474.093 697.732> 1303.23 96.0156<463.45 708.394 987.25 1186.94 1295.38 1495.06>
VStem: 296.938 116.25<878.332 1250.09> 506.234 108.438<-136.846 437.217> 758.656 116.25<878.332 1250.09> 896.312 116.172<12.3169 384.07> 1186.94 108.438<729.17 1303.23> 1358.03 116.172<12.3169 384.07>
EndUndoOperation
EndUndoes
Redoes
EndRedoes
EndUndoRedoHistory
Fore
SplineSet
614.671875 437.216796875 m 1
 614.671875 245.862304688 614.671875 54.5087890625 614.671875 -136.845703125 c 1
 578.526367188 -136.845703125 542.379882812 -136.845703125 506.234375 -136.845703125 c 1
 506.234375 54.5087890625 506.234375 245.862304688 506.234375 437.216796875 c 1
 439.671875 437.216796875 373.109375 437.216796875 306.546875 437.216796875 c 1
 306.546875 469.221679688 306.546875 501.227539062 306.546875 533.232421875 c 1
 475.817382812 533.232421875 645.088867188 533.232421875 814.359375 533.232421875 c 1
 814.359375 501.227539062 814.359375 469.221679688 814.359375 437.216796875 c 1
 747.796875 437.216796875 681.234375 437.216796875 614.671875 437.216796875 c 1
1185.296875 -148.330078125 m 256
 1141.703125 -148.330078125 1102.25 -140.830078125 1066.703125 -125.830078125 c 0
 1031.15625 -110.751953125 1000.765625 -88.720703125 975.53125 -59.580078125 c 0
 950.21875 -30.439453125 930.6875 5.732421875 916.9375 48.935546875 c 0
 903.1875 92.138671875 896.3125 141.904296875 896.3125 198.232421875 c 256
 896.3125 254.482421875 903.1875 304.248046875 916.9375 347.451171875 c 0
 930.6875 390.654296875 950.21875 426.826171875 975.53125 455.966796875 c 0
 1000.765625 485.107421875 1031.15625 507.138671875 1066.703125 522.216796875 c 0
 1102.25 537.216796875 1141.703125 544.716796875 1185.296875 544.716796875 c 256
 1228.8125 544.716796875 1268.265625 537.216796875 1303.8125 522.216796875 c 0
 1339.359375 507.138671875 1369.75 485.107421875 1394.984375 455.966796875 c 0
 1420.296875 426.826171875 1439.828125 390.654296875 1453.578125 347.451171875 c 0
 1467.328125 304.248046875 1474.203125 254.482421875 1474.203125 198.232421875 c 256
 1474.203125 141.904296875 1467.328125 92.138671875 1453.578125 48.935546875 c 0
 1439.828125 5.732421875 1420.296875 -30.439453125 1394.984375 -59.580078125 c 0
 1369.75 -88.720703125 1339.359375 -110.751953125 1303.8125 -125.830078125 c 0
 1268.265625 -140.830078125 1228.8125 -148.330078125 1185.296875 -148.330078125 c 256
1185.296875 -51.376953125 m 0
 1210.84375 -51.376953125 1234.359375 -46.923828125 1255.84375 -37.939453125 c 0
 1277.25 -29.033203125 1295.53125 -16.064453125 1310.53125 0.888671875 c 0
 1325.609375 17.841796875 1337.25 38.544921875 1345.609375 62.841796875 c 0
 1353.890625 87.138671875 1358.03125 114.638671875 1358.03125 145.419921875 c 1
 1358.03125 180.602539062 1358.03125 215.784179688 1358.03125 250.966796875 c 1
 1358.03125 281.748046875 1353.890625 309.248046875 1345.609375 333.544921875 c 0
 1337.25 357.841796875 1325.609375 378.544921875 1310.53125 395.498046875 c 0
 1295.53125 412.451171875 1277.25 425.419921875 1255.84375 434.326171875 c 0
 1234.359375 443.310546875 1210.84375 447.763671875 1185.296875 447.763671875 c 0
 1159.046875 447.763671875 1135.375 443.310546875 1114.203125 434.326171875 c 0
 1093.109375 425.419921875 1074.984375 412.451171875 1059.984375 395.498046875 c 0
 1044.90625 378.544921875 1033.265625 357.841796875 1024.90625 333.544921875 c 0
 1016.625 309.248046875 1012.484375 281.748046875 1012.484375 250.966796875 c 1
 1012.484375 215.784179688 1012.484375 180.602539062 1012.484375 145.419921875 c 1
 1012.484375 114.638671875 1016.625 87.138671875 1024.90625 62.841796875 c 0
 1033.265625 38.544921875 1044.90625 17.841796875 1059.984375 0.888671875 c 0
 1074.984375 -16.064453125 1093.109375 -29.033203125 1114.203125 -37.939453125 c 0
 1135.375 -46.923828125 1159.046875 -51.376953125 1185.296875 -51.376953125 c 0
586 717.685546875 m 256
 542.40625 717.685546875 502.875 725.185546875 467.40625 740.185546875 c 0
 431.78125 755.263671875 401.46875 777.294921875 376.15625 806.435546875 c 0
 350.84375 835.576171875 331.3125 871.748046875 317.5625 914.951171875 c 0
 303.8125 958.154296875 296.9375 1007.91992188 296.9375 1064.24804688 c 256
 296.9375 1120.49804688 303.8125 1170.26367188 317.5625 1213.46679688 c 0
 331.3125 1256.66992188 350.84375 1292.84179688 376.15625 1321.98242188 c 0
 401.46875 1351.12304688 431.78125 1373.15429688 467.40625 1388.23242188 c 0
 502.875 1403.23242188 542.40625 1410.73242188 586 1410.73242188 c 256
 629.4375 1410.73242188 668.96875 1403.23242188 704.4375 1388.23242188 c 0
 740.0625 1373.15429688 770.375 1351.12304688 795.6875 1321.98242188 c 0
 821 1292.84179688 840.53125 1256.66992188 854.28125 1213.46679688 c 0
 868.03125 1170.26367188 874.90625 1120.49804688 874.90625 1064.24804688 c 256
 874.90625 1007.91992188 868.03125 958.154296875 854.28125 914.951171875 c 0
 840.53125 871.748046875 821 835.576171875 795.6875 806.435546875 c 0
 770.375 777.294921875 740.0625 755.263671875 704.4375 740.185546875 c 0
 668.96875 725.185546875 629.4375 717.685546875 586 717.685546875 c 256
586 814.638671875 m 0
 611.46875 814.638671875 635.0625 819.091796875 656.46875 828.076171875 c 0
 677.875 836.982421875 696.15625 849.951171875 711.15625 866.904296875 c 0
 726.3125 883.857421875 737.875 904.560546875 746.3125 928.857421875 c 0
 754.59375 953.154296875 758.65625 980.654296875 758.65625 1011.43554688 c 1
 758.65625 1046.61816406 758.65625 1081.79980469 758.65625 1116.98242188 c 1
 758.65625 1147.76367188 754.59375 1175.26367188 746.3125 1199.56054688 c 0
 737.875 1223.85742188 726.3125 1244.56054688 711.15625 1261.51367188 c 0
 696.15625 1278.46679688 677.875 1291.43554688 656.46875 1300.34179688 c 0
 635.0625 1309.32617188 611.46875 1313.77929688 586 1313.77929688 c 0
 559.75 1313.77929688 536 1309.32617188 514.90625 1300.34179688 c 0
 493.8125 1291.43554688 475.6875 1278.46679688 460.6875 1261.51367188 c 0
 445.53125 1244.56054688 433.96875 1223.85742188 425.53125 1199.56054688 c 0
 417.25 1175.26367188 413.1875 1147.76367188 413.1875 1116.98242188 c 1
 413.1875 1081.79980469 413.1875 1046.61816406 413.1875 1011.43554688 c 1
 413.1875 980.654296875 417.25 953.154296875 425.53125 928.857421875 c 0
 433.96875 904.560546875 445.53125 883.857421875 460.6875 866.904296875 c 0
 475.6875 849.951171875 493.8125 836.982421875 514.90625 828.076171875 c 0
 536 819.091796875 559.75 814.638671875 586 814.638671875 c 0
1295.375 1303.23242188 m 1
 1295.375 1111.87792969 1295.375 920.524414062 1295.375 729.169921875 c 1
 1259.22949219 729.169921875 1223.08300781 729.169921875 1186.9375 729.169921875 c 1
 1186.9375 920.524414062 1186.9375 1111.87792969 1186.9375 1303.23242188 c 1
 1120.375 1303.23242188 1053.8125 1303.23242188 987.25 1303.23242188 c 1
 987.25 1335.23730469 987.25 1367.24316406 987.25 1399.24804688 c 1
 1156.52050781 1399.24804688 1325.79199219 1399.24804688 1495.0625 1399.24804688 c 1
 1495.0625 1367.24316406 1495.0625 1335.23730469 1495.0625 1303.23242188 c 1
 1428.5 1303.23242188 1361.9375 1303.23242188 1295.375 1303.23242188 c 1
EndSplineSet
EndChar

StartChar: uniF01C
Encoding: 61468 61468 31
Width: 1792
Flags: W
HStem: -142.66 89.2188<744.623 935.553> 139.527 90.2344<158.82 367.996> 393.98 144.922<1268.27 1295.6 1615.77 1643.59> 448.668 90.2344<158.82 367.996 736.426 938.646> 1260 144.922<713.898 741.227 1061.4 1089.21>
VStem: 57.0234 101.797<-131.176 139.527 229.762 448.668> 387.258 108.516<249.103 429.33> 590.148 109.453<-4.92935 412.656> 622.648 97.9688<734.84 1258.24> 1082.49 97.9688<734.84 1260.09> 1177.02 97.9688<-131.176 392.225> 1636.87 97.9688<-131.176 394.071>
DStem2: 742.648 1404.92 725.383 1260 0.416929 -0.908939<124.527 395.989> 1297.02 538.902 1279.76 393.98 0.416929 -0.908939<124.527 395.989>
LayerCount: 2
UndoRedoHistory
Layer: 1
Undoes
UndoOperation
Index: 0
Type: 12
WasModified: 0
WasOrder2: 0
Layer: 0
HStem: -142.66 89.2188<744.623 935.553> 139.527 90.2344<158.82 367.996> 393.98 144.922<1268.27 1295.6 1615.77 1643.59> 448.668 90.2344<158.82 367.996 736.426 938.646> 1260 144.922<713.898 741.227 1061.4 1089.21>
VStem: 57.0234 101.797<-131.176 139.527 229.762 448.668> 387.258 108.516<249.103 429.33> 590.148 109.453<-4.92935 412.656> 622.648 97.9688<734.84 1258.24> 1082.49 97.9688<734.84 1260.09> 1177.02 97.9688<-131.176 392.225> 1636.87 97.9688<-131.176 394.071>
DStem2: 742.648 1404.92 725.383 1260 0.416929 -0.908939<124.527 395.989> 1297.02 538.902 1279.76 393.98 0.416929 -0.908939<124.527 395.989>
EndUndoOperation
EndUndoes
Redoes
EndRedoes
EndUndoRedoHistory
Fore
SplineSet
57.0234375 -131.17578125 m 1xde10
 57.0234375 92.18359375 57.0234375 315.54296875 57.0234375 538.90234375 c 1
 145.356445312 538.90234375 233.690429688 538.90234375 322.0234375 538.90234375 c 1
 379.6015625 538.90234375 422.9609375 521.79296875 452.1015625 487.57421875 c 0
 481.1640625 453.27734375 495.7734375 403.90234375 495.7734375 339.21484375 c 256
 495.7734375 274.60546875 481.1640625 225.15234375 452.1015625 190.93359375 c 0
 422.9609375 156.63671875 379.6015625 139.52734375 322.0234375 139.52734375 c 1
 267.622070312 139.52734375 213.221679688 139.52734375 158.8203125 139.52734375 c 1
 158.8203125 49.29296875 158.8203125 -40.94140625 158.8203125 -131.17578125 c 1
 124.887695312 -131.17578125 90.9560546875 -131.17578125 57.0234375 -131.17578125 c 1xde10
158.8203125 229.76171875 m 1
 210.331054688 229.76171875 261.840820312 229.76171875 313.3515625 229.76171875 c 1
 337.6484375 229.76171875 356.0859375 236.01171875 368.5859375 248.51171875 c 0
 381.0078125 261.01171875 387.2578125 281.01171875 387.2578125 308.51171875 c 1
 387.2578125 328.98046875 387.2578125 349.44921875 387.2578125 369.91796875 c 1
 387.2578125 397.49609375 381.0078125 417.49609375 368.5859375 429.91796875 c 0
 356.0859375 442.41796875 337.6484375 448.66796875 313.3515625 448.66796875 c 1
 261.840820312 448.66796875 210.331054688 448.66796875 158.8203125 448.66796875 c 1
 158.8203125 375.69921875 158.8203125 302.73046875 158.8203125 229.76171875 c 1
843.5859375 -142.66015625 m 0
 804.5234375 -142.66015625 769.5234375 -136.09765625 738.5078125 -123.05078125 c 0
 707.4140625 -109.92578125 680.8515625 -89.22265625 658.8203125 -61.09765625 c 0
 636.7109375 -32.97265625 619.7578125 3.04296875 607.8828125 46.87109375 c 0
 596.0859375 90.77734375 590.1484375 143.04296875 590.1484375 203.90234375 c 256
 590.1484375 264.68359375 596.0859375 316.94921875 607.8828125 360.85546875 c 0
 619.7578125 404.68359375 636.7109375 440.69921875 658.8203125 468.82421875 c 0
 680.8515625 496.94921875 707.4140625 517.65234375 738.5078125 530.77734375 c 0
 769.5234375 543.90234375 804.5234375 550.38671875 843.5859375 550.38671875 c 0
 900.5390625 550.38671875 946.1640625 538.122070312 980.3828125 513.43359375 c 0
 1014.6015625 488.82421875 1042.0234375 451.87109375 1062.4921875 402.57421875 c 1
 1033.69042969 386.584960938 1004.88769531 370.595703125 976.0859375 354.60546875 c 1
 964.5234375 392.33984375 948.4296875 419.528320312 927.5703125 436.16796875 c 0
 906.7890625 452.80859375 878.8203125 461.16796875 843.5859375 461.16796875 c 0
 798.1953125 461.16796875 762.8046875 445.46484375 737.4921875 414.13671875 c 0
 712.2578125 382.73046875 699.6015625 339.52734375 699.6015625 284.52734375 c 1
 699.6015625 230.751953125 699.6015625 176.975585938 699.6015625 123.19921875 c 1xcf10
 699.6015625 68.19921875 712.2578125 24.99609375 737.4921875 -6.41015625 c 0
 762.8046875 -37.73828125 798.1953125 -53.44140625 843.5859375 -53.44140625 c 0
 879.4453125 -53.44140625 908.4296875 -44.45703125 930.4609375 -26.56640625 c 0
 952.5703125 -8.59765625 969.6796875 20.15234375 981.8671875 59.83984375 c 1
 1010.01855469 43.19921875 1038.16894531 26.55859375 1066.3203125 9.91796875 c 1
 1045.2265625 -39.30078125 1017.0234375 -77.11328125 981.8671875 -103.36328125 c 0
 946.6328125 -129.61328125 900.5390625 -142.66015625 843.5859375 -142.66015625 c 0
1636.8671875 281.63671875 m 1
 1639.10644531 319.709960938 1641.34667969 357.783203125 1643.5859375 395.85546875 c 1
 1639.7578125 395.85546875 1635.9296875 395.85546875 1632.1015625 395.85546875 c 1
 1616.73730469 358.408203125 1601.37207031 320.959960938 1586.0078125 283.51171875 c 1
 1542.4921875 192.65234375 1498.9765625 101.79296875 1455.4609375 10.93359375 c 1
 1412.2578125 101.79296875 1369.0546875 192.65234375 1325.8515625 283.51171875 c 1
 1310.48730469 320.334960938 1295.12207031 357.158203125 1279.7578125 393.98046875 c 1
 1275.9296875 393.98046875 1272.1015625 393.98046875 1268.2734375 393.98046875 c 1xee30
 1270.51269531 356.533203125 1272.75292969 319.084960938 1274.9921875 281.63671875 c 1
 1274.9921875 144.033203125 1274.9921875 6.4287109375 1274.9921875 -131.17578125 c 1
 1242.3359375 -131.17578125 1209.6796875 -131.17578125 1177.0234375 -131.17578125 c 1
 1177.0234375 92.18359375 1177.0234375 315.54296875 1177.0234375 538.90234375 c 1
 1217.0234375 538.90234375 1257.0234375 538.90234375 1297.0234375 538.90234375 c 1xde30
 1333.1953125 460.830078125 1369.3671875 382.756835938 1405.5390625 304.68359375 c 1
 1421.21582031 260.517578125 1436.89355469 216.350585938 1452.5703125 172.18359375 c 1
 1455.43457031 172.18359375 1458.29980469 172.18359375 1461.1640625 172.18359375 c 1
 1476.8671875 216.350585938 1492.5703125 260.517578125 1508.2734375 304.68359375 c 1
 1544.10644531 382.756835938 1579.94042969 460.830078125 1615.7734375 538.90234375 c 1xee30
 1655.4609375 538.90234375 1695.1484375 538.90234375 1734.8359375 538.90234375 c 1xde30
 1734.8359375 315.54296875 1734.8359375 92.18359375 1734.8359375 -131.17578125 c 1
 1702.1796875 -131.17578125 1669.5234375 -131.17578125 1636.8671875 -131.17578125 c 1
 1636.8671875 6.4287109375 1636.8671875 144.033203125 1636.8671875 281.63671875 c 1
1082.4921875 1147.65234375 m 1xced0
 1084.73144531 1185.72558594 1086.97167969 1223.79882812 1089.2109375 1261.87109375 c 1
 1085.3828125 1261.87109375 1081.5546875 1261.87109375 1077.7265625 1261.87109375 c 1
 1062.36230469 1224.42382812 1046.99707031 1186.97558594 1031.6328125 1149.52734375 c 1
 988.1171875 1058.66796875 944.6015625 967.80859375 901.0859375 876.94921875 c 1
 857.8828125 967.80859375 814.6796875 1058.66796875 771.4765625 1149.52734375 c 1
 756.112304688 1186.35058594 740.747070312 1223.17382812 725.3828125 1259.99609375 c 1
 721.5546875 1259.99609375 717.7265625 1259.99609375 713.8984375 1259.99609375 c 1
 716.137695312 1222.54882812 718.377929688 1185.10058594 720.6171875 1147.65234375 c 1
 720.6171875 1010.04882812 720.6171875 872.444335938 720.6171875 734.83984375 c 1
 687.9609375 734.83984375 655.3046875 734.83984375 622.6484375 734.83984375 c 1
 622.6484375 958.19921875 622.6484375 1181.55859375 622.6484375 1404.91796875 c 1
 662.6484375 1404.91796875 702.6484375 1404.91796875 742.6484375 1404.91796875 c 1
 778.8203125 1326.84570312 814.9921875 1248.77246094 851.1640625 1170.69921875 c 1
 866.840820312 1126.53320312 882.518554688 1082.36621094 898.1953125 1038.19921875 c 1
 901.059570312 1038.19921875 903.924804688 1038.19921875 906.7890625 1038.19921875 c 1
 922.4921875 1082.36621094 938.1953125 1126.53320312 953.8984375 1170.69921875 c 1
 989.731445312 1248.77246094 1025.56542969 1326.84570312 1061.3984375 1404.91796875 c 1
 1101.0859375 1404.91796875 1140.7734375 1404.91796875 1180.4609375 1404.91796875 c 1
 1180.4609375 1181.55859375 1180.4609375 958.19921875 1180.4609375 734.83984375 c 1
 1147.8046875 734.83984375 1115.1484375 734.83984375 1082.4921875 734.83984375 c 1
 1082.4921875 872.444335938 1082.4921875 1010.04882812 1082.4921875 1147.65234375 c 1xced0
EndSplineSet
EndChar

StartChar: uniF01D
Encoding: 61469 61469 32
Width: 1792
Flags: W
HStem: -136.846 96.0156<497.016 817.797 1015.27 1260.36> 155.029 95.9375<497.016 787.953 1142.69 1260.82> 437.217 96.0156<497.016 817.797 1052.91 1288.54> 717.686 95.9375<459.826 685.636> 1314.79 95.9375<485.37 703.815>
VStem: 353.969 107.5<1157.56 1293.85> 388.578 108.438<-40.8301 155.029 250.967 437.217> 713.969 107.5<840.735 987.928> 924.672 107.5<291.541 427.835> 937.875 103.75<729.17 1241.83> 1284.67 107.5<-25.2804 121.913> 1354.59 103.594<886.592 1399.25>
DStem2: 568.031 1130.42 549.75 1027.76 0.978916 -0.204262<-84.3815 149.558> 1277.72 1028.7 1118.34 1099.72 0.508638 -0.860981<-299.653 157.446> 1138.73 264.404 1120.45 161.748 0.978916 -0.204262<-84.3815 149.558>
LayerCount: 2
UndoRedoHistory
Layer: 1
Undoes
UndoOperation
Index: 0
Type: 12
WasModified: 0
WasOrder2: 0
Layer: 0
HStem: -136.846 96.0156<497.016 817.797 1015.27 1260.36> 155.029 95.9375<497.016 787.953 1142.69 1260.82> 437.217 96.0156<497.016 817.797 1052.91 1288.54> 717.686 95.9375<459.826 685.636> 1314.79 95.9375<485.37 703.815>
VStem: 353.969 107.5<1157.56 1293.85> 388.578 108.438<-40.8301 155.029 250.967 437.217> 713.969 107.5<840.735 987.928> 924.672 107.5<291.541 427.835> 937.875 103.75<729.17 1241.83> 1284.67 107.5<-25.2804 121.913> 1354.59 103.594<886.592 1399.25>
DStem2: 568.031 1130.42 549.75 1027.76 0.978916 -0.204262<-84.3815 149.558> 1138.73 264.404 1120.45 161.748 0.978916 -0.204262<-84.3815 149.558>
EndUndoOperation
EndUndoes
Redoes
EndRedoes
EndUndoRedoHistory
Fore
SplineSet
388.578125 -136.845703125 m 1xfb
 388.578125 86.513671875 388.578125 309.873046875 388.578125 533.232421875 c 1
 531.651367188 533.232421875 674.723632812 533.232421875 817.796875 533.232421875 c 1
 817.796875 501.227539062 817.796875 469.221679688 817.796875 437.216796875 c 1
 710.870117188 437.216796875 603.942382812 437.216796875 497.015625 437.216796875 c 1
 497.015625 375.133789062 497.015625 313.049804688 497.015625 250.966796875 c 1
 593.995117188 250.966796875 690.973632812 250.966796875 787.953125 250.966796875 c 1
 787.953125 218.987304688 787.953125 187.008789062 787.953125 155.029296875 c 1
 690.973632812 155.029296875 593.995117188 155.029296875 497.015625 155.029296875 c 1
 497.015625 89.7431640625 497.015625 24.4560546875 497.015625 -40.830078125 c 1
 603.942382812 -40.830078125 710.870117188 -40.830078125 817.796875 -40.830078125 c 1
 817.796875 -72.8349609375 817.796875 -104.840820312 817.796875 -136.845703125 c 1
 674.723632812 -136.845703125 531.651367188 -136.845703125 388.578125 -136.845703125 c 1xfb
1149.203125 -148.330078125 m 0
 1092.953125 -148.330078125 1045.140625 -138.095703125 1005.765625 -117.626953125 c 0
 966.390625 -97.158203125 932.640625 -69.658203125 904.515625 -35.048828125 c 1
 929.463867188 -11.689453125 954.411132812 11.669921875 979.359375 35.029296875 c 1
 1002.953125 6.201171875 1029.046875 -15.595703125 1057.484375 -30.283203125 c 0
 1086.078125 -44.970703125 1118.578125 -52.392578125 1154.984375 -52.392578125 c 0
 1197.953125 -52.392578125 1230.140625 -42.783203125 1252.015625 -23.564453125 c 0
 1273.734375 -4.345703125 1284.671875 21.591796875 1284.671875 54.169921875 c 0
 1284.671875 80.419921875 1276.859375 101.201171875 1261.546875 116.591796875 c 0
 1246.234375 131.982421875 1219.046875 143.466796875 1179.984375 151.123046875 c 1
 1160.140625 154.665039062 1140.296875 158.206054688 1120.453125 161.748046875 c 1
 1055.140625 173.857421875 1006.234375 195.341796875 973.578125 226.044921875 c 0
 940.921875 256.748046875 924.671875 299.013671875 924.671875 352.763671875 c 0
 924.671875 382.216796875 930.140625 408.935546875 941.390625 432.919921875 c 0
 952.640625 456.904296875 968.265625 477.060546875 988.421875 493.388671875 c 0
 1008.578125 509.716796875 1033.109375 522.373046875 1061.859375 531.279296875 c 0
 1090.609375 540.263671875 1122.953125 544.716796875 1158.890625 544.716796875 c 0
 1209.359375 544.716796875 1253.265625 535.966796875 1290.296875 518.388671875 c 0
 1327.484375 500.732421875 1359.203125 475.341796875 1385.453125 442.060546875 c 1
 1360.140625 419.665039062 1334.828125 397.268554688 1309.515625 374.873046875 c 1
 1292.328125 397.216796875 1271.234375 415.185546875 1246.234375 428.623046875 c 0
 1221.234375 442.060546875 1190.140625 448.779296875 1153.109375 448.779296875 c 0
 1114.671875 448.779296875 1084.984375 441.044921875 1063.734375 425.732421875 c 0
 1042.640625 410.341796875 1032.171875 387.919921875 1032.171875 358.544921875 c 0
 1032.171875 330.341796875 1040.765625 309.404296875 1058.109375 295.654296875 c 0
 1075.296875 281.904296875 1102.171875 271.435546875 1138.734375 264.404296875 c 1
 1158.578125 260.263671875 1178.421875 256.123046875 1198.265625 251.982421875 c 1
 1265.453125 239.169921875 1314.515625 217.373046875 1345.609375 186.669921875 c 0
 1376.546875 155.966796875 1392.171875 113.701171875 1392.171875 59.951171875 c 0xf9a0
 1392.171875 28.623046875 1386.703125 0.107421875 1375.765625 -25.517578125 c 0
 1364.984375 -51.064453125 1349.046875 -73.017578125 1328.265625 -91.220703125 c 0
 1307.484375 -109.501953125 1282.015625 -123.564453125 1252.015625 -133.486328125 c 0
 1221.859375 -143.408203125 1187.640625 -148.330078125 1149.203125 -148.330078125 c 0
578.5 717.685546875 m 0
 522.25 717.685546875 474.4375 727.919921875 435.0625 748.388671875 c 0
 395.6875 768.857421875 361.9375 796.357421875 333.8125 830.966796875 c 1
 358.760742188 854.326171875 383.708007812 877.685546875 408.65625 901.044921875 c 1
 432.25 872.216796875 458.34375 850.419921875 486.78125 835.732421875 c 0
 515.375 821.044921875 547.875 813.623046875 584.28125 813.623046875 c 0
 627.25 813.623046875 659.4375 823.232421875 681.3125 842.451171875 c 0
 703.03125 861.669921875 713.96875 887.607421875 713.96875 920.185546875 c 0
 713.96875 946.435546875 706.15625 967.216796875 690.84375 982.607421875 c 0
 675.53125 997.998046875 648.34375 1009.48242188 609.28125 1017.13867188 c 1
 589.4375 1020.68066406 569.59375 1024.22167969 549.75 1027.76367188 c 1
 484.4375 1039.87304688 435.53125 1061.35742188 402.875 1092.06054688 c 0
 370.21875 1122.76367188 353.96875 1165.02929688 353.96875 1218.77929688 c 0
 353.96875 1248.23242188 359.4375 1274.95117188 370.6875 1298.93554688 c 0
 381.9375 1322.91992188 397.5625 1343.07617188 417.71875 1359.40429688 c 0
 437.875 1375.73242188 462.40625 1388.38867188 491.15625 1397.29492188 c 0
 519.90625 1406.27929688 552.25 1410.73242188 588.1875 1410.73242188 c 0
 638.65625 1410.73242188 682.5625 1401.98242188 719.59375 1384.40429688 c 0
 756.78125 1366.74804688 788.5 1341.35742188 814.75 1308.07617188 c 1
 789.4375 1285.68066406 764.125 1263.28417969 738.8125 1240.88867188 c 1
 721.625 1263.23242188 700.53125 1281.20117188 675.53125 1294.63867188 c 0
 650.53125 1308.07617188 619.4375 1314.79492188 582.40625 1314.79492188 c 0
 543.96875 1314.79492188 514.28125 1307.06054688 493.03125 1291.74804688 c 0
 471.9375 1276.35742188 461.46875 1253.93554688 461.46875 1224.56054688 c 0xfd
 461.46875 1196.35742188 470.0625 1175.41992188 487.40625 1161.66992188 c 0
 504.59375 1147.91992188 531.46875 1137.45117188 568.03125 1130.41992188 c 1
 587.875 1126.27929688 607.71875 1122.13867188 627.5625 1117.99804688 c 1
 694.75 1105.18554688 743.8125 1083.38867188 774.90625 1052.68554688 c 0
 805.84375 1021.98242188 821.46875 979.716796875 821.46875 925.966796875 c 0
 821.46875 894.638671875 816 866.123046875 805.0625 840.498046875 c 0
 794.28125 814.951171875 778.34375 792.998046875 757.5625 774.794921875 c 0
 736.78125 756.513671875 711.3125 742.451171875 681.3125 732.529296875 c 0
 651.15625 722.607421875 616.9375 717.685546875 578.5 717.685546875 c 0
1118.34375 1099.71679688 m 1
 1093.70800781 1147.08691406 1069.07324219 1194.45605469 1044.4375 1241.82617188 c 1
 1043.5 1241.82617188 1042.5625 1241.82617188 1041.625 1241.82617188 c 1
 1041.625 1070.94042969 1041.625 900.055664062 1041.625 729.169921875 c 1
 1007.04199219 729.169921875 972.458007812 729.169921875 937.875 729.169921875 c 1
 937.875 952.529296875 937.875 1175.88867188 937.875 1399.24804688 c 1
 978.1875 1399.24804688 1018.5 1399.24804688 1058.8125 1399.24804688 c 1
 1131.78125 1275.73242188 1204.75 1152.21679688 1277.71875 1028.70117188 c 1
 1302.35449219 981.331054688 1326.98925781 933.961914062 1351.625 886.591796875 c 1
 1352.61425781 886.591796875 1353.60449219 886.591796875 1354.59375 886.591796875 c 1
 1354.59375 1057.47753906 1354.59375 1228.36230469 1354.59375 1399.24804688 c 1
 1389.125 1399.24804688 1423.65625 1399.24804688 1458.1875 1399.24804688 c 1
 1458.1875 1175.88867188 1458.1875 952.529296875 1458.1875 729.169921875 c 1xf950
 1417.875 729.169921875 1377.5625 729.169921875 1337.25 729.169921875 c 1
 1264.28125 852.685546875 1191.3125 976.201171875 1118.34375 1099.71679688 c 1
EndSplineSet
EndChar

